<svg width="297" height="48" viewBox="0 0 297 48" fill="none" xmlns="http://www.w3.org/2000/svg">
<path d="M62.561 5.70222C60.9771 5.70222 59.7063 5.88639 58.7485 6.25474C57.7908 6.62309 57.0357 7.08353 56.4831 7.63605C55.9306 8.18858 55.5439 8.79636 55.3229 9.45939C55.1387 10.1224 54.9913 10.767 54.8808 11.3932C54.6967 12.6088 54.4204 13.3823 54.052 13.7138C53.6837 14.0454 53.2601 14.1927 52.7812 14.1559C52.2287 14.0822 51.8604 13.8059 51.6762 13.3271C51.5289 12.8114 51.492 12.3694 51.5657 12.001C51.713 11.117 52.063 10.2513 52.6155 9.40414C53.168 8.5201 53.9047 7.72814 54.8256 7.02828C55.7833 6.29158 56.9067 5.70222 58.196 5.2602C59.4852 4.81818 60.9402 4.59717 62.561 4.59717C63.666 4.59717 64.8816 4.74451 66.2076 5.03919C67.5705 5.33387 68.8415 5.8864 70.0202 6.69677C71.199 7.50714 72.1751 8.6306 72.9486 10.0672C73.759 11.5037 74.1642 13.3639 74.1642 15.6477C74.1642 17.7841 73.6301 19.8285 72.5619 21.7807C71.5305 23.733 70.0938 25.7221 68.252 27.748C66.4103 29.7739 64.237 31.9103 61.7322 34.1573C59.2274 36.4042 56.5016 38.8906 53.5548 41.6164H72.1751C72.8381 41.6164 73.3538 41.4506 73.7222 41.1191C74.0905 40.7876 74.3668 40.4192 74.551 40.014C74.772 39.572 74.9009 39.1484 74.9377 38.7432C74.9746 38.338 74.993 38.0618 74.993 37.9144H75.2693V43.8265H50.4054V43.4949L52.3945 41.6164C55.7096 38.2275 58.5828 35.336 61.0139 32.9417C63.4818 30.5106 65.5262 28.3373 67.147 26.4219C68.7677 24.4697 69.965 22.6648 70.7385 21.0072C71.5489 19.3496 71.9541 17.5815 71.9541 15.7029C71.9541 13.8243 71.641 12.2589 71.0148 11.0065C70.4254 9.71724 69.6519 8.68585 68.6942 7.91232C67.7733 7.13878 66.7602 6.58626 65.6551 6.25474C64.5501 5.88639 63.5187 5.70222 62.561 5.70222Z" fill="#0F132A"/>
<path d="M15.5012 43.7042C15.4908 43.7451 15.4807 43.7859 15.4707 43.8264H16.296V43.4927V41.2469L16.2962 41.1269C15.9717 41.969 15.6979 42.8309 15.5012 43.7042Z" fill="#0F132A"/>
<path d="M37.4227 11.6851L37.4367 10.7764C34.0171 13.5617 30.8806 16.9959 27.9144 20.507C27.905 20.5181 27.8956 20.5293 27.8862 20.5404L28.1684 21.3168C31.1857 17.6966 34.39 14.1963 37.4227 11.6851Z" fill="#0F132A"/>
<path d="M42.9372 9.51464L34.0416 39.8483L33.96 40.1194L34.0416 40.3823C33.938 40.6263 33.8382 40.8722 33.7428 41.1198C33.4182 41.9618 33.1444 42.8238 32.9477 43.697C32.9415 43.7216 32.9354 43.746 32.9293 43.7704C32.9253 43.7867 32.9212 43.803 32.9172 43.8193H33.7084L43.766 9.51464C43.987 8.81478 44.3922 8.207 44.9816 7.69131C45.5709 7.17562 46.1787 6.75202 46.8049 6.4205C47.2533 6.1739 47.7221 5.95458 48.2114 5.76255C47.5407 5.85455 44.9746 6.60034 43.5908 7.28591L42.9372 9.51464Z" fill="#0F132A"/>
<path d="M37.4367 10.7764L37.4227 11.6851C38.6835 10.641 40.9942 9.04076 43.0241 7.61158C43.1732 7.50664 43.3665 7.39706 43.5908 7.28591L43.8457 6.4169C43.4765 6.57557 42.6607 7.07128 42.3435 7.28591C40.2822 8.68058 38.6361 9.79949 37.4367 10.7764Z" fill="#0F132A"/>
<path d="M49.1808 5.42595V5.1497V4.85605L47.9772 5.14254C47.1554 5.37159 45.6371 5.64704 43.8457 6.4169L43.5908 7.28591C44.9746 6.60034 47.5407 5.85455 48.2114 5.76255C48.2246 5.75738 48.2378 5.75224 48.251 5.74711C48.5531 5.6297 48.8631 5.52264 49.1808 5.42595Z" fill="#0F132A"/>
<path fill-rule="evenodd" clip-rule="evenodd" d="M26.7258 24.1018L32.9172 43.8193C32.9212 43.803 32.9253 43.7867 32.9293 43.7704C32.9354 43.746 32.9415 43.7216 32.9477 43.697C33.1444 42.8238 33.4182 41.9618 33.7428 41.1198C33.8382 40.8722 33.938 40.6263 34.0416 40.3823L33.96 40.1194L33.8565 39.7858L28.3847 22.1474L26.7258 24.1018Z" fill="#0F132A"/>
<path d="M16.296 43.8264H16.2995C17.1283 39.6217 21.2626 31.6753 22.353 29.6763L26.4837 23.3411L26.2389 22.561C25.7248 23.2704 23.536 26.3339 21.6261 29.6763C19.4453 33.4927 17.3059 38.2209 16.5376 40.3987C16.434 40.6426 16.3917 40.8793 16.2962 41.1269L16.296 41.2469V43.4927V43.8264Z" fill="#0F132A"/>
<path d="M26.3511 22.4072C26.3511 22.4072 27.3168 21.2149 27.8862 20.5404C27.8956 20.5293 27.905 20.5181 27.9144 20.507L24.4636 9.50749C24.2426 8.80762 24.1689 8.19984 24.2426 7.68415C24.3163 7.16846 24.4452 6.74486 24.6294 6.41335C24.8135 6.08183 24.9977 5.8424 25.1819 5.69506C25.4029 5.51089 25.5502 5.4188 25.6239 5.4188V5.14254H17.4465V5.4188C18.1832 5.67664 18.8647 6.00816 19.4909 6.41335C20.0066 6.74486 20.5223 7.16846 21.0379 7.68415C21.5536 8.19984 21.922 8.80762 22.143 9.50749L26.2389 22.561C26.3118 22.4605 26.3511 22.4072 26.3511 22.4072Z" fill="#0F132A"/>
<path d="M4.69646 9.51464L15.4707 43.8264C15.4807 43.7859 15.4908 43.7451 15.5012 43.7042C15.6979 42.8309 15.9717 41.969 16.2962 41.1269C16.3917 40.8793 16.434 40.6426 16.5376 40.3987L16.41 39.793L7.01707 9.51464C6.79606 8.81478 6.72239 8.207 6.79606 7.69131C6.86973 7.17562 6.99865 6.75202 7.18283 6.4205C7.367 6.08899 7.55118 5.84956 7.73535 5.70222C7.95636 5.51804 8.1037 5.42595 8.17737 5.42595V5.1497H0V5.42595C0.7367 5.6838 1.41815 6.01532 2.04434 6.4205C2.56003 6.75202 3.07572 7.17562 3.59141 7.69131C4.1071 8.207 4.47545 8.81478 4.69646 9.51464Z" fill="#0F132A"/>
<path d="M27.8862 20.5404C27.3168 21.2149 26.3511 22.4072 26.3511 22.4072C26.3511 22.4072 26.3118 22.4605 26.2389 22.561L26.4837 23.3411C27.1243 22.5164 27.4904 22.0745 28.1684 21.3168L27.8862 20.5404Z" fill="#0F132A"/>
<path d="M26.7258 24.1018L28.3847 22.1474L28.317 21.8872C27.6524 22.6341 27.2421 23.0461 26.6489 23.8611L26.7258 24.1018Z" fill="#0F132A"/>
<path d="M91.7152 43.7042C91.7049 43.7451 91.6948 43.7859 91.6848 43.8264H92.5101V43.4927V41.2469L92.5103 41.1269C92.1858 41.969 91.912 42.8309 91.7152 43.7042Z" fill="#0F132A"/>
<path d="M113.637 11.6851L113.651 10.7764C110.231 13.5617 107.095 16.9959 104.128 20.507C104.119 20.5181 104.11 20.5293 104.1 20.5404L104.382 21.3168C107.4 17.6966 110.604 14.1963 113.637 11.6851Z" fill="#0F132A"/>
<path d="M119.151 9.51464L110.256 39.8483L110.174 40.1194L110.256 40.3823C110.152 40.6263 110.052 40.8722 109.957 41.1198C109.632 41.9618 109.359 42.8238 109.162 43.697C109.156 43.7216 109.149 43.746 109.143 43.7704C109.139 43.7867 109.135 43.803 109.131 43.8193H109.922L119.98 9.51464C120.201 8.81478 120.606 8.207 121.196 7.69131C121.785 7.17562 122.393 6.75202 123.019 6.4205C123.467 6.1739 123.936 5.95458 124.425 5.76255C123.755 5.85455 121.189 6.60034 119.805 7.28591L119.151 9.51464Z" fill="#0F132A"/>
<path d="M113.651 10.7764L113.637 11.6851C114.898 10.641 117.208 9.04076 119.238 7.61158C119.387 7.50664 119.581 7.39706 119.805 7.28591L120.06 6.4169C119.691 6.57557 118.875 7.07128 118.558 7.28591C116.496 8.68058 114.85 9.79949 113.651 10.7764Z" fill="#0F132A"/>
<path d="M125.395 5.42595V5.1497V4.85605L124.191 5.14254C123.37 5.37159 121.851 5.64704 120.06 6.4169L119.805 7.28591C121.189 6.60034 123.755 5.85455 124.425 5.76255C124.439 5.75738 124.452 5.75224 124.465 5.74711C124.767 5.6297 125.077 5.52264 125.395 5.42595Z" fill="#0F132A"/>
<path fill-rule="evenodd" clip-rule="evenodd" d="M102.94 24.1018L109.131 43.8193C109.135 43.803 109.139 43.7867 109.143 43.7704C109.149 43.746 109.156 43.7216 109.162 43.697C109.359 42.8238 109.632 41.9618 109.957 41.1198C110.052 40.8722 110.152 40.6263 110.256 40.3823L110.174 40.1194L110.071 39.7858L104.599 22.1474L102.94 24.1018Z" fill="#0F132A"/>
<path d="M92.5101 43.8264H92.5136C93.3423 39.6217 97.4767 31.6753 98.5671 29.6763L102.698 23.3411L102.453 22.561C101.939 23.2704 99.7501 26.3339 97.8401 29.6763C95.6594 33.4927 93.52 38.2209 92.7517 40.3987C92.6481 40.6426 92.6057 40.8793 92.5103 41.1269L92.5101 41.2469V43.4927V43.8264Z" fill="#0F132A"/>
<path d="M102.565 22.4072C102.565 22.4072 103.531 21.2149 104.1 20.5404C104.11 20.5293 104.119 20.5181 104.128 20.507L100.678 9.50749C100.457 8.80762 100.383 8.19984 100.457 7.68415C100.53 7.16846 100.659 6.74486 100.843 6.41335C101.028 6.08183 101.212 5.8424 101.396 5.69506C101.617 5.51089 101.764 5.4188 101.838 5.4188V5.14254H93.6606V5.4188C94.3973 5.67664 95.0788 6.00816 95.7049 6.41335C96.2206 6.74486 96.7363 7.16846 97.252 7.68415C97.7677 8.19984 98.136 8.80762 98.3571 9.50749L102.453 22.561C102.526 22.4605 102.565 22.4072 102.565 22.4072Z" fill="#0F132A"/>
<path d="M80.9105 9.51464L91.6848 43.8264C91.6948 43.7859 91.7049 43.7451 91.7152 43.7042C91.912 42.8309 92.1858 41.969 92.5103 41.1269C92.6057 40.8793 92.6481 40.6426 92.7517 40.3987L92.6241 39.793L83.2311 9.51464C83.0101 8.81478 82.9365 8.207 83.0101 7.69131C83.0838 7.17562 83.2127 6.75202 83.3969 6.4205C83.5811 6.08899 83.7653 5.84956 83.9494 5.70222C84.1704 5.51804 84.3178 5.42595 84.3914 5.42595V5.1497H76.2141V5.42595C76.9508 5.6838 77.6322 6.01532 78.2584 6.4205C78.7741 6.75202 79.2898 7.17562 79.8055 7.69131C80.3212 8.207 80.6895 8.81478 80.9105 9.51464Z" fill="#0F132A"/>
<path d="M104.1 20.5404C103.531 21.2149 102.565 22.4072 102.565 22.4072C102.565 22.4072 102.526 22.4605 102.453 22.561L102.698 23.3411C103.338 22.5164 103.704 22.0745 104.382 21.3168L104.1 20.5404Z" fill="#0F132A"/>
<path d="M102.94 24.1018L104.599 22.1474L104.531 21.8872C103.866 22.6341 103.456 23.0461 102.863 23.8611L102.94 24.1018Z" fill="#0F132A"/>
<path d="M163.004 5.48304V35.0517H162.186V5.48304H163.004ZM162.186 5.48304C162.186 4.79201 162.004 3.46499 161.64 2.95581C161.313 2.44663 160.931 2.02838 160.494 1.70105C160.058 1.37372 159.64 1.13732 159.24 0.991839C158.876 0.80999 158.658 0.719064 158.585 0.719064V0.446289H163.004V1.98786V5.48304H162.186ZM194.318 5.48304H196.5V35.0517H194.318V5.48304Z" fill="#0F132A"/>
<path d="M220.737 38.6099C220.192 38.0647 220.069 37.5832 220.069 36.7926C220.069 35.9691 220.069 33.9061 220.069 33.9061C219.16 34.8517 218.306 35.7064 217.505 36.4702C216.742 37.1976 215.96 37.8159 215.159 38.325C214.359 38.8342 213.486 39.2161 212.541 39.4707C211.631 39.7616 210.595 39.9071 209.431 39.9071C208.194 39.9071 207.085 39.7253 206.103 39.3616C205.121 38.9615 204.303 38.4341 203.648 37.7795C202.994 37.1248 202.503 36.361 202.175 35.4882C201.812 34.6153 201.63 33.6879 201.63 32.7059C201.63 30.7419 202.23 29.1416 203.43 27.9051C204.667 26.6321 206.212 25.5774 208.067 24.7409C209.922 23.9044 211.923 23.2133 214.068 22.6678C216.214 22.1223 218.215 21.5585 220.069 20.9766V20.922C220.069 18.2307 219.378 16.1576 217.996 14.7028C216.614 13.248 214.723 12.5206 212.323 12.5206C211.013 12.5206 209.813 12.8661 208.722 13.5572C207.631 14.2482 206.721 15.3393 205.994 16.8305C205.812 17.1578 205.594 17.3942 205.339 17.5397C205.121 17.6851 204.867 17.7579 204.576 17.7579C204.212 17.7579 203.903 17.6851 203.648 17.5397C203.139 17.2487 202.903 16.8486 202.939 16.3395C203.012 15.8303 203.157 15.4302 203.375 15.1392C204.103 14.1936 205.176 13.3571 206.594 12.6297C208.049 11.9023 210.013 11.5386 212.486 11.5386C213.759 11.5386 214.978 11.7205 216.141 12.0842C217.305 12.4479 218.342 13.0116 219.251 13.7754C220.16 14.5391 220.888 15.5211 221.433 16.7213C221.979 17.8852 222.252 19.2854 222.252 20.922V35.4336C222.252 35.8337 222.191 36.9743 222.736 37.5195C223.281 38.0647 223.43 38.0647 223.757 38.1738C224.084 38.2466 224.263 38.2465 224.554 38.2465C224.844 38.2101 225.062 38.1011 225.099 38.0647C225.099 38.0647 224.372 39.1811 223.281 39.3369C222.191 39.4926 221.101 38.9734 220.737 38.6099ZM220.069 21.7949C218.105 22.3768 216.16 22.9406 214.232 23.4861C212.304 24.0317 210.577 24.7045 209.049 25.5047C207.522 26.2684 206.994 26.8688 206.012 28.0326C205.066 29.1601 204.575 30.5967 204.539 32.3424C204.539 33.1426 204.666 33.9063 204.921 34.6337C205.175 35.3611 205.575 35.9976 206.121 36.5431C206.666 37.0887 207.339 37.5251 208.139 37.8525C208.976 38.1798 209.922 38.3435 210.976 38.3435C211.958 38.3435 212.231 38.3921 213.104 38.0647C213.977 37.7374 214.741 37.4522 215.541 36.9066C216.341 36.3247 217.105 35.6882 217.833 34.9972C218.596 34.2698 219.342 33.5242 220.069 32.7604V21.7949Z" fill="#0F132A"/>
<path d="M177.735 23.9394L178.115 24.6413C184.47 16.1468 188.159 10.6351 194.318 5.221V4.50281C188.038 9.77497 184.116 15.4111 177.735 23.9394Z" fill="#0F132A"/>
<path d="M163.004 0.446289V1.98786L176.281 26.1201C176.828 25.2 177.337 24.4837 177.735 23.9394L164.586 0.446289H163.004Z" fill="#0F132A"/>
<path d="M197.973 2.42798C198.41 2.02791 198.901 1.70058 199.446 1.44599V0.8577C197.609 2.27515 195.917 3.81523 194.318 5.221V5.48304H196.5C196.5 4.79201 196.646 4.19191 196.937 3.68273C197.264 3.17356 197.61 2.75531 197.973 2.42798Z" fill="#0F132A"/>
<path d="M194.318 4.50281V5.221C195.917 3.81523 197.609 2.27515 199.446 0.8577V0.809755C197.597 2.19948 195.938 3.14267 194.318 4.50281Z" fill="#0F132A"/>
<path d="M249.787 30.851C249.314 29.2507 249.078 27.5777 249.078 25.832C249.078 24.0862 249.278 22.4314 249.678 20.8675C250.114 19.2672 250.732 17.867 251.533 16.6668C252.369 15.4302 253.387 14.4664 254.588 13.7754C255.824 13.048 257.224 12.6843 258.788 12.6843C259.552 12.6843 260.17 12.757 260.643 12.9025C261.116 13.048 261.589 13.2298 262.062 13.448C262.68 13.739 263.153 14.1027 263.48 14.5391C263.844 14.9392 264.098 15.3575 264.244 15.7939C264.426 16.2303 264.535 16.6486 264.571 17.0487C264.644 17.4487 264.717 17.7761 264.789 18.0306C264.971 18.6489 265.208 19.0854 265.499 19.34C265.826 19.5582 266.226 19.6491 266.699 19.6127C267.244 19.54 267.59 19.2672 267.735 18.7944C267.917 18.2852 267.972 17.8488 267.899 17.4851C267.753 16.5759 267.335 15.7575 266.644 15.0301C265.99 14.2664 265.426 13.739 264.953 13.448C264.298 13.048 263.498 12.6843 262.553 12.357C261.643 11.9933 260.389 11.8114 258.788 11.8114C257.115 11.8114 255.551 12.1569 254.097 12.8479C252.678 13.539 251.423 14.5028 250.332 15.7393C249.278 16.9759 248.441 18.4671 247.823 20.2128C247.205 21.9222 246.895 23.7953 246.895 25.832C246.895 27.8323 247.15 29.7054 247.659 31.4511C248.168 33.1605 248.932 34.6517 249.951 35.9246C250.969 37.1612 252.205 38.1432 253.66 38.8706C255.151 39.5616 256.861 39.9071 258.788 39.9071C261.225 39.9071 263.189 39.3616 264.68 38.2705C266.842 36.6884 266.897 36.6884 268.753 34.1243C270.6 31.2086 272.599 26.6653 274.142 23.3445V21.9403C272.287 25.832 269.623 31.5224 268.169 33.6879C266.715 35.8533 265.389 36.8157 263.971 37.6158C262.589 38.416 260.861 38.816 258.788 38.816C257.406 38.816 256.115 38.4705 254.915 37.7795C253.751 37.0885 252.733 36.161 251.86 34.9972C250.987 33.797 250.296 32.4149 249.787 30.851Z" fill="#0F132A"/>
<path d="M163.004 35.0517H162.186V39.0888H163.004V35.0517Z" fill="#0F132A"/>
<path d="M166.659 39.3616V39.0888H163.004H162.186H158.585V39.3616H166.659Z" fill="#0F132A"/>
<path d="M196.5 35.0517H194.318V39.0888H196.5V35.0517Z" fill="#0F132A"/>
<path d="M199.446 39.3616V39.0888H196.5H194.318H191.372V39.3616H199.446Z" fill="#0F132A"/>
<path d="M276.324 21.5222C276.324 21.3499 276.323 21.1855 276.321 21.0274C276.319 20.8576 276.318 20.7569 276.318 20.6722C276.318 20.5432 276.318 20.4179 276.321 20.2954C275.851 21.2753 275.421 22.0708 275.003 22.8435L275.003 22.844C274.713 23.3802 274.429 23.9055 274.142 24.4739V36.6884V39.0888H276.324V21.5222Z" fill="#0F132A"/>
<path d="M278.179 39.3616V39.0888H276.324H274.142H272.287V39.3616H278.179Z" fill="#0F132A"/>
<path d="M277.415 15.8485C276.943 16.5759 276.542 17.2123 276.324 17.7579C275.519 19.4401 274.849 20.5414 274.142 21.9403V23.3445C274.456 22.7433 274.733 22.224 275.007 21.7115L275.007 21.711C275.517 20.7576 276.013 19.8277 276.71 18.4377C277.22 17.383 278.197 16.194 278.997 15.4666C279.834 14.7028 280.761 14.1209 281.78 13.7208C282.834 13.2844 283.907 13.0662 284.998 13.0662C286.09 13.0662 287.108 13.248 288.054 13.6117C289.036 13.939 289.872 14.4846 290.563 15.2484C291.29 15.9758 291.854 16.9214 292.254 18.0852C292.691 19.249 292.909 20.6493 292.909 22.2859V39.0888H295.091V22.2859C295.091 20.2856 294.818 18.6126 294.273 17.2669C293.764 15.8848 293.073 14.7755 292.2 13.939C291.327 13.0662 290.308 12.4479 289.145 12.0842C288.017 11.7205 286.835 11.5386 285.599 11.5386C284.253 11.5386 283.053 11.7569 281.998 12.1933C280.943 12.6297 280.034 13.1753 279.27 13.8299C278.506 14.4482 277.888 15.1211 277.415 15.8485Z" fill="#0F132A"/>
<path d="M297.001 39.3616V39.0888H295.091H292.909H291.109V39.3616H297.001Z" fill="#0F132A"/>
<path d="M276.324 17.7579V1.28233L276.215 1.17322C274.498 2.27826 271.44 3.53573 271.44 3.53573V3.71746L274.142 2.8088V3.73729C274.142 3.73729 274.142 4.70109 274.142 5.10116V21.9403C274.849 20.5414 275.519 19.4401 276.324 17.7579Z" fill="#0F132A"/>
<path d="M224.372 13.1675C224.663 13.1675 228.733 12.6223 229.279 12.4661C229.824 12.3098 229.971 12.3091 230.533 11.9205C231.096 11.5319 231.179 11.2411 231.41 10.7504C231.641 10.2598 232.186 5.78948 232.186 5.35304H232.368L232.329 12.9858H241.091V13.7754H235.821H232.329V32.8695C232.329 34.688 232.765 36.1428 233.638 37.2339C234.547 38.2886 235.747 38.816 237.238 38.816C238.62 38.816 239.875 38.325 241.003 37.343C242.167 36.3247 243.058 35.0336 243.676 33.4696L244.167 33.6879C243.912 34.4516 243.567 35.2154 243.13 35.9792C242.73 36.7066 242.221 37.3612 241.603 37.9431C240.985 38.5251 240.275 38.9979 239.475 39.3616C238.711 39.7253 237.857 39.9071 236.911 39.9071C235.966 39.9071 235.074 39.7616 234.238 39.4707C233.401 39.1797 232.674 38.7433 232.056 38.1614C231.474 37.5794 231.001 36.852 230.637 35.9792C230.31 35.1063 230.146 34.0698 230.146 32.8695V14.8665C230.146 14.2482 229.964 13.8845 229.601 13.7754C229.273 13.6299 224.917 13.531 224.372 13.531V13.1675Z" fill="#0F132A"/>
<path fill-rule="evenodd" clip-rule="evenodd" d="M178.394 25.1607C179.341 26.9274 182.436 32.722 183.496 35.0347C184.754 37.7795 185.481 44.6071 180.211 47.176C178.858 47.8355 174.759 48.8923 172.215 45.3587C170.943 43.5918 170.216 41.1788 171.306 36.852C172.091 33.3698 173.986 29.9692 175.554 27.3923C175.802 26.9848 176.062 26.4892 176.281 26.1201C176.828 25.2 177.337 24.4837 177.735 23.9394L178.115 24.6413L176.639 26.8351C175.033 29.5378 172.76 33.3644 171.937 37.3625C171.125 40.8154 171.306 42.6327 172.942 45.1422C175.304 48.2664 178.394 47.176 180.211 46.4491C182.651 45.2483 183.394 41.5176 182.241 37.817C181.496 35.4238 177.973 29.1688 176.93 27.3426L176.919 27.3223L178.394 25.1607ZM178.115 24.6413L178.394 25.1607C178.217 24.8307 178.115 24.6413 178.115 24.6413Z" fill="#0F132A"/>
<path d="M126.337 14.1076L131.507 18.7599C134.67 21.6062 139.564 21.605 142.726 18.7571L148.044 13.9664L143.101 19.1206C140.162 22.1845 140.161 26.9268 143.098 29.9922L147.899 35.0026L142.728 30.3503C139.565 27.504 134.672 27.5052 131.51 30.3531L126.191 35.1438L131.135 29.9896C134.073 26.9257 134.075 22.1834 131.138 19.118L126.337 14.1076Z" fill="#0F132A"/>
<path d="M126.337 14.1076L131.507 18.7599C134.67 21.6062 139.564 21.605 142.726 18.7571L148.044 13.9664L143.101 19.1206C140.162 22.1845 140.161 26.9268 143.098 29.9922L147.899 35.0026L142.728 30.3503C139.565 27.504 134.672 27.5052 131.51 30.3531L126.191 35.1438L131.135 29.9896C134.073 26.9257 134.075 22.1834 131.138 19.118L126.337 14.1076Z" stroke="#0F132A"/>
</svg>
