<svg width="28" height="40" viewBox="0 0 28 40" fill="none" xmlns="http://www.w3.org/2000/svg">
<path d="M13.4286 26.357C14.8413 26.357 16.1961 25.7958 17.1951 24.7969C18.194 23.7979 18.7552 22.4431 18.7552 21.0304V17.4794C18.7552 16.0667 18.194 14.7119 17.1951 13.7129C16.1961 12.714 14.8413 12.1528 13.4286 12.1528C12.0159 12.1528 10.6611 12.714 9.66218 13.7129C8.66326 14.7119 8.10207 16.0667 8.10207 17.4794V21.0304C8.10207 22.4431 8.66326 23.7979 9.66218 24.7969C10.6611 25.7958 12.0159 26.357 13.4286 26.357ZM13.4286 26.357C19.3127 26.357 25.8572 30.0589 25.8572 35.7175V37.0101C25.8572 37.481 25.6702 37.9326 25.3372 38.2656C25.0042 38.5985 24.5526 38.7856 24.0817 38.7856H2.77552C2.30462 38.7856 1.85301 38.5985 1.52004 38.2656C1.18706 37.9326 1 37.481 1 37.0101V35.7175C1 30.0589 7.54456 26.357 13.4286 26.357Z" stroke="black" stroke-width="1.6071" stroke-linecap="round" stroke-linejoin="round"/>
<mask id="path-2-inside-1_977_902" fill="white">
<path fill-rule="evenodd" clip-rule="evenodd" d="M16.2367 8.37182C19.429 8.1732 21.9454 5.40358 21.9186 2.03723L21.9186 2.03627L21.9188 2.03627C21.9463 5.49112 24.6421 8.27493 27.9541 8.2859C24.7485 8.34743 22.1616 10.9979 22.0243 14.3012L22.007 14.3014C21.8218 11.0888 19.3262 8.53187 16.2369 8.38844L16.2367 8.37182ZM14.324 8.17586C14.3232 8.17563 14.3223 8.17539 14.3215 8.17515L14.325 8.61524C14.3258 8.61498 14.3267 8.61473 14.3275 8.61448L14.324 8.17586ZM22.2108 0.0452528L21.5946 0.0501515L21.5946 0.0500704L22.2108 0.0451713L22.2108 0.0452528Z"/>
</mask>
<path fill-rule="evenodd" clip-rule="evenodd" d="M16.2367 8.37182C19.429 8.1732 21.9454 5.40358 21.9186 2.03723L21.9186 2.03627L21.9188 2.03627C21.9463 5.49112 24.6421 8.27493 27.9541 8.2859C24.7485 8.34743 22.1616 10.9979 22.0243 14.3012L22.007 14.3014C21.8218 11.0888 19.3262 8.53187 16.2369 8.38844L16.2367 8.37182ZM14.324 8.17586C14.3232 8.17563 14.3223 8.17539 14.3215 8.17515L14.325 8.61524C14.3258 8.61498 14.3267 8.61473 14.3275 8.61448L14.324 8.17586ZM22.2108 0.0452528L21.5946 0.0501515L21.5946 0.0500704L22.2108 0.0451713L22.2108 0.0452528Z" fill="#0C0F20"/>
<path d="M16.2367 8.37182L16.1636 7.1964L15.0502 7.26567L15.0591 8.38119L16.2367 8.37182ZM21.9186 2.03627L21.9093 0.858606L20.7316 0.867968L20.741 2.04563L21.9186 2.03627ZM21.9188 2.03627L23.0964 2.02689L23.087 0.849243L21.9094 0.858605L21.9188 2.03627ZM27.9541 8.2859L27.9767 9.46338L27.958 7.10821L27.9541 8.2859ZM22.0243 14.3012L22.0336 15.4789L23.1544 15.47L23.201 14.3502L22.0243 14.3012ZM22.007 14.3014L20.8313 14.3692L20.8958 15.4879L22.0164 15.479L22.007 14.3014ZM16.2369 8.38844L15.0592 8.3978L15.0681 9.51314L16.1823 9.56487L16.2369 8.38844ZM14.3215 8.17515L14.6332 7.03946L13.1314 6.62726L13.1438 8.18451L14.3215 8.17515ZM14.324 8.17586L15.5017 8.1665L15.4946 7.27586L14.6357 7.04015L14.324 8.17586ZM14.325 8.61524L13.1473 8.6246L13.1597 10.1818L14.6547 9.74583L14.325 8.61524ZM14.3275 8.61448L14.6572 9.74509L15.5123 9.49576L15.5052 8.60512L14.3275 8.61448ZM21.5946 0.0501515L20.4767 0.420532L20.7464 1.23463L21.604 1.22781L21.5946 0.0501515ZM22.2108 0.0452528L22.2202 1.22291L23.0826 1.21606L23.3364 0.39183L22.2108 0.0452528ZM21.5946 0.0500704L21.5852 -1.12759L19.968 -1.11473L20.4766 0.420451L21.5946 0.0500704ZM22.2108 0.0451713L23.3364 0.391749L23.8097 -1.14527L22.2015 -1.13249L22.2108 0.0451713ZM20.741 2.0466C20.7631 4.825 18.6945 7.03893 16.1636 7.1964L16.3099 9.54725C20.1635 9.30747 23.1277 5.98216 23.0963 2.02787L20.741 2.0466ZM20.741 2.04563L20.741 2.0466L23.0963 2.02787L23.0963 2.0269L20.741 2.04563ZM21.9094 0.858605L21.9093 0.858606L21.928 3.21393L21.9281 3.21393L21.9094 0.858605ZM27.958 7.10821C25.3335 7.09952 23.1191 4.87964 23.0964 2.02689L20.7411 2.04564C20.7734 6.1026 23.9507 9.45034 27.9502 9.46359L27.958 7.10821ZM23.201 14.3502C23.3142 11.6257 25.436 9.51215 27.9767 9.46338L27.9315 7.10842C24.0611 7.18271 21.009 10.37 20.8476 14.2523L23.201 14.3502ZM22.0164 15.479L22.0336 15.4789L22.0149 13.1236L21.9977 13.1237L22.0164 15.479ZM16.1823 9.56487C18.6319 9.6786 20.6786 11.7208 20.8313 14.3692L23.1828 14.2336C22.965 10.4569 20.0205 7.38514 16.2915 7.21201L16.1823 9.56487ZM15.0591 8.38119L15.0592 8.3978L17.4145 8.37908L17.4144 8.36246L15.0591 8.38119ZM14.0097 9.31085C14.0106 9.31109 14.0115 9.31133 14.0124 9.31157L14.6357 7.04015C14.6349 7.03992 14.634 7.03969 14.6332 7.03946L14.0097 9.31085ZM15.5026 8.60587L15.4991 8.16579L13.1438 8.18451L13.1473 8.6246L15.5026 8.60587ZM13.9978 7.48387C13.9977 7.4839 13.9976 7.48395 13.9971 7.48409C13.9967 7.4842 13.996 7.48441 13.9952 7.48464L14.6547 9.74583C14.6632 9.74334 14.6471 9.74804 14.6572 9.74509L13.9978 7.48387ZM15.5052 8.60512L15.5017 8.1665L13.1464 8.18522L13.1499 8.62385L15.5052 8.60512ZM21.604 1.22781L22.2202 1.22291L22.2015 -1.13241L21.5852 -1.12751L21.604 1.22781ZM20.4766 0.420451L20.4767 0.420532L22.7125 -0.320229L22.7125 -0.320311L20.4766 0.420451ZM22.2015 -1.13249L21.5852 -1.12759L21.6039 1.22773L22.2202 1.22283L22.2015 -1.13249ZM23.3364 0.39183L23.3364 0.391749L21.0853 -0.301406L21.0853 -0.301325L23.3364 0.39183Z" fill="black" mask="url(#path-2-inside-1_977_902)"/>
</svg>
