<svg width="21" height="21" viewBox="0 0 21 21" fill="none" xmlns="http://www.w3.org/2000/svg">
<path fill-rule="evenodd" clip-rule="evenodd" d="M19.5316 11.4288C19.6562 11.4287 19.7795 11.4041 19.8946 11.3563C20.0096 11.3085 20.1142 11.2386 20.2022 11.1504C20.2902 11.0622 20.36 10.9576 20.4076 10.8425C20.4552 10.7273 20.4796 10.6039 20.4795 10.4794C20.4794 10.3548 20.4548 10.2314 20.407 10.1164C20.3592 10.0013 20.2893 9.89679 20.2011 9.80877C20.1129 9.72075 20.0083 9.65095 19.8931 9.60337C19.778 9.55579 19.6546 9.53135 19.53 9.53146L11.4392 9.5431L11.4287 1.4534C11.4283 1.20164 11.328 0.960332 11.1497 0.782567C10.9714 0.604802 10.7298 0.505139 10.4781 0.505501C10.2263 0.505863 9.98501 0.606222 9.80725 0.784499C9.62948 0.962776 9.52982 1.20437 9.53018 1.45613L9.54299 9.54583L1.45328 9.5563C1.32862 9.55648 1.20522 9.58121 1.09012 9.62908C0.975019 9.67695 0.870474 9.74702 0.782454 9.8353C0.694434 9.92357 0.624664 10.0283 0.577125 10.1436C0.529585 10.2588 0.505209 10.3823 0.505388 10.5069C0.505751 10.7587 0.606108 11 0.784385 11.1778C0.872658 11.2658 0.977407 11.3355 1.09264 11.3831C1.20788 11.4306 1.33136 11.455 1.45601 11.4548L9.54571 11.442L9.55736 19.5329C9.55787 19.7845 9.65832 20.0256 9.83659 20.2031C10.0149 20.3807 10.2564 20.4801 10.508 20.4796C10.7596 20.4791 11.0007 20.3786 11.1782 20.2004C11.3558 20.0221 11.4552 19.7806 11.4547 19.529L11.4419 11.4393L19.5316 11.4288Z" fill="#383838"/>
</svg>
