<svg width="911" height="408" viewBox="0 0 911 408" fill="none" xmlns="http://www.w3.org/2000/svg">
<path d="M800.833 394.98C800.849 397.926 798.473 400.322 795.528 400.333C792.582 400.344 790.182 397.965 790.167 395.02C790.151 392.074 792.527 389.678 795.472 389.667C798.418 389.656 800.818 392.035 800.833 394.98ZM898 235.5L898.32 234.553L899.534 234.965L898.842 236.042L898 235.5ZM525.001 109L524.682 108.052L525.001 107.945L525.32 108.053L525.001 109ZM199.303 218.028L199.622 218.976L199.007 219.182L198.567 218.704L199.303 218.028ZM15.3332 11.9801C15.3486 14.9256 12.9733 17.3222 10.0278 17.3332C7.08237 17.3441 4.68206 14.9652 4.66664 12.0197C4.65121 9.07421 7.02651 6.67757 9.97199 6.66664C12.9175 6.65572 15.3178 9.03464 15.3332 11.9801ZM796.26 391.966C796.558 391.502 797.177 391.368 797.642 391.667C798.107 391.966 798.241 392.585 797.943 393.049L796.26 391.966ZM801.146 388.065C800.848 388.529 800.229 388.663 799.764 388.364C799.3 388.065 799.165 387.446 799.463 386.982L801.146 388.065ZM802.666 381.998C802.965 381.533 803.583 381.399 804.048 381.698C804.513 381.997 804.648 382.616 804.349 383.081L802.666 381.998ZM807.552 378.096C807.254 378.561 806.635 378.694 806.171 378.395C805.706 378.096 805.571 377.477 805.869 377.013L807.552 378.096ZM809.073 372.029C809.371 371.565 809.99 371.431 810.454 371.73C810.919 372.029 811.054 372.648 810.756 373.112L809.073 372.029ZM813.959 368.127C813.66 368.592 813.042 368.726 812.577 368.427C812.112 368.128 811.977 367.509 812.276 367.044L813.959 368.127ZM815.479 362.06C815.777 361.596 816.396 361.462 816.861 361.761C817.325 362.06 817.46 362.679 817.162 363.143L815.479 362.06ZM820.365 358.159C820.067 358.623 819.448 358.757 818.983 358.458C818.518 358.159 818.384 357.54 818.682 357.076L820.365 358.159ZM821.885 352.091C822.183 351.627 822.802 351.493 823.267 351.792C823.732 352.091 823.866 352.71 823.568 353.174L821.885 352.091ZM826.771 348.19C826.473 348.654 825.854 348.788 825.389 348.489C824.925 348.19 824.79 347.571 825.088 347.107L826.771 348.19ZM828.291 342.123C828.59 341.658 829.208 341.524 829.673 341.823C830.138 342.122 830.273 342.741 829.974 343.206L828.291 342.123ZM833.177 338.221C832.879 338.686 832.26 338.819 831.796 338.52C831.331 338.221 831.196 337.602 831.494 337.138L833.177 338.221ZM834.698 332.154C834.996 331.69 835.615 331.556 836.079 331.855C836.544 332.154 836.679 332.773 836.381 333.237L834.698 332.154ZM839.584 328.252C839.285 328.717 838.667 328.851 838.202 328.552C837.737 328.253 837.602 327.634 837.901 327.169L839.584 328.252ZM841.104 322.185C841.402 321.721 842.021 321.587 842.486 321.886C842.95 322.185 843.085 322.804 842.787 323.268L841.104 322.185ZM845.99 318.284C845.692 318.748 845.073 318.882 844.608 318.583C844.143 318.284 844.009 317.665 844.307 317.201L845.99 318.284ZM847.51 312.216C847.808 311.752 848.427 311.618 848.892 311.917C849.357 312.216 849.491 312.835 849.193 313.299L847.51 312.216ZM852.396 308.315C852.098 308.779 851.479 308.913 851.014 308.614C850.55 308.315 850.415 307.696 850.713 307.232L852.396 308.315ZM853.916 302.248C854.215 301.783 854.833 301.649 855.298 301.948C855.763 302.247 855.898 302.866 855.599 303.331L853.916 302.248ZM858.802 298.346C858.504 298.811 857.885 298.944 857.421 298.645C856.956 298.346 856.821 297.727 857.119 297.263L858.802 298.346ZM860.323 292.279C860.621 291.815 861.24 291.681 861.704 291.98C862.169 292.279 862.304 292.898 862.006 293.362L860.323 292.279ZM865.209 288.377C864.91 288.842 864.292 288.976 863.827 288.677C863.362 288.378 863.227 287.759 863.526 287.294L865.209 288.377ZM866.729 282.31C867.027 281.846 867.646 281.712 868.111 282.011C868.575 282.31 868.71 282.929 868.412 283.393L866.729 282.31ZM871.615 278.409C871.317 278.873 870.698 279.007 870.233 278.708C869.768 278.409 869.634 277.79 869.932 277.326L871.615 278.409ZM873.135 272.341C873.433 271.877 874.052 271.743 874.517 272.042C874.982 272.341 875.116 272.96 874.818 273.424L873.135 272.341ZM878.021 268.44C877.723 268.904 877.104 269.038 876.639 268.739C876.175 268.44 876.04 267.821 876.338 267.357L878.021 268.44ZM879.541 262.373C879.84 261.908 880.458 261.774 880.923 262.073C881.388 262.372 881.523 262.991 881.224 263.456L879.541 262.373ZM884.428 258.471C884.129 258.936 883.51 259.069 883.046 258.77C882.581 258.471 882.446 257.852 882.744 257.388L884.428 258.471ZM885.948 252.404C886.246 251.94 886.865 251.806 887.329 252.105C887.794 252.404 887.929 253.023 887.631 253.487L885.948 252.404ZM890.834 248.502C890.535 248.967 889.917 249.101 889.452 248.802C888.987 248.503 888.852 247.884 889.151 247.419L890.834 248.502ZM892.354 242.435C892.652 241.971 893.271 241.837 893.736 242.136C894.2 242.435 894.335 243.054 894.037 243.518L892.354 242.435ZM897.24 238.534C896.942 238.998 896.323 239.132 895.858 238.833C895.393 238.534 895.259 237.915 895.557 237.451L897.24 238.534ZM894.854 235.489C894.331 235.311 894.05 234.743 894.227 234.22C894.404 233.697 894.971 233.417 895.494 233.595L894.854 235.489ZM889.843 231.678C890.366 231.856 890.647 232.423 890.47 232.946C890.294 233.469 889.726 233.749 889.203 233.572L889.843 231.678ZM883.551 231.655C883.028 231.478 882.747 230.91 882.924 230.387C883.1 229.864 883.668 229.584 884.191 229.761L883.551 231.655ZM878.54 227.845C879.063 228.022 879.344 228.59 879.167 229.113C878.991 229.636 878.423 229.916 877.9 229.739L878.54 227.845ZM872.248 227.822C871.725 227.645 871.444 227.077 871.621 226.554C871.797 226.031 872.365 225.751 872.888 225.928L872.248 227.822ZM867.237 224.011C867.76 224.189 868.041 224.757 867.864 225.28C867.688 225.803 867.12 226.083 866.597 225.905L867.237 224.011ZM860.945 223.989C860.422 223.811 860.141 223.243 860.318 222.72C860.494 222.197 861.062 221.917 861.585 222.095L860.945 223.989ZM855.934 220.178C856.457 220.356 856.738 220.923 856.561 221.446C856.385 221.969 855.817 222.249 855.294 222.072L855.934 220.178ZM849.642 220.155C849.119 219.978 848.838 219.41 849.015 218.887C849.191 218.364 849.759 218.084 850.282 218.261L849.642 220.155ZM844.631 216.345C845.154 216.522 845.435 217.09 845.258 217.613C845.082 218.136 844.514 218.416 843.991 218.239L844.631 216.345ZM838.339 216.322C837.816 216.145 837.535 215.577 837.712 215.054C837.888 214.531 838.456 214.251 838.979 214.428L838.339 216.322ZM833.328 212.511C833.851 212.689 834.132 213.257 833.955 213.78C833.779 214.303 833.211 214.583 832.688 214.405L833.328 212.511ZM827.036 212.489C826.513 212.311 826.232 211.743 826.409 211.22C826.585 210.697 827.153 210.417 827.676 210.595L827.036 212.489ZM822.025 208.678C822.548 208.856 822.829 209.423 822.652 209.946C822.475 210.469 821.908 210.749 821.385 210.572L822.025 208.678ZM815.733 208.655C815.21 208.478 814.929 207.91 815.106 207.387C815.282 206.864 815.85 206.584 816.373 206.761L815.733 208.655ZM810.722 204.845C811.245 205.022 811.526 205.59 811.349 206.113C811.172 206.636 810.605 206.916 810.082 206.739L810.722 204.845ZM804.43 204.822C803.907 204.645 803.626 204.077 803.803 203.554C803.979 203.031 804.547 202.751 805.07 202.928L804.43 204.822ZM799.419 201.011C799.942 201.189 800.223 201.757 800.046 202.28C799.869 202.803 799.302 203.083 798.779 202.905L799.419 201.011ZM793.127 200.989C792.604 200.811 792.323 200.243 792.5 199.72C792.676 199.197 793.244 198.917 793.767 199.095L793.127 200.989ZM788.116 197.178C788.639 197.356 788.92 197.923 788.743 198.446C788.566 198.969 787.999 199.249 787.476 199.072L788.116 197.178ZM781.824 197.155C781.301 196.978 781.02 196.41 781.197 195.887C781.373 195.364 781.941 195.084 782.464 195.261L781.824 197.155ZM776.813 193.345C777.336 193.522 777.617 194.09 777.44 194.613C777.263 195.136 776.696 195.416 776.173 195.239L776.813 193.345ZM770.521 193.322C769.998 193.145 769.717 192.577 769.894 192.054C770.07 191.531 770.638 191.251 771.161 191.428L770.521 193.322ZM765.51 189.511C766.033 189.689 766.314 190.257 766.137 190.78C765.96 191.303 765.393 191.583 764.87 191.405L765.51 189.511ZM759.218 189.489C758.695 189.311 758.414 188.743 758.591 188.22C758.767 187.697 759.335 187.417 759.858 187.595L759.218 189.489ZM754.207 185.678C754.73 185.856 755.011 186.423 754.834 186.946C754.657 187.469 754.09 187.75 753.567 187.572L754.207 185.678ZM747.915 185.655C747.392 185.478 747.111 184.91 747.288 184.387C747.464 183.864 748.032 183.584 748.555 183.761L747.915 185.655ZM742.904 181.845C743.427 182.022 743.708 182.59 743.531 183.113C743.354 183.636 742.787 183.916 742.264 183.739L742.904 181.845ZM736.612 181.822C736.089 181.645 735.808 181.077 735.985 180.554C736.161 180.031 736.729 179.751 737.252 179.928L736.612 181.822ZM731.601 178.011C732.124 178.189 732.405 178.757 732.228 179.28C732.051 179.803 731.484 180.083 730.961 179.905L731.601 178.011ZM725.309 177.989C724.786 177.811 724.505 177.243 724.682 176.72C724.858 176.197 725.426 175.917 725.949 176.095L725.309 177.989ZM720.297 174.178C720.821 174.356 721.102 174.923 720.925 175.446C720.748 175.969 720.181 176.25 719.658 176.072L720.297 174.178ZM714.006 174.155C713.483 173.978 713.202 173.41 713.379 172.887C713.555 172.364 714.123 172.084 714.646 172.261L714.006 174.155ZM708.994 170.345C709.518 170.522 709.799 171.09 709.622 171.613C709.445 172.136 708.878 172.416 708.355 172.239L708.994 170.345ZM702.703 170.322C702.18 170.145 701.899 169.577 702.076 169.054C702.252 168.531 702.82 168.251 703.343 168.428L702.703 170.322ZM697.691 166.511C698.215 166.689 698.496 167.257 698.319 167.78C698.142 168.303 697.575 168.583 697.052 168.405L697.691 166.511ZM691.4 166.489C690.877 166.311 690.596 165.743 690.773 165.22C690.949 164.697 691.517 164.417 692.04 164.595L691.4 166.489ZM686.388 162.678C686.912 162.856 687.193 163.423 687.016 163.946C686.839 164.469 686.272 164.75 685.749 164.572L686.388 162.678ZM680.097 162.655C679.574 162.478 679.293 161.91 679.47 161.387C679.646 160.864 680.214 160.584 680.737 160.761L680.097 162.655ZM675.085 158.845C675.609 159.022 675.89 159.59 675.713 160.113C675.536 160.636 674.969 160.916 674.446 160.739L675.085 158.845ZM668.794 158.822C668.271 158.645 667.99 158.077 668.167 157.554C668.343 157.031 668.911 156.751 669.434 156.928L668.794 158.822ZM663.782 155.011C664.306 155.189 664.587 155.757 664.41 156.28C664.233 156.803 663.666 157.083 663.143 156.905L663.782 155.011ZM657.491 154.989C656.968 154.811 656.687 154.243 656.864 153.72C657.04 153.197 657.608 152.917 658.131 153.095L657.491 154.989ZM652.479 151.178C653.003 151.356 653.284 151.923 653.107 152.446C652.93 152.969 652.363 153.25 651.84 153.072L652.479 151.178ZM646.188 151.155C645.665 150.978 645.384 150.41 645.561 149.887C645.737 149.364 646.305 149.084 646.828 149.262L646.188 151.155ZM641.176 147.345C641.7 147.522 641.981 148.09 641.804 148.613C641.627 149.136 641.06 149.416 640.537 149.239L641.176 147.345ZM634.885 147.322C634.362 147.145 634.081 146.577 634.258 146.054C634.434 145.531 635.002 145.251 635.525 145.428L634.885 147.322ZM629.873 143.512C630.397 143.689 630.678 144.257 630.501 144.78C630.324 145.303 629.757 145.583 629.234 145.405L629.873 143.512ZM623.582 143.489C623.059 143.311 622.778 142.743 622.955 142.22C623.131 141.697 623.699 141.417 624.222 141.595L623.582 143.489ZM618.57 139.678C619.094 139.856 619.375 140.423 619.198 140.946C619.021 141.469 618.454 141.75 617.931 141.572L618.57 139.678ZM612.279 139.655C611.756 139.478 611.475 138.91 611.652 138.387C611.828 137.864 612.396 137.584 612.919 137.762L612.279 139.655ZM607.267 135.845C607.791 136.022 608.072 136.59 607.895 137.113C607.718 137.636 607.151 137.916 606.628 137.739L607.267 135.845ZM600.976 135.822C600.453 135.645 600.172 135.077 600.349 134.554C600.525 134.031 601.093 133.751 601.616 133.928L600.976 135.822ZM595.964 132.012C596.488 132.189 596.769 132.757 596.592 133.28C596.415 133.803 595.848 134.083 595.325 133.905L595.964 132.012ZM589.673 131.989C589.15 131.811 588.869 131.244 589.046 130.721C589.222 130.198 589.79 129.917 590.313 130.095L589.673 131.989ZM584.661 128.178C585.185 128.356 585.466 128.924 585.289 129.447C585.112 129.969 584.545 130.25 584.022 130.072L584.661 128.178ZM578.37 128.155C577.847 127.978 577.566 127.41 577.743 126.887C577.919 126.364 578.487 126.084 579.01 126.262L578.37 128.155ZM573.358 124.345C573.882 124.522 574.163 125.09 573.986 125.613C573.809 126.136 573.242 126.416 572.719 126.239L573.358 124.345ZM567.067 124.322C566.544 124.145 566.263 123.577 566.439 123.054C566.616 122.531 567.184 122.251 567.707 122.428L567.067 124.322ZM562.055 120.512C562.579 120.689 562.86 121.257 562.683 121.78C562.506 122.303 561.939 122.583 561.416 122.405L562.055 120.512ZM555.764 120.489C555.241 120.311 554.96 119.744 555.137 119.221C555.313 118.698 555.881 118.417 556.404 118.595L555.764 120.489ZM550.752 116.678C551.276 116.856 551.557 117.424 551.38 117.947C551.203 118.47 550.636 118.75 550.113 118.572L550.752 116.678ZM544.461 116.655C543.938 116.478 543.657 115.91 543.833 115.387C544.01 114.864 544.578 114.584 545.101 114.762L544.461 116.655ZM539.449 112.845C539.973 113.022 540.254 113.59 540.077 114.113C539.9 114.636 539.333 114.916 538.81 114.739L539.449 112.845ZM533.158 112.822C532.635 112.645 532.354 112.077 532.53 111.554C532.707 111.031 533.275 110.751 533.798 110.928L533.158 112.822ZM528.146 109.012C528.67 109.189 528.951 109.757 528.774 110.28C528.597 110.803 528.03 111.083 527.507 110.905L528.146 109.012ZM522.512 110.888C521.988 111.064 521.421 110.781 521.245 110.257C521.069 109.734 521.351 109.167 521.874 108.992L522.512 110.888ZM516.259 110.872C516.782 110.696 517.349 110.979 517.525 111.503C517.701 112.026 517.42 112.593 516.896 112.768L516.259 110.872ZM511.281 114.648C510.757 114.823 510.19 114.541 510.014 114.017C509.838 113.493 510.12 112.927 510.643 112.751L511.281 114.648ZM505.028 114.631C505.551 114.456 506.118 114.738 506.294 115.262C506.47 115.786 506.189 116.353 505.665 116.528L505.028 114.631ZM500.05 118.408C499.526 118.583 498.959 118.3 498.783 117.777C498.607 117.253 498.889 116.686 499.412 116.511L500.05 118.408ZM493.797 118.391C494.32 118.215 494.887 118.498 495.063 119.022C495.239 119.545 494.958 120.112 494.434 120.287L493.797 118.391ZM488.819 122.167C488.295 122.342 487.728 122.06 487.552 121.536C487.376 121.012 487.658 120.446 488.181 120.27L488.819 122.167ZM482.566 122.15C483.089 121.975 483.656 122.258 483.832 122.781C484.008 123.305 483.727 123.872 483.203 124.047L482.566 122.15ZM477.588 125.927C477.064 126.102 476.497 125.819 476.321 125.296C476.145 124.772 476.427 124.205 476.95 124.03L477.588 125.927ZM471.335 125.91C471.858 125.735 472.425 126.017 472.601 126.541C472.777 127.065 472.496 127.631 471.972 127.806L471.335 125.91ZM466.357 129.686C465.833 129.862 465.266 129.579 465.09 129.055C464.914 128.532 465.196 127.965 465.719 127.79L466.357 129.686ZM460.104 129.669C460.627 129.494 461.194 129.777 461.37 130.3C461.546 130.824 461.265 131.391 460.741 131.566L460.104 129.669ZM455.126 133.446C454.602 133.621 454.035 133.339 453.859 132.815C453.683 132.291 453.965 131.724 454.488 131.549L455.126 133.446ZM448.873 133.429C449.396 133.254 449.963 133.536 450.139 134.06C450.315 134.584 450.034 135.15 449.51 135.326L448.873 133.429ZM443.895 137.205C443.371 137.381 442.804 137.098 442.628 136.574C442.452 136.051 442.734 135.484 443.257 135.309L443.895 137.205ZM437.642 137.189C438.165 137.013 438.732 137.296 438.908 137.82C439.085 138.343 438.803 138.91 438.279 139.085L437.642 137.189ZM432.664 140.965C432.14 141.14 431.573 140.858 431.397 140.334C431.221 139.81 431.503 139.244 432.026 139.068L432.664 140.965ZM426.411 140.948C426.934 140.773 427.502 141.055 427.678 141.579C427.854 142.103 427.572 142.67 427.048 142.845L426.411 140.948ZM421.433 144.725C420.909 144.9 420.342 144.617 420.166 144.094C419.99 143.57 420.272 143.003 420.795 142.828L421.433 144.725ZM415.18 144.708C415.703 144.533 416.271 144.815 416.447 145.339C416.623 145.863 416.341 146.429 415.817 146.604L415.18 144.708ZM410.202 148.484C409.679 148.659 409.111 148.377 408.935 147.853C408.759 147.329 409.041 146.763 409.565 146.588L410.202 148.484ZM403.949 148.467C404.473 148.292 405.04 148.575 405.216 149.098C405.392 149.622 405.11 150.189 404.587 150.364L403.949 148.467ZM398.971 152.244C398.448 152.419 397.88 152.137 397.704 151.613C397.528 151.089 397.81 150.522 398.334 150.347L398.971 152.244ZM392.718 152.227C393.242 152.052 393.809 152.334 393.985 152.858C394.161 153.382 393.879 153.948 393.356 154.124L392.718 152.227ZM387.74 156.003C387.217 156.179 386.65 155.896 386.473 155.372C386.297 154.849 386.579 154.282 387.103 154.107L387.74 156.003ZM381.487 155.987C382.011 155.811 382.578 156.094 382.754 156.618C382.93 157.141 382.648 157.708 382.125 157.883L381.487 155.987ZM376.509 159.763C375.986 159.938 375.419 159.656 375.243 159.132C375.067 158.608 375.348 158.042 375.872 157.866L376.509 159.763ZM370.256 159.746C370.78 159.571 371.347 159.853 371.523 160.377C371.699 160.901 371.417 161.468 370.894 161.643L370.256 159.746ZM365.278 163.523C364.755 163.698 364.188 163.415 364.012 162.892C363.836 162.368 364.117 161.801 364.641 161.626L365.278 163.523ZM359.025 163.506C359.549 163.33 360.116 163.613 360.292 164.137C360.468 164.66 360.186 165.227 359.663 165.402L359.025 163.506ZM354.047 167.282C353.524 167.457 352.957 167.175 352.781 166.651C352.605 166.127 352.886 165.561 353.41 165.385L354.047 167.282ZM347.794 167.265C348.318 167.09 348.885 167.373 349.061 167.896C349.237 168.42 348.955 168.987 348.432 169.162L347.794 167.265ZM342.816 171.042C342.293 171.217 341.726 170.934 341.55 170.411C341.374 169.887 341.655 169.32 342.179 169.145L342.816 171.042ZM336.563 171.025C337.087 170.85 337.654 171.132 337.83 171.656C338.006 172.18 337.724 172.746 337.201 172.922L336.563 171.025ZM331.585 174.801C331.062 174.977 330.495 174.694 330.319 174.17C330.143 173.647 330.424 173.08 330.948 172.905L331.585 174.801ZM325.332 174.784C325.856 174.609 326.423 174.892 326.599 175.416C326.775 175.939 326.493 176.506 325.97 176.681L325.332 174.784ZM320.354 178.561C319.831 178.736 319.264 178.454 319.088 177.93C318.912 177.406 319.193 176.84 319.717 176.664L320.354 178.561ZM314.101 178.544C314.625 178.369 315.192 178.651 315.368 179.175C315.544 179.699 315.262 180.265 314.739 180.441L314.101 178.544ZM309.123 182.32C308.6 182.496 308.033 182.213 307.857 181.689C307.681 181.166 307.962 180.599 308.486 180.424L309.123 182.32ZM302.87 182.304C303.394 182.128 303.961 182.411 304.137 182.935C304.313 183.458 304.031 184.025 303.508 184.2L302.87 182.304ZM297.892 186.08C297.369 186.255 296.802 185.973 296.626 185.449C296.45 184.925 296.731 184.359 297.255 184.183L297.892 186.08ZM291.639 186.063C292.163 185.888 292.73 186.171 292.906 186.694C293.082 187.218 292.8 187.785 292.277 187.96L291.639 186.063ZM286.661 189.84C286.138 190.015 285.571 189.732 285.395 189.209C285.219 188.685 285.501 188.118 286.024 187.943L286.661 189.84ZM280.409 189.823C280.932 189.648 281.499 189.93 281.675 190.454C281.851 190.978 281.57 191.544 281.046 191.719L280.409 189.823ZM275.431 193.599C274.907 193.774 274.34 193.492 274.164 192.968C273.988 192.444 274.27 191.878 274.793 191.703L275.431 193.599ZM269.178 193.582C269.701 193.407 270.268 193.69 270.444 194.213C270.62 194.737 270.339 195.304 269.815 195.479L269.178 193.582ZM264.2 197.359C263.676 197.534 263.109 197.252 262.933 196.728C262.757 196.204 263.039 195.637 263.562 195.462L264.2 197.359ZM257.947 197.342C258.47 197.167 259.037 197.449 259.213 197.973C259.389 198.497 259.108 199.063 258.584 199.239L257.947 197.342ZM252.969 201.118C252.445 201.294 251.878 201.011 251.702 200.487C251.526 199.964 251.808 199.397 252.331 199.222L252.969 201.118ZM246.716 201.102C247.239 200.926 247.806 201.209 247.982 201.733C248.158 202.256 247.877 202.823 247.353 202.998L246.716 201.102ZM241.738 204.878C241.214 205.053 240.647 204.771 240.471 204.247C240.295 203.723 240.577 203.157 241.1 202.981L241.738 204.878ZM235.485 204.861C236.008 204.686 236.575 204.968 236.751 205.492C236.927 206.016 236.646 206.583 236.122 206.758L235.485 204.861ZM230.507 208.638C229.983 208.813 229.416 208.53 229.24 208.007C229.064 207.483 229.346 206.916 229.869 206.741L230.507 208.638ZM224.254 208.621C224.777 208.445 225.344 208.728 225.52 209.252C225.697 209.775 225.415 210.342 224.891 210.517L224.254 208.621ZM219.276 212.397C218.752 212.572 218.185 212.29 218.009 211.766C217.833 211.242 218.115 210.676 218.638 210.5L219.276 212.397ZM213.023 212.38C213.546 212.205 214.114 212.488 214.29 213.011C214.466 213.535 214.184 214.102 213.66 214.277L213.023 212.38ZM208.045 216.157C207.522 216.332 206.954 216.049 206.778 215.526C206.602 215.002 206.884 214.435 207.408 214.26L208.045 216.157ZM201.792 216.14C202.316 215.965 202.883 216.247 203.059 216.771C203.235 217.295 202.953 217.861 202.43 218.036L201.792 216.14ZM196.509 216.465C196.135 216.058 196.162 215.425 196.568 215.052C196.975 214.678 197.607 214.706 197.981 215.113L196.509 216.465ZM193.866 210.634C194.24 211.041 194.214 211.673 193.807 212.047C193.401 212.42 192.768 212.393 192.394 211.986L193.866 210.634ZM188.279 207.507C187.905 207.1 187.931 206.467 188.338 206.094C188.744 205.721 189.377 205.748 189.751 206.155L188.279 207.507ZM185.635 201.676C186.009 202.083 185.983 202.716 185.577 203.089C185.17 203.462 184.538 203.435 184.164 203.028L185.635 201.676ZM180.048 198.549C179.674 198.142 179.701 197.51 180.107 197.136C180.514 196.763 181.146 196.79 181.52 197.197L180.048 198.549ZM177.405 192.718C177.779 193.125 177.752 193.758 177.346 194.131C176.94 194.505 176.307 194.477 175.933 194.07L177.405 192.718ZM171.818 189.591C171.444 189.184 171.47 188.552 171.877 188.178C172.283 187.805 172.916 187.832 173.29 188.239L171.818 189.591ZM169.174 183.761C169.548 184.168 169.522 184.8 169.115 185.173C168.709 185.547 168.076 185.519 167.702 185.113L169.174 183.761ZM163.587 180.634C163.213 180.227 163.24 179.594 163.646 179.221C164.052 178.847 164.685 178.875 165.059 179.282L163.587 180.634ZM160.944 174.803C161.318 175.21 161.291 175.842 160.885 176.216C160.478 176.589 159.846 176.562 159.472 176.155L160.944 174.803ZM155.357 171.676C154.983 171.269 155.009 170.636 155.415 170.263C155.822 169.89 156.454 169.917 156.828 170.324L155.357 171.676ZM152.713 165.845C153.087 166.252 153.061 166.885 152.654 167.258C152.248 167.631 151.615 167.604 151.241 167.197L152.713 165.845ZM147.126 162.718C146.752 162.311 146.778 161.679 147.185 161.305C147.591 160.932 148.224 160.959 148.598 161.366L147.126 162.718ZM144.483 156.887C144.857 157.294 144.83 157.927 144.424 158.3C144.017 158.674 143.385 158.646 143.011 158.239L144.483 156.887ZM138.895 153.76C138.521 153.353 138.548 152.721 138.954 152.347C139.361 151.974 139.993 152.001 140.367 152.408L138.895 153.76ZM136.252 147.93C136.626 148.337 136.6 148.969 136.193 149.342C135.787 149.716 135.154 149.689 134.78 149.282L136.252 147.93ZM130.665 144.803C130.291 144.396 130.317 143.763 130.724 143.39C131.13 143.016 131.763 143.044 132.137 143.451L130.665 144.803ZM128.021 138.972C128.395 139.379 128.369 140.011 127.963 140.385C127.556 140.758 126.924 140.731 126.55 140.324L128.021 138.972ZM122.434 135.845C122.06 135.438 122.087 134.805 122.493 134.432C122.9 134.059 123.532 134.086 123.906 134.493L122.434 135.845ZM119.791 130.014C120.165 130.421 120.138 131.054 119.732 131.427C119.326 131.8 118.693 131.773 118.319 131.366L119.791 130.014ZM114.204 126.887C113.83 126.48 113.856 125.848 114.263 125.474C114.669 125.101 115.302 125.128 115.676 125.535L114.204 126.887ZM111.56 121.056C111.934 121.463 111.908 122.096 111.501 122.469C111.095 122.843 110.462 122.815 110.088 122.408L111.56 121.056ZM105.973 117.929C105.599 117.522 105.626 116.89 106.032 116.517C106.438 116.143 107.071 116.17 107.445 116.577L105.973 117.929ZM103.33 112.099C103.704 112.506 103.677 113.138 103.271 113.511C102.864 113.885 102.232 113.858 101.858 113.451L103.33 112.099ZM97.7426 108.972C97.3687 108.565 97.395 107.932 97.8014 107.559C98.2079 107.185 98.8405 107.213 99.2144 107.62L97.7426 108.972ZM95.0991 103.141C95.4731 103.548 95.4467 104.18 95.0403 104.554C94.6339 104.927 94.0013 104.9 93.6273 104.493L95.0991 103.141ZM89.5121 100.014C89.1381 99.6069 89.1644 98.9743 89.5708 98.601C89.9773 98.2277 90.6099 98.255 90.9838 98.662L89.5121 100.014ZM86.8686 94.1831C87.2426 94.5901 87.2162 95.2227 86.8098 95.596C86.4033 95.9693 85.7707 95.942 85.3968 95.535L86.8686 94.1831ZM81.2815 91.0562C80.9075 90.6492 80.9339 90.0166 81.3403 89.6433C81.7467 89.27 82.3793 89.2972 82.7533 89.7042L81.2815 91.0562ZM78.638 85.2254C79.012 85.6323 78.9857 86.2649 78.5792 86.6382C78.1728 87.0116 77.5401 86.9843 77.1662 86.5773L78.638 85.2254ZM73.0509 82.0984C72.677 81.6914 72.7033 81.0589 73.1097 80.6855C73.5161 80.3122 74.1488 80.3395 74.5228 80.7465L73.0509 82.0984ZM70.4075 76.2676C70.7814 76.6746 70.7551 77.3072 70.3486 77.6805C69.9422 78.0538 69.3096 78.0265 68.9356 77.6195L70.4075 76.2676ZM64.8204 73.1407C64.4464 72.7337 64.4727 72.1011 64.8792 71.7278C65.2856 71.3545 65.9182 71.3817 66.2921 71.7887L64.8204 73.1407ZM62.1768 67.3099C62.5508 67.7169 62.5245 68.3494 62.1181 68.7228C61.7116 69.0961 61.0791 69.0688 60.7051 68.6618L62.1768 67.3099ZM56.5898 64.1829C56.2158 63.7759 56.2422 63.1434 56.6486 62.77C57.055 62.3967 57.6876 62.424 58.0616 62.831L56.5898 64.1829ZM53.9463 58.3521C54.3203 58.7591 54.2939 59.3917 53.8875 59.765C53.481 60.1383 52.8484 60.111 52.4745 59.704L53.9463 58.3521ZM48.3592 55.2252C47.9853 54.8182 48.0116 54.1856 48.418 53.8123C48.8244 53.439 49.457 53.4662 49.831 53.8732L48.3592 55.2252ZM45.7157 49.3944C46.0897 49.8014 46.0634 50.4339 45.6569 50.8073C45.2505 51.1806 44.6179 51.1533 44.2439 50.7463L45.7157 49.3944ZM40.1286 46.2674C39.7547 45.8604 39.781 45.2279 40.1875 44.8545C40.5939 44.4812 41.2265 44.5085 41.6005 44.9155L40.1286 46.2674ZM37.4852 40.4366C37.8591 40.8436 37.8328 41.4762 37.4263 41.8495C37.02 42.2228 36.3873 42.1955 36.0133 41.7886L37.4852 40.4366ZM31.8981 37.3097C31.5241 36.9027 31.5504 36.2701 31.9569 35.8968C32.3633 35.5235 32.996 35.5508 33.3699 35.9577L31.8981 37.3097ZM29.2546 31.4789C29.6286 31.8859 29.6022 32.5184 29.1958 32.8918C28.7894 33.2651 28.1568 33.2378 27.7828 32.8308L29.2546 31.4789ZM23.6675 28.3519C23.2935 27.9449 23.3199 27.3124 23.7263 26.939C24.1328 26.5657 24.7654 26.593 25.1393 27L23.6675 28.3519ZM21.024 22.5211C21.398 22.9281 21.3716 23.5607 20.9652 23.934C20.5588 24.3073 19.9262 24.28 19.5522 23.873L21.024 22.5211ZM15.4369 19.3942C15.063 18.9872 15.0893 18.3546 15.4957 17.9813C15.9022 17.6079 16.5348 17.6352 16.9087 18.0422L15.4369 19.3942ZM12.7934 13.5633C13.1674 13.9703 13.141 14.6029 12.7346 14.9762C12.3282 15.3496 11.6956 15.3223 11.3216 14.9153L12.7934 13.5633ZM794.658 394.458L796.26 391.966L797.943 393.049L796.342 395.542L794.658 394.458ZM799.463 386.982L802.666 381.998L804.349 383.081L801.146 388.065L799.463 386.982ZM805.869 377.013L809.073 372.029L810.756 373.112L807.552 378.096L805.869 377.013ZM812.276 367.044L815.479 362.06L817.162 363.143L813.959 368.127L812.276 367.044ZM818.682 357.076L821.885 352.091L823.568 353.174L820.365 358.159L818.682 357.076ZM825.088 347.107L828.291 342.123L829.974 343.206L826.771 348.19L825.088 347.107ZM831.494 337.138L834.698 332.154L836.381 333.237L833.177 338.221L831.494 337.138ZM837.901 327.169L841.104 322.185L842.787 323.268L839.584 328.252L837.901 327.169ZM844.307 317.201L847.51 312.216L849.193 313.299L845.99 318.284L844.307 317.201ZM850.713 307.232L853.916 302.248L855.599 303.331L852.396 308.315L850.713 307.232ZM857.119 297.263L860.323 292.279L862.006 293.362L858.802 298.346L857.119 297.263ZM863.526 287.294L866.729 282.31L868.412 283.393L865.209 288.377L863.526 287.294ZM869.932 277.326L873.135 272.341L874.818 273.424L871.615 278.409L869.932 277.326ZM876.338 267.357L879.541 262.373L881.224 263.456L878.021 268.44L876.338 267.357ZM882.744 257.388L885.948 252.404L887.631 253.487L884.428 258.471L882.744 257.388ZM889.151 247.419L892.354 242.435L894.037 243.518L890.834 248.502L889.151 247.419ZM895.557 237.451L897.159 234.958L898.842 236.042L897.24 238.534L895.557 237.451ZM897.68 236.447L894.854 235.489L895.494 233.595L898.32 234.553L897.68 236.447ZM889.203 233.572L883.551 231.655L884.191 229.761L889.843 231.678L889.203 233.572ZM877.9 229.739L872.248 227.822L872.888 225.928L878.54 227.845L877.9 229.739ZM866.597 225.905L860.945 223.989L861.585 222.095L867.237 224.011L866.597 225.905ZM855.294 222.072L849.642 220.155L850.282 218.261L855.934 220.178L855.294 222.072ZM843.991 218.239L838.339 216.322L838.979 214.428L844.631 216.345L843.991 218.239ZM832.688 214.405L827.036 212.489L827.676 210.595L833.328 212.511L832.688 214.405ZM821.385 210.572L815.733 208.655L816.373 206.761L822.025 208.678L821.385 210.572ZM810.082 206.739L804.43 204.822L805.07 202.928L810.722 204.845L810.082 206.739ZM798.779 202.905L793.127 200.989L793.767 199.095L799.419 201.011L798.779 202.905ZM787.476 199.072L781.824 197.155L782.464 195.261L788.116 197.178L787.476 199.072ZM776.173 195.239L770.521 193.322L771.161 191.428L776.813 193.345L776.173 195.239ZM764.87 191.405L759.218 189.489L759.858 187.595L765.51 189.511L764.87 191.405ZM753.567 187.572L747.915 185.655L748.555 183.761L754.207 185.678L753.567 187.572ZM742.264 183.739L736.612 181.822L737.252 179.928L742.904 181.845L742.264 183.739ZM730.961 179.905L725.309 177.989L725.949 176.095L731.601 178.011L730.961 179.905ZM719.658 176.072L714.006 174.155L714.646 172.261L720.297 174.178L719.658 176.072ZM708.355 172.239L702.703 170.322L703.343 168.428L708.994 170.345L708.355 172.239ZM697.052 168.405L691.4 166.489L692.04 164.595L697.691 166.511L697.052 168.405ZM685.749 164.572L680.097 162.655L680.737 160.761L686.388 162.678L685.749 164.572ZM674.446 160.739L668.794 158.822L669.434 156.928L675.085 158.845L674.446 160.739ZM663.143 156.905L657.491 154.989L658.131 153.095L663.782 155.011L663.143 156.905ZM651.84 153.072L646.188 151.155L646.828 149.262L652.479 151.178L651.84 153.072ZM640.537 149.239L634.885 147.322L635.525 145.428L641.176 147.345L640.537 149.239ZM629.234 145.405L623.582 143.489L624.222 141.595L629.873 143.512L629.234 145.405ZM617.931 141.572L612.279 139.655L612.919 137.762L618.57 139.678L617.931 141.572ZM606.628 137.739L600.976 135.822L601.616 133.928L607.267 135.845L606.628 137.739ZM595.325 133.905L589.673 131.989L590.313 130.095L595.964 132.012L595.325 133.905ZM584.022 130.072L578.37 128.155L579.01 126.262L584.661 128.178L584.022 130.072ZM572.719 126.239L567.067 124.322L567.707 122.428L573.358 124.345L572.719 126.239ZM561.416 122.405L555.764 120.489L556.404 118.595L562.055 120.512L561.416 122.405ZM550.113 118.572L544.461 116.655L545.101 114.762L550.752 116.678L550.113 118.572ZM538.81 114.739L533.158 112.822L533.798 110.928L539.449 112.845L538.81 114.739ZM527.507 110.905L524.681 109.947L525.32 108.053L528.146 109.012L527.507 110.905ZM525.319 109.948L522.512 110.888L521.874 108.992L524.682 108.052L525.319 109.948ZM516.896 112.768L511.281 114.648L510.643 112.751L516.259 110.872L516.896 112.768ZM505.665 116.528L500.05 118.408L499.412 116.511L505.028 114.631L505.665 116.528ZM494.434 120.287L488.819 122.167L488.181 120.27L493.797 118.391L494.434 120.287ZM483.203 124.047L477.588 125.927L476.95 124.03L482.566 122.15L483.203 124.047ZM471.972 127.806L466.357 129.686L465.719 127.79L471.335 125.91L471.972 127.806ZM460.741 131.566L455.126 133.446L454.488 131.549L460.104 129.669L460.741 131.566ZM449.51 135.326L443.895 137.205L443.257 135.309L448.873 133.429L449.51 135.326ZM438.279 139.085L432.664 140.965L432.026 139.068L437.642 137.189L438.279 139.085ZM427.048 142.845L421.433 144.725L420.795 142.828L426.411 140.948L427.048 142.845ZM415.817 146.604L410.202 148.484L409.565 146.588L415.18 144.708L415.817 146.604ZM404.587 150.364L398.971 152.244L398.334 150.347L403.949 148.467L404.587 150.364ZM393.356 154.124L387.74 156.003L387.103 154.107L392.718 152.227L393.356 154.124ZM382.125 157.883L376.509 159.763L375.872 157.866L381.487 155.987L382.125 157.883ZM370.894 161.643L365.278 163.523L364.641 161.626L370.256 159.746L370.894 161.643ZM359.663 165.402L354.047 167.282L353.41 165.385L359.025 163.506L359.663 165.402ZM348.432 169.162L342.816 171.042L342.179 169.145L347.794 167.265L348.432 169.162ZM337.201 172.922L331.585 174.801L330.948 172.905L336.563 171.025L337.201 172.922ZM325.97 176.681L320.354 178.561L319.717 176.664L325.332 174.784L325.97 176.681ZM314.739 180.441L309.123 182.32L308.486 180.424L314.101 178.544L314.739 180.441ZM303.508 184.2L297.892 186.08L297.255 184.183L302.87 182.304L303.508 184.2ZM292.277 187.96L286.661 189.84L286.024 187.943L291.639 186.063L292.277 187.96ZM281.046 191.719L275.431 193.599L274.793 191.703L280.409 189.823L281.046 191.719ZM269.815 195.479L264.2 197.359L263.562 195.462L269.178 193.582L269.815 195.479ZM258.584 199.239L252.969 201.118L252.331 199.222L257.947 197.342L258.584 199.239ZM247.353 202.998L241.738 204.878L241.1 202.981L246.716 201.102L247.353 202.998ZM236.122 206.758L230.507 208.638L229.869 206.741L235.485 204.861L236.122 206.758ZM224.891 210.517L219.276 212.397L218.638 210.5L224.254 208.621L224.891 210.517ZM213.66 214.277L208.045 216.157L207.408 214.26L213.023 212.38L213.66 214.277ZM202.43 218.036L199.622 218.976L198.984 217.08L201.792 216.14L202.43 218.036ZM198.567 218.704L196.509 216.465L197.981 215.113L200.039 217.352L198.567 218.704ZM192.394 211.986L188.279 207.507L189.751 206.155L193.866 210.634L192.394 211.986ZM184.164 203.028L180.048 198.549L181.52 197.197L185.635 201.676L184.164 203.028ZM175.933 194.07L171.818 189.591L173.29 188.239L177.405 192.718L175.933 194.07ZM167.702 185.113L163.587 180.634L165.059 179.282L169.174 183.761L167.702 185.113ZM159.472 176.155L155.357 171.676L156.828 170.324L160.944 174.803L159.472 176.155ZM151.241 167.197L147.126 162.718L148.598 161.366L152.713 165.845L151.241 167.197ZM143.011 158.239L138.895 153.76L140.367 152.408L144.483 156.887L143.011 158.239ZM134.78 149.282L130.665 144.803L132.137 143.451L136.252 147.93L134.78 149.282ZM126.55 140.324L122.434 135.845L123.906 134.493L128.021 138.972L126.55 140.324ZM118.319 131.366L114.204 126.887L115.676 125.535L119.791 130.014L118.319 131.366ZM110.088 122.408L105.973 117.929L107.445 116.577L111.56 121.056L110.088 122.408ZM101.858 113.451L97.7426 108.972L99.2144 107.62L103.33 112.099L101.858 113.451ZM93.6273 104.493L89.5121 100.014L90.9838 98.662L95.0991 103.141L93.6273 104.493ZM85.3968 95.535L81.2815 91.0562L82.7533 89.7042L86.8686 94.1831L85.3968 95.535ZM77.1662 86.5773L73.0509 82.0984L74.5228 80.7465L78.638 85.2254L77.1662 86.5773ZM68.9356 77.6195L64.8204 73.1407L66.2921 71.7887L70.4075 76.2676L68.9356 77.6195ZM60.7051 68.6618L56.5898 64.1829L58.0616 62.831L62.1768 67.3099L60.7051 68.6618ZM52.4745 59.704L48.3592 55.2252L49.831 53.8732L53.9463 58.3521L52.4745 59.704ZM44.2439 50.7463L40.1286 46.2674L41.6005 44.9155L45.7157 49.3944L44.2439 50.7463ZM36.0133 41.7886L31.8981 37.3097L33.3699 35.9577L37.4852 40.4366L36.0133 41.7886ZM27.7828 32.8308L23.6675 28.3519L25.1393 27L29.2546 31.4789L27.7828 32.8308ZM19.5522 23.873L15.4369 19.3942L16.9087 18.0422L21.024 22.5211L19.5522 23.873ZM11.3216 14.9153L9.264 12.6759L10.7358 11.3239L12.7934 13.5633L11.3216 14.9153Z" fill="url(#paint0_linear_1244_4064)"/>
<circle cx="10" cy="10" r="10" fill="black"/>
<circle cx="200" cy="217" r="11" fill="black"/>
<circle cx="525" cy="108" r="11" fill="black"/>
<circle cx="900" cy="234" r="11" fill="black"/>
<circle cx="794" cy="397" r="11" fill="black"/>
<defs>
<linearGradient id="paint0_linear_1244_4064" x1="453.406" y1="10.3552" x2="454.838" y2="396.264" gradientUnits="userSpaceOnUse">
<stop stop-color="#0C0F20"/>
<stop offset="1" stop-color="#2E3B81"/>
</linearGradient>
</defs>
</svg>
