<svg width="240" height="103" viewBox="0 0 240 103" fill="none" xmlns="http://www.w3.org/2000/svg">
<path d="M215.512 100.95V83.7134H170.875V70.1163L203.013 2.0625H219.426L187.288 70.1163H215.512V43.3343H230.07V70.1163H239.89V83.7134H230.07V100.95H215.512Z" fill="black"/>
<path d="M119.975 103.008C113.245 103.008 107.294 101.543 102.121 98.6128C96.9473 95.637 92.8727 91.5625 89.8969 86.3892C86.9669 81.2159 85.502 75.2644 85.502 68.5345V34.4733C85.502 27.7434 86.9669 21.7919 89.8969 16.6186C92.8727 11.4453 96.9473 7.39367 102.121 4.46367C107.294 1.48789 113.245 0 119.975 0C126.705 0 132.657 1.48789 137.83 4.46367C143.003 7.39367 147.055 11.4453 149.985 16.6186C152.961 21.7919 154.449 27.7434 154.449 34.4733V68.5345C154.449 75.2644 152.961 81.2159 149.985 86.3892C147.055 91.5625 143.003 95.637 137.83 98.6128C132.657 101.543 126.705 103.008 119.975 103.008ZM119.975 89.2734C123.638 89.2734 126.957 88.4036 129.933 86.6639C132.954 84.8784 135.358 82.4978 137.143 79.522C138.929 76.5005 139.821 73.1355 139.821 69.4273V33.4432C139.821 29.7807 138.929 26.4616 137.143 23.4858C135.358 20.4642 132.954 18.0836 129.933 16.3439C126.957 14.5584 123.638 13.6657 119.975 13.6657C116.313 13.6657 112.971 14.5584 109.949 16.3439C106.973 18.0836 104.593 20.4642 102.807 23.4858C101.022 26.4616 100.129 29.7807 100.129 33.4432V69.4273C100.129 73.1355 101.022 76.5005 102.807 79.522C104.593 82.4978 106.973 84.8784 109.949 86.6639C112.971 88.4036 116.313 89.2734 119.975 89.2734Z" fill="black"/>
<path d="M44.6367 100.948V83.7114H0V70.1144L32.1384 2.06055H48.551L16.4126 70.1144H44.6367V43.3323H59.1952V70.1144H69.0152V83.7114H59.1952V100.948H44.6367Z" fill="black"/>
</svg>
