<svg width="18" height="20" viewBox="0 0 18 20" fill="none" xmlns="http://www.w3.org/2000/svg">
<path fill-rule="evenodd" clip-rule="evenodd" d="M3.66667 0.666016H15.6667C16.0203 0.666016 16.3594 0.806491 16.6095 1.05654C16.8595 1.30659 17 1.64573 17 1.99935V17.9993C17 18.353 16.8595 18.6921 16.6095 18.9422C16.3594 19.1922 16.0203 19.3327 15.6667 19.3327H3.66667C2.95942 19.3327 2.28115 19.0517 1.78105 18.5516C1.28095 18.0515 1 17.3733 1 16.666V3.33268C1 2.62544 1.28095 1.94716 1.78105 1.44706C2.28115 0.946967 2.95942 0.666016 3.66667 0.666016Z" stroke="#2F2F2F" stroke-opacity="0.47" stroke-width="1.14286" stroke-linecap="round" stroke-linejoin="round"/>
<path fill-rule="evenodd" clip-rule="evenodd" d="M3.66667 14H17V18C17 18.3536 16.8595 18.6928 16.6095 18.9428C16.3594 19.1929 16.0203 19.3333 15.6667 19.3333H3.66667C2.95942 19.3333 2.28115 19.0524 1.78105 18.5523C1.28095 18.0522 1 17.3739 1 16.6667C1 15.9594 1.28095 15.2811 1.78105 14.781C2.28115 14.281 2.95942 14 3.66667 14Z" stroke="#2F2F2F" stroke-opacity="0.47" stroke-width="1.14286" stroke-linecap="round" stroke-linejoin="round"/>
</svg>
