<svg width="32" height="26" viewBox="0 0 32 26" fill="none" xmlns="http://www.w3.org/2000/svg">
<path fill-rule="evenodd" clip-rule="evenodd" d="M0.761719 20.6199V9.19131C0.761719 8.18096 1.16308 7.212 1.8775 6.49757C2.59193 5.78315 3.56089 5.38179 4.57124 5.38179H8.38077L12.3408 1.57227H19.8074L23.4646 5.38179H27.4284C28.4387 5.38179 29.4077 5.78315 30.1221 6.49757C30.8365 7.212 31.2379 8.18096 31.2379 9.19131V20.6199C31.2379 21.6302 30.8365 22.5992 30.1221 23.3136C29.4077 24.028 28.4387 24.4294 27.4284 24.4294H4.57124C3.56089 24.4294 2.59193 24.028 1.8775 23.3136C1.16308 22.5992 0.761719 21.6302 0.761719 20.6199Z" stroke="#0C0F20" stroke-width="1.52381" stroke-linecap="round" stroke-linejoin="round"/>
<path fill-rule="evenodd" clip-rule="evenodd" d="M21.7142 14.9057C21.7142 13.3902 21.1122 11.9367 20.0405 10.8651C18.9689 9.79344 17.5155 9.19141 15.9999 9.19141C14.4844 9.19141 13.031 9.79344 11.9593 10.8651C10.8877 11.9367 10.2856 13.3902 10.2856 14.9057C10.2856 16.4212 10.8877 17.8747 11.9593 18.9463C13.031 20.0179 14.4844 20.62 15.9999 20.62C17.5155 20.62 18.9689 20.0179 20.0405 18.9463C21.1122 17.8747 21.7142 16.4212 21.7142 14.9057Z" stroke="#0C0F20" stroke-width="1.52381" stroke-linecap="round" stroke-linejoin="round"/>
</svg>
