<svg width="385" height="65" viewBox="0 0 385 65" fill="none" xmlns="http://www.w3.org/2000/svg">
<path d="M377.163 37.5064L351.818 38.6579C350.729 34.7277 349.021 30.9946 346.757 27.598L364.272 9.30354C364.272 9.30354 374.773 0.845957 361.588 0.0327278C348.403 -0.780502 314.248 13.8316 314.248 13.8316L314.353 13.9162C313.661 14.1504 312.968 14.4106 312.289 14.7164C309.604 15.9399 307.189 17.6825 305.184 19.843C304.781 20.2672 304.249 20.5488 303.671 20.6451C303.092 20.7414 302.498 20.6471 301.978 20.3765C298.843 18.763 295.101 18.3336 290.719 19.6218C284.589 21.383 278.649 23.7476 272.989 26.6806C270.507 27.9989 267.762 28.75 264.953 28.8794C262.144 29.0088 259.341 28.5133 256.748 27.4288C244.34 22.2241 228.967 18.3206 212.928 15.5947C208.314 14.8063 203.633 14.4686 198.953 14.5863C196.252 14.6593 193.589 13.9423 191.293 12.5239C187.745 10.2458 183.914 8.43714 179.897 7.1436C170.382 4.3526 160.143 3.2401 146.07 18.2035C145.038 19.2965 144.11 20.344 143.235 21.3589C140.991 23.5486 139.114 26.0835 137.678 28.8666C136.439 30.8267 135.421 32.9169 134.641 35.0992C131.65 41.2342 124.623 40.7398 124.395 40.7203C118.034 39.3801 113.136 37.7991 106.815 35.7498C95.4323 32.0675 92.363 29.8945 85.1469 29.8945C81.3814 29.8129 77.6289 30.3604 74.0451 31.5145C66.8616 33.8761 61.8135 38.4302 57.2096 42.5744C50.8032 48.3711 45.2719 53.3806 33.8305 53.0553C27.8747 52.8861 19.359 50.7978 14.9575 45.4695C12.2735 42.2166 11.4049 38.0658 12.2931 32.7701C12.7929 29.3559 14.061 26.0985 16.0027 23.2414C17.9445 20.3843 20.5094 18.0015 23.5059 16.2713C28.5474 13.3827 34.3595 12.589 38.6761 14.2154C39.4345 14.503 40.2436 14.6344 41.0544 14.6016C41.8652 14.5689 42.6609 14.3727 43.3934 14.0248C44.126 13.677 44.7801 13.1847 45.3162 12.5779C45.8523 11.971 46.2593 11.2621 46.5127 10.4941C46.9772 8.98053 46.8347 7.34643 46.1149 5.93539C45.3951 4.52436 44.1543 3.4463 42.6532 2.92783C35.006 0.162853 25.6413 1.26886 17.5436 5.91403C8.34868 11.1903 2.2884 20.0317 0.48599 30.7989C-0.963772 39.4646 0.845165 47.161 5.71036 53.0618C12.6653 61.4804 24.6487 64.7723 33.5105 65H34.8754C50.2611 65 58.5744 57.4793 65.2943 51.4028C66.3261 50.4725 72.5822 44.7409 77.8719 42.8347C79.1903 42.3503 80.5758 42.0716 81.9796 42.0084C83.8876 41.9497 85.7875 42.2795 87.5631 42.9778C94.9425 45.7167 98.5996 48.241 98.5996 48.241C104.477 52.2616 113.293 56.8222 120.803 59.0992H120.927C123.292 59.8144 125.48 61.0132 127.353 62.6189C129.089 64.1193 131.305 64.9523 133.603 64.9675H345.431C351.761 64.9706 357.972 63.2617 363.403 60.0231C371.325 55.2868 379.076 49.965 382.426 45.6126C390.446 35.1707 377.163 37.5064 377.163 37.5064Z" fill="black"/>
</svg>
