<svg width="169" height="117" viewBox="0 0 169 117" fill="none" xmlns="http://www.w3.org/2000/svg">
<path d="M83.9115 5.3409C81.9896 5.3409 80.4475 5.56438 79.2854 6.01135C78.1233 6.45832 77.207 7.01703 76.5365 7.68748C75.8661 8.35793 75.3968 9.09543 75.1286 9.89997C74.9051 10.7045 74.7263 11.4867 74.5922 12.2466C74.3687 13.7216 74.0335 14.6602 73.5865 15.0625C73.1396 15.4647 72.6256 15.6435 72.0445 15.5988C71.3741 15.5094 70.9271 15.1742 70.7036 14.5931C70.5248 13.9674 70.4801 13.431 70.5695 12.9841C70.7483 11.9113 71.1729 10.861 71.8434 9.83293C72.5138 8.76021 73.4078 7.79923 74.5252 6.94999C75.6873 6.05605 77.0505 5.34091 78.6149 4.80455C80.1793 4.26818 81.9449 4 83.9115 4C85.2524 4 86.7274 4.17879 88.3365 4.53636C89.9903 4.89394 91.5326 5.56439 92.9629 6.54772C94.3932 7.53105 95.5776 8.8943 96.5163 10.6375C97.4996 12.3806 97.9913 14.6378 97.9913 17.409C97.9913 20.0015 97.3432 22.4821 96.047 24.8511C94.7954 27.22 93.0521 29.6336 90.8173 32.0919C88.5824 34.5503 85.9452 37.1427 82.9059 39.8692C79.8665 42.5957 76.5589 45.6127 72.9832 48.9203H95.5777C96.3822 48.9203 97.0079 48.7191 97.4549 48.3169C97.9019 47.9146 98.2371 47.4676 98.4606 46.9759C98.7288 46.4396 98.8852 45.9256 98.9299 45.4339C98.9746 44.9423 98.9969 44.607 98.9969 44.4282H99.3322V51.6021H69.1616V51.1998L71.5752 48.9203C75.5979 44.8082 79.0843 41.2995 82.0343 38.3942C85.029 35.4442 87.5097 32.8071 89.4763 30.4828C91.443 28.1139 92.8958 25.9238 93.8344 23.9124C94.8178 21.9011 95.3094 19.7556 95.3094 17.4761C95.3094 15.1966 94.9295 13.2969 94.1697 11.7772C93.4545 10.2129 92.5159 8.96134 91.3538 8.02271C90.2363 7.08408 89.007 6.41363 87.6661 6.01135C86.3252 5.56438 85.0737 5.3409 83.9115 5.3409Z" fill="black"/>
<path d="M26.8076 51.4537C26.7951 51.5034 26.7828 51.5528 26.7707 51.602H27.7722V51.1971V48.4719L27.7724 48.3264C27.3786 49.3482 27.0464 50.3941 26.8076 51.4537Z" fill="black"/>
<path d="M53.4079 12.6007L53.425 11.4981C49.2754 14.8778 45.4696 19.0451 41.8702 23.3055C41.8588 23.319 41.8475 23.3325 41.8361 23.346L42.1785 24.2882C45.8398 19.8953 49.7279 15.6479 53.4079 12.6007Z" fill="black"/>
<path d="M60.0995 9.96702L49.3052 46.7748L49.2062 47.1038L49.3052 47.4229C49.1795 47.7189 49.0584 48.0173 48.9426 48.3177C48.5488 49.3395 48.2166 50.3854 47.9778 51.445C47.9703 51.4748 47.9629 51.5044 47.9556 51.534C47.9506 51.5538 47.9457 51.5736 47.9409 51.5934H48.9009L61.1051 9.96702C61.3733 9.11778 61.865 8.38028 62.5801 7.75453C63.2953 7.12877 64.0328 6.61476 64.7926 6.21249C65.3367 5.91325 65.9056 5.64713 66.4993 5.41411C65.6855 5.52575 62.5716 6.43071 60.8926 7.2626L60.0995 9.96702Z" fill="black"/>
<path d="M53.425 11.4981L53.4079 12.6007C54.9379 11.3338 57.7417 9.39199 60.2049 7.65779C60.3858 7.53044 60.6203 7.39748 60.8926 7.2626L61.2018 6.20812C60.7538 6.40066 59.7639 7.00217 59.379 7.2626C56.8778 8.95494 54.8804 10.3127 53.425 11.4981Z" fill="black"/>
<path d="M67.6756 5.00567V4.67046V4.31414L66.2151 4.66178C65.218 4.93971 63.3755 5.27394 61.2018 6.20812L60.8926 7.2626C62.5716 6.43071 65.6855 5.52575 66.4993 5.41411C66.5153 5.40784 66.5313 5.4016 66.5473 5.39538C66.914 5.25291 67.2901 5.123 67.6756 5.00567Z" fill="black"/>
<path fill-rule="evenodd" clip-rule="evenodd" d="M40.4279 27.6676L47.9409 51.5934C47.9457 51.5736 47.9506 51.5538 47.9556 51.534C47.9629 51.5044 47.9703 51.4748 47.9778 51.445C48.2166 50.3854 48.5488 49.3395 48.9426 48.3177C49.0584 48.0173 49.1795 47.7189 49.3052 47.4229L49.2062 47.1038L49.0806 46.6991L42.441 25.296L40.4279 27.6676Z" fill="black"/>
<path d="M27.7722 51.602H27.7764C28.782 46.4999 33.7988 36.8575 35.1219 34.4318L40.1342 26.7445L39.8372 25.7979C39.2133 26.6587 36.5574 30.376 34.2398 34.4318C31.5936 39.0627 28.9976 44.8001 28.0653 47.4427C27.9396 47.7387 27.8882 48.0259 27.7724 48.3264L27.7722 48.4719V51.1971V51.602Z" fill="black"/>
<path d="M39.9733 25.6113C39.9733 25.6113 41.1452 24.1644 41.8361 23.346C41.8475 23.3325 41.8588 23.319 41.8702 23.3055L37.683 9.95834C37.4148 9.1091 37.3254 8.3716 37.4148 7.74585C37.5042 7.12009 37.6606 6.60608 37.8841 6.20381C38.1076 5.80154 38.3311 5.51101 38.5546 5.33222C38.8227 5.10874 39.0015 4.99699 39.0909 4.99699V4.66178H29.1682V4.99699C30.0622 5.30987 30.8891 5.71215 31.6489 6.20381C32.2747 6.60608 32.9004 7.12009 33.5262 7.74585C34.1519 8.3716 34.5989 9.1091 34.8671 9.95834L39.8372 25.7979C39.9257 25.6759 39.9733 25.6113 39.9733 25.6113Z" fill="black"/>
<path d="M13.6969 9.96702L26.7707 51.602C26.7828 51.5528 26.7951 51.5034 26.8076 51.4537C27.0464 50.3941 27.3786 49.3482 27.7724 48.3264C27.8882 48.0259 27.9396 47.7387 28.0653 47.4427L27.9105 46.7077L16.5128 9.96702C16.2446 9.11778 16.1552 8.38028 16.2446 7.75453C16.334 7.12877 16.4904 6.61476 16.7139 6.21249C16.9374 5.81022 17.1609 5.51969 17.3844 5.3409C17.6526 5.11742 17.8313 5.00567 17.9207 5.00567V4.67046H7.99805V5.00567C8.89198 5.31855 9.71887 5.72083 10.4787 6.21249C11.1045 6.61476 11.7302 7.12877 12.356 7.75453C12.9817 8.38028 13.4287 9.11778 13.6969 9.96702Z" fill="black"/>
<path d="M41.8361 23.346C41.1452 24.1644 39.9733 25.6113 39.9733 25.6113C39.9733 25.6113 39.9257 25.6759 39.8372 25.7979L40.1342 26.7445C40.9116 25.7438 41.3558 25.2076 42.1785 24.2882L41.8361 23.346Z" fill="black"/>
<path d="M40.4279 27.6676L42.441 25.296L42.3588 24.9803C41.5523 25.8866 41.0545 26.3865 40.3347 27.3754L40.4279 27.6676Z" fill="black"/>
<path d="M119.288 51.4537C119.276 51.5034 119.263 51.5528 119.251 51.602H120.253V51.1971V48.4719L120.253 48.3264C119.859 49.3482 119.527 50.3941 119.288 51.4537Z" fill="black"/>
<path d="M145.889 12.6007L145.906 11.4981C141.756 14.8778 137.95 19.0451 134.351 23.3055C134.339 23.319 134.328 23.3325 134.317 23.346L134.659 24.2882C138.32 19.8953 142.209 15.6479 145.889 12.6007Z" fill="black"/>
<path d="M152.58 9.96702L141.786 46.7748L141.687 47.1038L141.786 47.4229C141.66 47.7189 141.539 48.0173 141.423 48.3177C141.029 49.3395 140.697 50.3854 140.458 51.445C140.451 51.4748 140.444 51.5044 140.436 51.534C140.431 51.5538 140.426 51.5736 140.421 51.5934H141.381L153.586 9.96702C153.854 9.11778 154.346 8.38028 155.061 7.75453C155.776 7.12877 156.513 6.61476 157.273 6.21249C157.817 5.91325 158.386 5.64713 158.98 5.41411C158.166 5.52575 155.052 6.43071 153.373 7.2626L152.58 9.96702Z" fill="black"/>
<path d="M145.906 11.4981L145.889 12.6007C147.418 11.3338 150.222 9.39199 152.686 7.65779C152.866 7.53044 153.101 7.39748 153.373 7.2626L153.682 6.20812C153.234 6.40066 152.244 7.00217 151.86 7.2626C149.358 8.95494 147.361 10.3127 145.906 11.4981Z" fill="black"/>
<path d="M160.156 5.00567V4.67046V4.31414L158.696 4.66178C157.699 4.93971 155.856 5.27394 153.682 6.20812L153.373 7.2626C155.052 6.43071 158.166 5.52575 158.98 5.41411C158.996 5.40784 159.012 5.4016 159.028 5.39538C159.395 5.25291 159.771 5.123 160.156 5.00567Z" fill="black"/>
<path fill-rule="evenodd" clip-rule="evenodd" d="M132.909 27.6676L140.421 51.5934C140.426 51.5736 140.431 51.5538 140.436 51.534C140.444 51.5044 140.451 51.4748 140.458 51.445C140.697 50.3854 141.029 49.3395 141.423 48.3177C141.539 48.0173 141.66 47.7189 141.786 47.4229L141.687 47.1038L141.561 46.6991L134.922 25.296L132.909 27.6676Z" fill="black"/>
<path d="M120.253 51.602H120.257C121.263 46.4999 126.279 36.8575 127.602 34.4318L132.615 26.7445L132.318 25.7979C131.694 26.6587 129.038 30.376 126.72 34.4318C124.074 39.0627 121.478 44.8001 120.546 47.4427C120.42 47.7387 120.369 48.0259 120.253 48.3264L120.253 48.4719V51.1971V51.602Z" fill="black"/>
<path d="M132.454 25.6113C132.454 25.6113 133.626 24.1644 134.317 23.346C134.328 23.3325 134.339 23.319 134.351 23.3055L130.164 9.95834C129.895 9.1091 129.806 8.3716 129.895 7.74585C129.985 7.12009 130.141 6.60608 130.365 6.20381C130.588 5.80154 130.812 5.51101 131.035 5.33222C131.303 5.10874 131.482 4.99699 131.572 4.99699V4.66178H121.649V4.99699C122.543 5.30987 123.37 5.71215 124.13 6.20381C124.755 6.60608 125.381 7.12009 126.007 7.74585C126.633 8.3716 127.079 9.1091 127.348 9.95834L132.318 25.7979C132.406 25.6759 132.454 25.6113 132.454 25.6113Z" fill="black"/>
<path d="M106.177 9.96702L119.251 51.602C119.263 51.5528 119.276 51.5034 119.288 51.4537C119.527 50.3941 119.859 49.3482 120.253 48.3264C120.369 48.0259 120.42 47.7387 120.546 47.4427L120.391 46.7077L108.993 9.96702C108.725 9.11778 108.636 8.38028 108.725 7.75453C108.815 7.12877 108.971 6.61476 109.195 6.21249C109.418 5.81022 109.641 5.51969 109.865 5.3409C110.133 5.11742 110.312 5.00567 110.401 5.00567V4.67046H100.479V5.00567C101.373 5.31855 102.199 5.72083 102.959 6.21249C103.585 6.61476 104.211 7.12877 104.837 7.75453C105.462 8.38028 105.909 9.11778 106.177 9.96702Z" fill="black"/>
<path d="M134.317 23.346C133.626 24.1644 132.454 25.6113 132.454 25.6113C132.454 25.6113 132.406 25.6759 132.318 25.7979L132.615 26.7445C133.392 25.7438 133.836 25.2076 134.659 24.2882L134.317 23.346Z" fill="black"/>
<path d="M132.909 27.6676L134.922 25.296L134.839 24.9803C134.033 25.8866 133.535 26.3865 132.815 27.3754L132.909 27.6676Z" fill="black"/>
<path d="M5.86212 64.7973V100.677H4.86914V64.7973H5.86212ZM4.86914 64.7973C4.86914 63.9588 4.64848 62.3485 4.20715 61.7307C3.80996 61.1128 3.34655 60.6053 2.81696 60.2081C2.28737 59.8109 1.77988 59.5241 1.29443 59.3475C0.853105 59.1269 0.588265 59.0165 0.5 59.0165V58.6855H5.86212V60.5561V64.7973H4.86914ZM43.8598 64.7973H46.5076V100.677H43.8598V64.7973Z" fill="black"/>
<path d="M75.9175 104.995C75.2559 104.333 75.1072 103.749 75.1072 102.789C75.1072 101.79 75.1072 99.2868 75.1072 99.2868C74.0039 100.434 72.9668 101.471 71.9959 102.398C71.0691 103.281 70.1203 104.031 69.1494 104.649C68.1784 105.267 67.1191 105.73 65.9716 106.039C64.8683 106.392 63.6105 106.569 62.1983 106.569C60.6978 106.569 59.3516 106.348 58.1601 105.907C56.9685 105.421 55.9755 104.781 55.1812 103.987C54.3868 103.192 53.791 102.266 53.3938 101.206C52.9525 100.147 52.7318 99.0219 52.7318 97.8304C52.7318 95.4472 53.46 93.5054 54.9164 92.0049C56.4169 90.4603 58.2925 89.1804 60.5433 88.1654C62.794 87.1503 65.2215 86.3118 67.8253 85.6498C70.4291 84.9879 72.8565 84.3038 75.1072 83.5977V83.5315C75.1072 80.2657 74.2688 77.7502 72.5917 75.9849C70.9147 74.2196 68.6196 73.3369 65.7069 73.3369C64.1181 73.3369 62.6617 73.7562 61.3377 74.5947C60.0137 75.4332 58.9103 76.7572 58.0277 78.5666C57.807 78.9638 57.5422 79.2507 57.2332 79.4272C56.9684 79.6037 56.6595 79.692 56.3065 79.692C55.8652 79.692 55.4901 79.6037 55.1812 79.4272C54.5633 79.0741 54.2764 78.5887 54.3206 77.9708C54.4088 77.353 54.5854 76.8675 54.8502 76.5145C55.7328 75.367 57.0347 74.352 58.7558 73.4693C60.5211 72.5867 62.9045 72.1453 65.9055 72.1453C67.4501 72.1453 68.9286 72.366 70.3408 72.8073C71.7531 73.2487 73.011 73.9327 74.1143 74.8595C75.2176 75.7863 76.1003 76.9778 76.7623 78.4342C77.4243 79.8464 77.7552 81.5455 77.7552 83.5315V101.14C77.7552 101.626 77.6816 103.01 78.3432 103.671C79.0047 104.333 79.1847 104.333 79.5819 104.465C79.979 104.554 80.1953 104.553 80.5483 104.553C80.9014 104.509 81.1658 104.377 81.2099 104.333C81.2099 104.333 80.3279 105.688 79.0048 105.877C77.6817 106.066 76.3585 105.436 75.9175 104.995ZM75.1072 84.5907C72.7241 85.2968 70.3629 85.9808 68.0239 86.6428C65.6849 87.3048 63.5885 88.1213 61.7349 89.0922C59.8813 90.019 59.2407 90.7474 58.0492 92.1597C56.9017 93.5278 56.3059 95.271 56.2618 97.3893C56.2618 98.3602 56.4162 99.287 56.7252 100.17C57.0341 101.052 57.5196 101.825 58.1815 102.487C58.8435 103.149 59.66 103.678 60.631 104.075C61.646 104.473 62.7935 104.671 64.0734 104.671C65.265 104.671 65.5963 104.73 66.6555 104.333C67.7147 103.936 68.6418 103.59 69.6127 102.928C70.5836 102.222 71.5105 101.449 72.3931 100.611C73.3199 99.7281 74.2246 98.8234 75.1072 97.8966V84.5907Z" fill="black"/>
<path d="M23.7374 87.1928L24.1979 88.0445C31.9102 77.7371 36.3865 71.0489 43.8598 64.4793V63.6079C36.2394 70.0053 31.4803 76.8443 23.7374 87.1928Z" fill="black"/>
<path d="M5.86212 58.6855V60.5561L21.9732 89.839C22.6366 88.7225 23.2544 87.8533 23.7374 87.1928L7.78188 58.6855H5.86212Z" fill="black"/>
<path d="M48.295 61.0902C48.8246 60.6047 49.4204 60.2075 50.0824 59.8986V59.1848C47.8535 60.9047 45.8003 62.7735 43.8598 64.4793V64.7973H46.5076C46.5076 63.9588 46.6842 63.2306 47.0373 62.6128C47.4344 61.9949 47.8537 61.4874 48.295 61.0902Z" fill="black"/>
<path d="M43.8598 63.6079V64.4793C45.8003 62.7735 47.8535 60.9047 50.0824 59.1848V59.1266C47.8384 60.8129 45.8258 61.9574 43.8598 63.6079Z" fill="black"/>
<path d="M111.167 95.5796C110.594 93.6378 110.307 91.6077 110.307 89.4894C110.307 87.371 110.549 85.363 111.035 83.4653C111.564 81.5235 112.315 79.8244 113.286 78.368C114.301 76.8675 115.536 75.698 116.993 74.8595C118.493 73.9768 120.192 73.5355 122.09 73.5355C123.017 73.5355 123.767 73.6238 124.341 73.8003C124.914 73.9768 125.488 74.1975 126.062 74.4623C126.812 74.8154 127.386 75.2567 127.783 75.7863C128.224 76.2717 128.533 76.7793 128.71 77.3088C128.93 77.8384 129.063 78.346 129.107 78.8314C129.195 79.3169 129.284 79.714 129.372 80.023C129.592 80.7732 129.879 81.3028 130.232 81.6117C130.63 81.8765 131.115 81.9869 131.689 81.9427C132.351 81.8545 132.77 81.5235 132.947 80.9497C133.167 80.3319 133.233 79.8023 133.145 79.361C132.969 78.2577 132.461 77.2647 131.623 76.3821C130.828 75.4553 130.144 74.8154 129.57 74.4623C128.776 73.9768 127.805 73.5355 126.658 73.1383C125.554 72.697 124.032 72.4764 122.09 72.4764C120.06 72.4764 118.162 72.8956 116.397 73.7341C114.676 74.5726 113.153 75.7421 111.829 77.2426C110.549 78.7431 109.534 80.5526 108.784 82.6709C108.034 84.7451 107.659 87.018 107.659 89.4894C107.659 91.9166 107.968 94.1895 108.586 96.3078C109.203 98.382 110.13 100.191 111.366 101.736C112.602 103.237 114.102 104.428 115.867 105.311C117.677 106.149 119.751 106.569 122.09 106.569C125.047 106.569 127.43 105.907 129.239 104.583C131.863 102.663 131.929 102.663 134.182 99.5515C136.423 96.0136 138.848 90.5006 140.721 86.4709V84.7671C138.47 89.4894 135.237 96.3943 133.473 99.0219C131.709 101.65 130.1 102.817 128.379 103.788C126.702 104.759 124.606 105.245 122.09 105.245C120.413 105.245 118.846 104.825 117.39 103.987C115.978 103.148 114.742 102.023 113.683 100.611C112.624 99.1543 111.785 97.4773 111.167 95.5796Z" fill="black"/>
<path d="M5.86212 100.677H4.86914V105.576H5.86212V100.677Z" fill="black"/>
<path d="M10.2974 105.907V105.576H5.86212H4.86914H0.5V105.907H10.2974Z" fill="black"/>
<path d="M46.5076 100.677H43.8598V105.576H46.5076V100.677Z" fill="black"/>
<path d="M50.0824 105.907V105.576H46.5076H43.8598H40.2853V105.907H50.0824Z" fill="black"/>
<path d="M143.369 84.2597C143.369 84.0506 143.367 83.8511 143.365 83.6593C143.363 83.4533 143.361 83.331 143.361 83.2283C143.361 83.0717 143.361 82.9198 143.365 82.7711C142.794 83.9602 142.272 84.9254 141.766 85.8631L141.765 85.8636C141.414 86.5143 141.069 87.1517 140.721 87.8414V102.663V105.576H143.369V84.2597Z" fill="black"/>
<path d="M145.619 105.907V105.576H143.369H140.721H138.47V105.907H145.619Z" fill="black"/>
<path d="M144.693 77.375C144.119 78.2577 143.633 79.03 143.369 79.692C142.391 81.7332 141.579 83.0696 140.721 84.7671V86.4709C141.102 85.7414 141.438 85.1113 141.77 84.4894L141.771 84.4888C142.389 83.3319 142.991 82.2036 143.837 80.5169C144.455 79.2371 145.641 77.7943 146.612 76.9117C147.627 75.9849 148.753 75.2788 149.989 74.7933C151.268 74.2637 152.57 73.9989 153.894 73.9989C155.218 73.9989 156.454 74.2196 157.601 74.6609C158.793 75.0581 159.808 75.7201 160.646 76.6469C161.529 77.5295 162.213 78.6769 162.699 80.0892C163.228 81.5014 163.493 83.2005 163.493 85.1864V105.576H166.141V85.1864C166.141 82.7592 165.81 80.7291 165.148 79.0962C164.53 77.4192 163.692 76.0731 162.632 75.0581C161.573 73.9989 160.338 73.2487 158.925 72.8073C157.557 72.366 156.123 72.1453 154.622 72.1453C152.989 72.1453 151.533 72.4101 150.253 72.9397C148.973 73.4693 147.87 74.1313 146.943 74.9257C146.017 75.6759 145.266 76.4924 144.693 77.375Z" fill="black"/>
<path d="M168.458 105.907V105.576H166.141H163.493H161.308V105.907H168.458Z" fill="black"/>
<path d="M143.369 79.692V59.7L143.236 59.5676C141.153 60.9085 137.442 62.4344 137.442 62.4344V62.6549L140.721 61.5523V62.679C140.721 62.679 140.721 63.8485 140.721 64.3339V84.7671C141.579 83.0696 142.391 81.7332 143.369 79.692Z" fill="black"/>
<path d="M80.3278 74.1219C80.6809 74.1219 85.6203 73.4603 86.2818 73.2707C86.9434 73.0811 87.1218 73.0803 87.8044 72.6087C88.4871 72.1372 88.5875 71.7843 88.868 71.1889C89.1486 70.5936 89.8101 65.1691 89.8101 64.6396H90.0307L89.9828 73.9014H100.616V74.8595H94.2205H89.9828V98.029C89.9828 100.236 90.5124 102.001 91.5715 103.325C92.6749 104.605 94.1312 105.245 95.9406 105.245C97.6177 105.245 99.1403 104.649 100.508 103.457C101.921 102.222 103.002 100.655 103.752 98.7571L104.348 99.0219C104.039 99.9487 103.62 100.875 103.09 101.802C102.605 102.685 101.987 103.479 101.237 104.185C100.486 104.892 99.6257 105.465 98.6548 105.907C97.728 106.348 96.6909 106.569 95.5435 106.569C94.396 106.569 93.3148 106.392 92.2998 106.039C91.2847 105.686 90.4021 105.156 89.6518 104.45C88.9457 103.744 88.3719 102.861 87.9306 101.802C87.5334 100.743 87.3348 99.4853 87.3348 98.029V76.1835C87.3348 75.4332 87.1142 74.9919 86.6729 74.8595C86.2757 74.683 80.9898 74.5629 80.3278 74.5629V74.1219Z" fill="black"/>
<path fill-rule="evenodd" clip-rule="evenodd" d="M24.5366 88.6748C25.6866 90.8185 29.4413 97.8499 30.7279 100.656C32.2548 103.987 33.1369 112.272 26.7418 115.389C25.1 116.189 20.1262 117.472 17.039 113.184C15.4953 111.04 14.6133 108.112 15.9364 102.861C16.8884 98.636 19.1884 94.5096 21.0911 91.3827C21.392 90.8882 21.7071 90.2869 21.9732 89.839C22.6366 88.7225 23.2544 87.8533 23.7374 87.1928L24.1979 88.0445L22.4077 90.7066C20.4588 93.9861 17.7006 98.6294 16.7013 103.481C15.7159 107.671 15.9364 109.876 17.9211 112.921C20.7878 116.712 24.5366 115.389 26.7418 114.507C29.7029 113.05 30.6043 108.523 29.2053 104.032C28.3005 101.128 24.0255 93.5383 22.7609 91.3224L22.7469 91.2978L24.5366 88.6748ZM24.1979 88.0445L24.5366 88.6748C24.3218 88.2744 24.1979 88.0445 24.1979 88.0445Z" fill="black"/>
</svg>
