<svg width="18" height="20" viewBox="0 0 18 20" fill="none" xmlns="http://www.w3.org/2000/svg">
<path d="M5 2H2.33333C1.97971 2 1.64057 2.14048 1.39052 2.39052C1.14048 2.64057 1 2.97971 1 3.33333V18C1 18.3536 1.14048 18.6928 1.39052 18.9428C1.64057 19.1929 1.97971 19.3333 2.33333 19.3333H15.6667C16.0203 19.3333 16.3594 19.1929 16.6095 18.9428C16.8595 18.6928 17 18.3536 17 18V3.33333C17 2.97971 16.8595 2.64057 16.6095 2.39052C16.3594 2.14048 16.0203 2 15.6667 2H13" stroke="#2F2F2F" stroke-opacity="0.47" stroke-width="1.14286" stroke-linecap="round" stroke-linejoin="round"/>
<path d="M7.6665 7.33268H14.3332M7.6665 11.3327H14.3332M7.6665 15.3327H14.3332M3.6665 7.33268H4.99984M3.6665 11.3327H4.99984M3.6665 15.3327H4.99984M6.33317 0.666016H11.6665C12.0201 0.666016 12.3593 0.806491 12.6093 1.05654C12.8594 1.30659 12.9998 1.64573 12.9998 1.99935C12.9998 2.35297 12.8594 2.69211 12.6093 2.94216C12.3593 3.19221 12.0201 3.33268 11.6665 3.33268H6.33317C5.97955 3.33268 5.64041 3.19221 5.39036 2.94216C5.14031 2.69211 4.99984 2.35297 4.99984 1.99935C4.99984 1.64573 5.14031 1.30659 5.39036 1.05654C5.64041 0.806491 5.97955 0.666016 6.33317 0.666016Z" stroke="#2F2F2F" stroke-opacity="0.47" stroke-width="1.14286" stroke-linecap="round" stroke-linejoin="round"/>
</svg>
