<svg width="1440" height="796" viewBox="0 0 1440 796" fill="none" xmlns="http://www.w3.org/2000/svg">
<path d="M250.152 276.425L243.979 270.688L250.749 265.529L256.922 271.267L250.152 276.425Z" fill="#EDDAAA"/>
<ellipse cx="448.624" cy="349.068" rx="1.03918" ry="0.874621" fill="#EDDAAA"/>
<ellipse cx="647.627" cy="303.151" rx="1.55877" ry="1.31193" fill="#EDDAAA"/>
<ellipse cx="616.452" cy="284.783" rx="1.55877" ry="1.31193" fill="#EDDAAA"/>
<ellipse cx="590.992" cy="267.728" rx="3.11753" ry="2.62386" fill="#EDDAAA"/>
<ellipse cx="518.249" cy="260.732" rx="1.03918" ry="0.874621" fill="#EDDAAA"/>
<ellipse cx="556.18" cy="286.533" rx="0.519589" ry="0.437311" fill="#EDDAAA"/>
<ellipse cx="570.728" cy="363.499" rx="3.63712" ry="3.06117" fill="#EDDAAA"/>
<ellipse cx="439.272" cy="295.716" rx="2.07836" ry="1.74924" fill="#EDDAAA"/>
<ellipse cx="497.466" cy="304.462" rx="1.03918" ry="0.874621" fill="#EDDAAA"/>
<ellipse cx="448.624" cy="240.615" rx="2.07836" ry="1.74924" fill="#EDDAAA"/>
<ellipse cx="513.054" cy="370.934" rx="1.03918" ry="0.874621" fill="#EDDAAA"/>
<ellipse cx="547.346" cy="327.202" rx="1.03918" ry="0.874621" fill="#EDDAAA"/>
<ellipse cx="540.072" cy="303.588" rx="1.03918" ry="0.874621" fill="#EDDAAA"/>
<ellipse cx="634.118" cy="327.64" rx="1.55877" ry="1.31193" fill="#EDDAAA"/>
<ellipse cx="255.337" cy="286.97" rx="1.03918" ry="0.874621" fill="#EDDAAA"/>
<ellipse cx="454.34" cy="241.052" rx="1.55877" ry="1.31193" fill="#EDDAAA"/>
<ellipse cx="423.164" cy="222.685" rx="1.55877" ry="1.31193" fill="#EDDAAA"/>
<ellipse cx="397.704" cy="205.63" rx="3.11753" ry="2.62386" fill="#EDDAAA"/>
<ellipse cx="324.962" cy="198.633" rx="1.03918" ry="0.874621" fill="#EDDAAA"/>
<ellipse cx="362.893" cy="224.435" rx="0.519589" ry="0.437311" fill="#EDDAAA"/>
<ellipse cx="377.441" cy="301.401" rx="3.63712" ry="3.06117" fill="#EDDAAA"/>
<ellipse cx="245.985" cy="233.618" rx="2.07836" ry="1.74924" fill="#EDDAAA"/>
<ellipse cx="304.179" cy="242.364" rx="1.03918" ry="0.874621" fill="#EDDAAA"/>
<ellipse cx="255.337" cy="178.517" rx="2.07836" ry="1.74924" fill="#EDDAAA"/>
<ellipse cx="319.767" cy="308.836" rx="1.03918" ry="0.874621" fill="#EDDAAA"/>
<ellipse cx="354.06" cy="265.105" rx="1.03918" ry="0.874621" fill="#EDDAAA"/>
<ellipse cx="346.785" cy="241.49" rx="1.03918" ry="0.874621" fill="#EDDAAA"/>
<ellipse cx="440.83" cy="265.542" rx="1.55877" ry="1.31193" fill="#EDDAAA"/>
<ellipse cx="81.795" cy="286.97" rx="1.03918" ry="0.874621" fill="#EDDAAA"/>
<ellipse cx="280.798" cy="241.052" rx="1.55877" ry="1.31193" fill="#EDDAAA"/>
<ellipse cx="249.622" cy="222.685" rx="1.55877" ry="1.31193" fill="#EDDAAA"/>
<ellipse cx="224.162" cy="205.63" rx="3.11753" ry="2.62386" fill="#EDDAAA"/>
<ellipse cx="151.42" cy="198.633" rx="1.03918" ry="0.874621" fill="#EDDAAA"/>
<ellipse cx="189.35" cy="224.435" rx="0.519589" ry="0.437311" fill="#EDDAAA"/>
<ellipse cx="203.899" cy="301.401" rx="3.63712" ry="3.06117" fill="#EDDAAA"/>
<ellipse cx="72.4426" cy="233.618" rx="2.07836" ry="1.74924" fill="#EDDAAA"/>
<ellipse cx="130.637" cy="242.364" rx="1.03918" ry="0.874621" fill="#EDDAAA"/>
<ellipse cx="81.7952" cy="178.517" rx="2.07836" ry="1.74924" fill="#EDDAAA"/>
<ellipse cx="146.225" cy="308.836" rx="1.03918" ry="0.874621" fill="#EDDAAA"/>
<ellipse cx="180.517" cy="265.105" rx="1.03918" ry="0.874621" fill="#EDDAAA"/>
<ellipse cx="173.243" cy="241.49" rx="1.03918" ry="0.874621" fill="#EDDAAA"/>
<ellipse cx="267.288" cy="265.542" rx="1.55877" ry="1.31193" fill="#EDDAAA"/>
<ellipse cx="0.905358" cy="1.01251" rx="0.905358" ry="1.01251" transform="matrix(0.478415 0.878134 -0.932935 0.360044 504.439 174.311)" fill="#EDDAAA" fill-opacity="0.1"/>
<ellipse cx="1.35804" cy="1.51877" rx="1.35804" ry="1.51877" transform="matrix(0.478415 0.878134 -0.932935 0.360044 637.232 306.84)" fill="#EDDAAA" fill-opacity="0.1"/>
<ellipse cx="1.35804" cy="1.51877" rx="1.35804" ry="1.51877" transform="matrix(0.478415 0.878134 -0.932935 0.360044 644.076 275.334)" fill="#EDDAAA" fill-opacity="0.1"/>
<ellipse cx="2.71608" cy="3.03753" rx="2.71608" ry="3.03753" transform="matrix(0.478415 0.878134 -0.932935 0.360044 652.65 247.008)" fill="#EDDAAA" fill-opacity="0.1"/>
<ellipse cx="0.905358" cy="1.01251" rx="0.905358" ry="1.01251" transform="matrix(0.478415 0.878134 -0.932935 0.360044 628.865 190.758)" fill="#EDDAAA" fill-opacity="0.1"/>
<ellipse cx="0.452679" cy="0.506255" rx="0.452679" ry="0.506255" transform="matrix(0.478415 0.878134 -0.932935 0.360044 616.553 231.111)" fill="#EDDAAA" fill-opacity="0.1"/>
<ellipse cx="2.2634" cy="2.53128" rx="2.2634" ry="2.53128" transform="matrix(0.478415 0.878134 -0.932935 0.360044 523.822 261.606)" fill="#EDDAAA" fill-opacity="0.1"/>
<ellipse cx="1.81072" cy="2.02502" rx="1.81072" ry="2.02502" transform="matrix(0.478415 0.878134 -0.932935 0.360044 558.674 143.759)" fill="#EDDAAA" fill-opacity="0.1"/>
<ellipse cx="0.905358" cy="1.01251" rx="0.905358" ry="1.01251" transform="matrix(0.478415 0.878134 -0.932935 0.360044 572.972 193.085)" fill="#EDDAAA" fill-opacity="0.1"/>
<ellipse cx="1.81072" cy="2.02502" rx="1.81072" ry="2.02502" transform="matrix(0.478415 0.878134 -0.932935 0.360044 622.083 127.948)" fill="#EDDAAA" fill-opacity="0.1"/>
<ellipse cx="0.905358" cy="1.01251" rx="0.905358" ry="1.01251" transform="matrix(0.478415 0.878134 -0.932935 0.360044 507.679 232.716)" fill="#EDDAAA" fill-opacity="0.1"/>
<ellipse cx="0.905358" cy="1.01251" rx="0.905358" ry="1.01251" transform="matrix(0.478415 0.878134 -0.932935 0.360044 569.203 240.725)" fill="#EDDAAA" fill-opacity="0.1"/>
<ellipse cx="0.905358" cy="1.01251" rx="0.905358" ry="1.01251" transform="matrix(0.478415 0.878134 -0.932935 0.360044 591.675 225.317)" fill="#EDDAAA" fill-opacity="0.1"/>
<ellipse cx="1.35804" cy="1.51877" rx="1.35804" ry="1.51877" transform="matrix(0.478415 0.878134 -0.932935 0.360044 605.153 306.712)" fill="#EDDAAA" fill-opacity="0.1"/>
<ellipse cx="0.905358" cy="1.01251" rx="0.905358" ry="1.01251" transform="matrix(0.478415 0.878134 -0.932935 0.360044 311.153 112.214)" fill="#EDDAAA" fill-opacity="0.1"/>
<ellipse cx="1.35804" cy="1.51877" rx="1.35804" ry="1.51877" transform="matrix(0.478415 0.878134 -0.932935 0.360044 443.946 244.742)" fill="#EDDAAA" fill-opacity="0.1"/>
<ellipse cx="1.35804" cy="1.51877" rx="1.35804" ry="1.51877" transform="matrix(0.478415 0.878134 -0.932935 0.360044 450.788 213.236)" fill="#EDDAAA" fill-opacity="0.1"/>
<ellipse cx="2.71608" cy="3.03753" rx="2.71608" ry="3.03753" transform="matrix(0.478415 0.878134 -0.932935 0.360044 459.363 184.91)" fill="#EDDAAA" fill-opacity="0.1"/>
<ellipse cx="0.905358" cy="1.01251" rx="0.905358" ry="1.01251" transform="matrix(0.478415 0.878134 -0.932935 0.360044 435.578 128.661)" fill="#EDDAAA" fill-opacity="0.1"/>
<ellipse cx="0.452679" cy="0.506255" rx="0.452679" ry="0.506255" transform="matrix(0.478415 0.878134 -0.932935 0.360044 423.266 169.013)" fill="#EDDAAA" fill-opacity="0.1"/>
<ellipse cx="2.2634" cy="2.53128" rx="2.2634" ry="2.53128" transform="matrix(0.478415 0.878134 -0.932935 0.360044 330.536 199.509)" fill="#EDDAAA" fill-opacity="0.1"/>
<ellipse cx="1.81072" cy="2.02502" rx="1.81072" ry="2.02502" transform="matrix(0.478415 0.878134 -0.932935 0.360044 365.388 81.6617)" fill="#EDDAAA" fill-opacity="0.1"/>
<ellipse cx="0.905358" cy="1.01251" rx="0.905358" ry="1.01251" transform="matrix(0.478415 0.878134 -0.932935 0.360044 379.685 130.987)" fill="#EDDAAA" fill-opacity="0.1"/>
<ellipse cx="1.81072" cy="2.02502" rx="1.81072" ry="2.02502" transform="matrix(0.478415 0.878134 -0.932935 0.360044 428.796 65.8504)" fill="#EDDAAA" fill-opacity="0.1"/>
<ellipse cx="0.905358" cy="1.01251" rx="0.905358" ry="1.01251" transform="matrix(0.478415 0.878134 -0.932935 0.360044 314.392 170.619)" fill="#EDDAAA" fill-opacity="0.1"/>
<ellipse cx="0.905358" cy="1.01251" rx="0.905358" ry="1.01251" transform="matrix(0.478415 0.878134 -0.932935 0.360044 375.915 178.627)" fill="#EDDAAA" fill-opacity="0.1"/>
<ellipse cx="0.905358" cy="1.01251" rx="0.905358" ry="1.01251" transform="matrix(0.478415 0.878134 -0.932935 0.360044 398.388 163.219)" fill="#EDDAAA" fill-opacity="0.1"/>
<ellipse cx="1.35804" cy="1.51877" rx="1.35804" ry="1.51877" transform="matrix(0.478415 0.878134 -0.932935 0.360044 411.865 244.614)" fill="#EDDAAA" fill-opacity="0.1"/>
<ellipse cx="0.905358" cy="1.01251" rx="0.905358" ry="1.01251" transform="matrix(0.478415 0.878134 -0.932935 0.360044 137.61 112.214)" fill="#EDDAAA" fill-opacity="0.1"/>
<ellipse cx="1.35804" cy="1.51877" rx="1.35804" ry="1.51877" transform="matrix(0.478415 0.878134 -0.932935 0.360044 270.403 244.742)" fill="#EDDAAA" fill-opacity="0.1"/>
<ellipse cx="1.35804" cy="1.51877" rx="1.35804" ry="1.51877" transform="matrix(0.478415 0.878134 -0.932935 0.360044 277.245 213.236)" fill="#EDDAAA" fill-opacity="0.1"/>
<ellipse cx="2.71608" cy="3.03753" rx="2.71608" ry="3.03753" transform="matrix(0.478415 0.878134 -0.932935 0.360044 285.82 184.91)" fill="#EDDAAA" fill-opacity="0.1"/>
<ellipse cx="0.905358" cy="1.01251" rx="0.905358" ry="1.01251" transform="matrix(0.478415 0.878134 -0.932935 0.360044 262.035 128.661)" fill="#EDDAAA" fill-opacity="0.1"/>
<ellipse cx="0.452679" cy="0.506255" rx="0.452679" ry="0.506255" transform="matrix(0.478415 0.878134 -0.932935 0.360044 249.723 169.013)" fill="#EDDAAA" fill-opacity="0.1"/>
<ellipse cx="2.2634" cy="2.53128" rx="2.2634" ry="2.53128" transform="matrix(0.478415 0.878134 -0.932935 0.360044 156.992 199.509)" fill="#EDDAAA" fill-opacity="0.1"/>
<ellipse cx="1.81072" cy="2.02502" rx="1.81072" ry="2.02502" transform="matrix(0.478415 0.878134 -0.932935 0.360044 191.845 81.6617)" fill="#EDDAAA" fill-opacity="0.1"/>
<ellipse cx="0.905358" cy="1.01251" rx="0.905358" ry="1.01251" transform="matrix(0.478415 0.878134 -0.932935 0.360044 206.142 130.987)" fill="#EDDAAA" fill-opacity="0.1"/>
<ellipse cx="1.81072" cy="2.02502" rx="1.81072" ry="2.02502" transform="matrix(0.478415 0.878134 -0.932935 0.360044 255.253 65.8504)" fill="#EDDAAA" fill-opacity="0.1"/>
<ellipse cx="0.905358" cy="1.01251" rx="0.905358" ry="1.01251" transform="matrix(0.478415 0.878134 -0.932935 0.360044 140.849 170.619)" fill="#EDDAAA" fill-opacity="0.1"/>
<ellipse cx="0.905358" cy="1.01251" rx="0.905358" ry="1.01251" transform="matrix(0.478415 0.878134 -0.932935 0.360044 202.372 178.627)" fill="#EDDAAA" fill-opacity="0.1"/>
<ellipse cx="0.905358" cy="1.01251" rx="0.905358" ry="1.01251" transform="matrix(0.478415 0.878134 -0.932935 0.360044 224.845 163.219)" fill="#EDDAAA" fill-opacity="0.1"/>
<ellipse cx="1.35804" cy="1.51877" rx="1.35804" ry="1.51877" transform="matrix(0.478415 0.878134 -0.932935 0.360044 238.322 244.614)" fill="#EDDAAA" fill-opacity="0.1"/>
<ellipse cx="0.905358" cy="1.01251" rx="0.905358" ry="1.01251" transform="matrix(0.478415 0.878134 -0.932935 0.360044 160.892 111.338)" fill="#EDDAAA" fill-opacity="0.1"/>
<ellipse cx="1.35804" cy="1.51877" rx="1.35804" ry="1.51877" transform="matrix(0.478415 0.878134 -0.932935 0.360044 293.686 243.867)" fill="#EDDAAA" fill-opacity="0.1"/>
<ellipse cx="1.35804" cy="1.51877" rx="1.35804" ry="1.51877" transform="matrix(0.478415 0.878134 -0.932935 0.360044 300.528 212.361)" fill="#EDDAAA" fill-opacity="0.1"/>
<ellipse cx="2.71608" cy="3.03753" rx="2.71608" ry="3.03753" transform="matrix(0.478415 0.878134 -0.932935 0.360044 309.103 184.035)" fill="#EDDAAA" fill-opacity="0.1"/>
<ellipse cx="0.905358" cy="1.01251" rx="0.905358" ry="1.01251" transform="matrix(0.478415 0.878134 -0.932935 0.360044 285.318 127.786)" fill="#EDDAAA" fill-opacity="0.1"/>
<ellipse cx="0.452679" cy="0.506255" rx="0.452679" ry="0.506255" transform="matrix(0.478415 0.878134 -0.932935 0.360044 273.005 168.138)" fill="#EDDAAA" fill-opacity="0.1"/>
<ellipse cx="2.2634" cy="2.53128" rx="2.2634" ry="2.53128" transform="matrix(0.478415 0.878134 -0.932935 0.360044 180.275 198.634)" fill="#EDDAAA" fill-opacity="0.1"/>
<ellipse cx="1.81072" cy="2.02502" rx="1.81072" ry="2.02502" transform="matrix(0.478415 0.878134 -0.932935 0.360044 215.126 80.7861)" fill="#EDDAAA" fill-opacity="0.1"/>
<ellipse cx="0.905358" cy="1.01251" rx="0.905358" ry="1.01251" transform="matrix(0.478415 0.878134 -0.932935 0.360044 229.424 130.112)" fill="#EDDAAA" fill-opacity="0.1"/>
<ellipse cx="1.81072" cy="2.02502" rx="1.81072" ry="2.02502" transform="matrix(0.478415 0.878134 -0.932935 0.360044 278.535 64.9744)" fill="#EDDAAA" fill-opacity="0.1"/>
<ellipse cx="0.905358" cy="1.01251" rx="0.905358" ry="1.01251" transform="matrix(0.478415 0.878134 -0.932935 0.360044 164.131 169.744)" fill="#EDDAAA" fill-opacity="0.1"/>
<ellipse cx="0.905358" cy="1.01251" rx="0.905358" ry="1.01251" transform="matrix(0.478415 0.878134 -0.932935 0.360044 225.655 177.752)" fill="#EDDAAA" fill-opacity="0.1"/>
<ellipse cx="0.905358" cy="1.01251" rx="0.905358" ry="1.01251" transform="matrix(0.478415 0.878134 -0.932935 0.360044 248.127 162.344)" fill="#EDDAAA" fill-opacity="0.1"/>
<ellipse cx="1.35804" cy="1.51877" rx="1.35804" ry="1.51877" transform="matrix(0.478415 0.878134 -0.932935 0.360044 261.605 243.739)" fill="#EDDAAA" fill-opacity="0.1"/>
<ellipse cx="0.905358" cy="0.968399" rx="0.905358" ry="0.968399" transform="matrix(0.478415 0.878134 -0.932935 0.360044 209.554 103.938)" fill="#EDDAAA" fill-opacity="0.1"/>
<ellipse cx="1.35804" cy="1.4526" rx="1.35804" ry="1.4526" transform="matrix(0.478415 0.878134 -0.932935 0.360044 340.166 237.309)" fill="#EDDAAA" fill-opacity="0.1"/>
<ellipse cx="1.35804" cy="1.4526" rx="1.35804" ry="1.4526" transform="matrix(0.478415 0.878134 -0.932935 0.360044 346.144 206.135)" fill="#EDDAAA" fill-opacity="0.1"/>
<ellipse cx="2.71608" cy="2.9052" rx="2.71608" ry="2.9052" transform="matrix(0.478415 0.878134 -0.932935 0.360044 353.854 178.143)" fill="#EDDAAA" fill-opacity="0.1"/>
<ellipse cx="0.905358" cy="0.968399" rx="0.905358" ry="0.968399" transform="matrix(0.478415 0.878134 -0.932935 0.360044 329.822 121.989)" fill="#EDDAAA" fill-opacity="0.1"/>
<ellipse cx="0.452679" cy="0.484199" rx="0.452679" ry="0.484199" transform="matrix(0.478415 0.878134 -0.932935 0.360044 318.745 161.865)" fill="#EDDAAA" fill-opacity="0.1"/>
<ellipse cx="2.2634" cy="2.421" rx="2.2634" ry="2.421" transform="matrix(0.478415 0.878134 -0.932935 0.360044 229.951 190.841)" fill="#EDDAAA" fill-opacity="0.1"/>
<ellipse cx="1.81072" cy="1.9368" rx="1.81072" ry="1.9368" transform="matrix(0.478415 0.878134 -0.932935 0.360044 261.236 74.3707)" fill="#EDDAAA" fill-opacity="0.1"/>
<ellipse cx="0.905358" cy="0.968399" rx="0.905358" ry="0.968399" transform="matrix(0.478415 0.878134 -0.932935 0.360044 275.986 123.522)" fill="#EDDAAA" fill-opacity="0.1"/>
<ellipse cx="1.81072" cy="1.9368" rx="1.81072" ry="1.9368" transform="matrix(0.478415 0.878134 -0.932935 0.360044 322.052 59.5598)" fill="#EDDAAA" fill-opacity="0.1"/>
<ellipse cx="0.905358" cy="0.968399" rx="0.905358" ry="0.968399" transform="matrix(0.478415 0.878134 -0.932935 0.360044 213.821 161.946)" fill="#EDDAAA" fill-opacity="0.1"/>
<ellipse cx="0.905358" cy="0.968399" rx="0.905358" ry="0.968399" transform="matrix(0.478415 0.878134 -0.932935 0.360044 273.287 170.748)" fill="#EDDAAA" fill-opacity="0.1"/>
<ellipse cx="0.905358" cy="0.968399" rx="0.905358" ry="0.968399" transform="matrix(0.478415 0.878134 -0.932935 0.360044 294.648 155.768)" fill="#EDDAAA" fill-opacity="0.1"/>
<ellipse cx="1.35804" cy="1.4526" rx="1.35804" ry="1.4526" transform="matrix(0.478415 0.878134 -0.932935 0.360044 309.237 236.736)" fill="#EDDAAA" fill-opacity="0.1"/>
<ellipse cx="0.905358" cy="1.01251" rx="0.905358" ry="1.01251" transform="matrix(0.478415 0.878134 -0.932935 0.360044 409.256 132.329)" fill="#EDDAAA"/>
<ellipse cx="1.35804" cy="1.51877" rx="1.35804" ry="1.51877" transform="matrix(0.478415 0.878134 -0.932935 0.360044 542.05 264.858)" fill="#EDDAAA"/>
<ellipse cx="1.35804" cy="1.51877" rx="1.35804" ry="1.51877" transform="matrix(0.478415 0.878134 -0.932935 0.360044 548.892 233.352)" fill="#EDDAAA"/>
<ellipse cx="2.71608" cy="3.03753" rx="2.71608" ry="3.03753" transform="matrix(0.478415 0.878134 -0.932935 0.360044 557.467 205.026)" fill="#EDDAAA"/>
<ellipse cx="0.905358" cy="1.01251" rx="0.905358" ry="1.01251" transform="matrix(0.478415 0.878134 -0.932935 0.360044 533.682 148.776)" fill="#EDDAAA"/>
<ellipse cx="0.452679" cy="0.506255" rx="0.452679" ry="0.506255" transform="matrix(0.478415 0.878134 -0.932935 0.360044 521.369 189.129)" fill="#EDDAAA"/>
<ellipse cx="2.2634" cy="2.53128" rx="2.2634" ry="2.53128" transform="matrix(0.478415 0.878134 -0.932935 0.360044 428.639 219.625)" fill="#EDDAAA"/>
<ellipse cx="1.81072" cy="2.02502" rx="1.81072" ry="2.02502" transform="matrix(0.478415 0.878134 -0.932935 0.360044 463.49 101.777)" fill="#EDDAAA"/>
<ellipse cx="0.905358" cy="1.01251" rx="0.905358" ry="1.01251" transform="matrix(0.478415 0.878134 -0.932935 0.360044 477.788 151.103)" fill="#EDDAAA"/>
<ellipse cx="1.81072" cy="2.02502" rx="1.81072" ry="2.02502" transform="matrix(0.478415 0.878134 -0.932935 0.360044 526.898 85.9655)" fill="#EDDAAA"/>
<ellipse cx="0.905358" cy="1.01251" rx="0.905358" ry="1.01251" transform="matrix(0.478415 0.878134 -0.932935 0.360044 412.495 190.735)" fill="#EDDAAA"/>
<ellipse cx="0.905358" cy="1.01251" rx="0.905358" ry="1.01251" transform="matrix(0.478415 0.878134 -0.932935 0.360044 474.019 198.742)" fill="#EDDAAA"/>
<ellipse cx="0.905358" cy="1.01251" rx="0.905358" ry="1.01251" transform="matrix(0.478415 0.878134 -0.932935 0.360044 496.491 183.335)" fill="#EDDAAA"/>
<ellipse cx="1.35804" cy="1.51877" rx="1.35804" ry="1.51877" transform="matrix(0.478415 0.878134 -0.932935 0.360044 509.969 264.73)" fill="#EDDAAA"/>
<ellipse cx="0.905358" cy="1.01251" rx="0.905358" ry="1.01251" transform="matrix(0.478415 0.878134 -0.932935 0.360044 215.969 70.2312)" fill="#EDDAAA"/>
<ellipse cx="1.35804" cy="1.51877" rx="1.35804" ry="1.51877" transform="matrix(0.478415 0.878134 -0.932935 0.360044 348.763 202.76)" fill="#EDDAAA"/>
<ellipse cx="1.35804" cy="1.51877" rx="1.35804" ry="1.51877" transform="matrix(0.478415 0.878134 -0.932935 0.360044 355.604 171.254)" fill="#EDDAAA"/>
<ellipse cx="2.71608" cy="3.03753" rx="2.71608" ry="3.03753" transform="matrix(0.478415 0.878134 -0.932935 0.360044 364.18 142.928)" fill="#EDDAAA"/>
<ellipse cx="0.905358" cy="1.01251" rx="0.905358" ry="1.01251" transform="matrix(0.478415 0.878134 -0.932935 0.360044 340.395 86.6785)" fill="#EDDAAA"/>
<ellipse cx="0.452679" cy="0.506255" rx="0.452679" ry="0.506255" transform="matrix(0.478415 0.878134 -0.932935 0.360044 328.082 127.031)" fill="#EDDAAA"/>
<ellipse cx="2.2634" cy="2.53128" rx="2.2634" ry="2.53128" transform="matrix(0.478415 0.878134 -0.932935 0.360044 235.352 157.527)" fill="#EDDAAA"/>
<ellipse cx="1.81072" cy="2.02502" rx="1.81072" ry="2.02502" transform="matrix(0.478415 0.878134 -0.932935 0.360044 270.203 39.679)" fill="#EDDAAA"/>
<ellipse cx="0.905358" cy="1.01251" rx="0.905358" ry="1.01251" transform="matrix(0.478415 0.878134 -0.932935 0.360044 284.501 89.0052)" fill="#EDDAAA"/>
<ellipse cx="1.81072" cy="2.02502" rx="1.81072" ry="2.02502" transform="matrix(0.478415 0.878134 -0.932935 0.360044 333.611 23.8676)" fill="#EDDAAA"/>
<ellipse cx="0.905358" cy="1.01251" rx="0.905358" ry="1.01251" transform="matrix(0.478415 0.878134 -0.932935 0.360044 219.208 128.637)" fill="#EDDAAA"/>
<ellipse cx="0.905358" cy="1.01251" rx="0.905358" ry="1.01251" transform="matrix(0.478415 0.878134 -0.932935 0.360044 280.731 136.645)" fill="#EDDAAA"/>
<ellipse cx="0.905358" cy="1.01251" rx="0.905358" ry="1.01251" transform="matrix(0.478415 0.878134 -0.932935 0.360044 303.204 121.237)" fill="#EDDAAA"/>
<ellipse cx="1.35804" cy="1.51877" rx="1.35804" ry="1.51877" transform="matrix(0.478415 0.878134 -0.932935 0.360044 316.682 202.632)" fill="#EDDAAA"/>
<ellipse cx="0.905358" cy="1.01251" rx="0.905358" ry="1.01251" transform="matrix(0.478415 0.878134 -0.932935 0.360044 648.267 271.394)" fill="#EDDAAA"/>
<ellipse cx="1.35804" cy="1.51877" rx="1.35804" ry="1.51877" transform="matrix(0.478415 0.878134 -0.932935 0.360044 781.061 403.922)" fill="#EDDAAA"/>
<ellipse cx="1.35804" cy="1.51877" rx="1.35804" ry="1.51877" transform="matrix(0.478415 0.878134 -0.932935 0.360044 787.903 372.417)" fill="#EDDAAA"/>
<ellipse cx="2.71608" cy="3.03753" rx="2.71608" ry="3.03753" transform="matrix(0.478415 0.878134 -0.932935 0.360044 796.478 344.091)" fill="#EDDAAA"/>
<ellipse cx="0.905358" cy="1.01251" rx="0.905358" ry="1.01251" transform="matrix(0.478415 0.878134 -0.932935 0.360044 772.692 287.841)" fill="#EDDAAA"/>
<ellipse cx="0.452679" cy="0.506255" rx="0.452679" ry="0.506255" transform="matrix(0.478415 0.878134 -0.932935 0.360044 760.38 328.193)" fill="#EDDAAA"/>
<ellipse cx="2.2634" cy="2.53128" rx="2.2634" ry="2.53128" transform="matrix(0.478415 0.878134 -0.932935 0.360044 667.65 358.689)" fill="#EDDAAA"/>
<ellipse cx="1.81072" cy="2.02502" rx="1.81072" ry="2.02502" transform="matrix(0.478415 0.878134 -0.932935 0.360044 702.501 240.842)" fill="#EDDAAA"/>
<ellipse cx="0.905358" cy="1.01251" rx="0.905358" ry="1.01251" transform="matrix(0.478415 0.878134 -0.932935 0.360044 716.799 290.168)" fill="#EDDAAA"/>
<ellipse cx="1.81072" cy="2.02502" rx="1.81072" ry="2.02502" transform="matrix(0.478415 0.878134 -0.932935 0.360044 765.91 225.031)" fill="#EDDAAA"/>
<ellipse cx="0.905358" cy="1.01251" rx="0.905358" ry="1.01251" transform="matrix(0.478415 0.878134 -0.932935 0.360044 651.507 329.799)" fill="#EDDAAA"/>
<ellipse cx="0.905358" cy="1.01251" rx="0.905358" ry="1.01251" transform="matrix(0.478415 0.878134 -0.932935 0.360044 713.03 337.808)" fill="#EDDAAA"/>
<ellipse cx="0.905358" cy="1.01251" rx="0.905358" ry="1.01251" transform="matrix(0.478415 0.878134 -0.932935 0.360044 735.503 322.399)" fill="#EDDAAA"/>
<ellipse cx="1.35804" cy="1.51877" rx="1.35804" ry="1.51877" transform="matrix(0.478415 0.878134 -0.932935 0.360044 748.981 403.794)" fill="#EDDAAA"/>
<ellipse cx="0.905358" cy="1.01251" rx="0.905358" ry="1.01251" transform="matrix(0.478415 0.878134 -0.932935 0.360044 42.4268 70.2312)" fill="#EDDAAA"/>
<ellipse cx="1.35804" cy="1.51877" rx="1.35804" ry="1.51877" transform="matrix(0.478415 0.878134 -0.932935 0.360044 175.22 202.76)" fill="#EDDAAA"/>
<ellipse cx="1.35804" cy="1.51877" rx="1.35804" ry="1.51877" transform="matrix(0.478415 0.878134 -0.932935 0.360044 182.062 171.254)" fill="#EDDAAA"/>
<ellipse cx="2.71608" cy="3.03753" rx="2.71608" ry="3.03753" transform="matrix(0.478415 0.878134 -0.932935 0.360044 190.638 142.928)" fill="#EDDAAA"/>
<ellipse cx="0.905358" cy="1.01251" rx="0.905358" ry="1.01251" transform="matrix(0.478415 0.878134 -0.932935 0.360044 166.852 86.6785)" fill="#EDDAAA"/>
<ellipse cx="0.452679" cy="0.506255" rx="0.452679" ry="0.506255" transform="matrix(0.478415 0.878134 -0.932935 0.360044 154.54 127.031)" fill="#EDDAAA"/>
<ellipse cx="2.2634" cy="2.53128" rx="2.2634" ry="2.53128" transform="matrix(0.478415 0.878134 -0.932935 0.360044 61.8096 157.527)" fill="#EDDAAA"/>
<ellipse cx="1.81072" cy="2.02502" rx="1.81072" ry="2.02502" transform="matrix(0.478415 0.878134 -0.932935 0.360044 96.6611 39.679)" fill="#EDDAAA"/>
<ellipse cx="0.905358" cy="1.01251" rx="0.905358" ry="1.01251" transform="matrix(0.478415 0.878134 -0.932935 0.360044 110.959 89.0052)" fill="#EDDAAA"/>
<ellipse cx="1.81072" cy="2.02502" rx="1.81072" ry="2.02502" transform="matrix(0.478415 0.878134 -0.932935 0.360044 160.069 23.8676)" fill="#EDDAAA"/>
<ellipse cx="0.905358" cy="1.01251" rx="0.905358" ry="1.01251" transform="matrix(0.478415 0.878134 -0.932935 0.360044 45.666 128.637)" fill="#EDDAAA"/>
<ellipse cx="0.905358" cy="1.01251" rx="0.905358" ry="1.01251" transform="matrix(0.478415 0.878134 -0.932935 0.360044 107.189 136.645)" fill="#EDDAAA"/>
<ellipse cx="0.905358" cy="1.01251" rx="0.905358" ry="1.01251" transform="matrix(0.478415 0.878134 -0.932935 0.360044 129.662 121.237)" fill="#EDDAAA"/>
<ellipse cx="1.35804" cy="1.51877" rx="1.35804" ry="1.51877" transform="matrix(0.478415 0.878134 -0.932935 0.360044 143.14 202.632)" fill="#EDDAAA"/>
<ellipse cx="0.905358" cy="1.01251" rx="0.905358" ry="1.01251" transform="matrix(0.478415 0.878134 -0.932935 0.360044 680.482 378.972)" fill="#EDDAAA"/>
<ellipse cx="1.35804" cy="1.51877" rx="1.35804" ry="1.51877" transform="matrix(0.478415 0.878134 -0.932935 0.360044 813.275 511.501)" fill="#EDDAAA"/>
<ellipse cx="1.35804" cy="1.51877" rx="1.35804" ry="1.51877" transform="matrix(0.478415 0.878134 -0.932935 0.360044 820.118 479.995)" fill="#EDDAAA"/>
<ellipse cx="2.71608" cy="3.03753" rx="2.71608" ry="3.03753" transform="matrix(0.478415 0.878134 -0.932935 0.360044 828.693 451.668)" fill="#EDDAAA"/>
<ellipse cx="0.905358" cy="1.01251" rx="0.905358" ry="1.01251" transform="matrix(0.478415 0.878134 -0.932935 0.360044 804.907 395.419)" fill="#EDDAAA"/>
<ellipse cx="0.452679" cy="0.506255" rx="0.452679" ry="0.506255" transform="matrix(0.478415 0.878134 -0.932935 0.360044 792.595 435.772)" fill="#EDDAAA"/>
<ellipse cx="2.2634" cy="2.53128" rx="2.2634" ry="2.53128" transform="matrix(0.478415 0.878134 -0.932935 0.360044 699.865 466.267)" fill="#EDDAAA"/>
<ellipse cx="1.81072" cy="2.02502" rx="1.81072" ry="2.02502" transform="matrix(0.478415 0.878134 -0.932935 0.360044 734.716 348.42)" fill="#EDDAAA"/>
<ellipse cx="0.905358" cy="1.01251" rx="0.905358" ry="1.01251" transform="matrix(0.478415 0.878134 -0.932935 0.360044 749.014 397.746)" fill="#EDDAAA"/>
<ellipse cx="1.81072" cy="2.02502" rx="1.81072" ry="2.02502" transform="matrix(0.478415 0.878134 -0.932935 0.360044 798.125 332.608)" fill="#EDDAAA"/>
<ellipse cx="0.905358" cy="1.01251" rx="0.905358" ry="1.01251" transform="matrix(0.478415 0.878134 -0.932935 0.360044 683.721 437.378)" fill="#EDDAAA"/>
<ellipse cx="0.905358" cy="1.01251" rx="0.905358" ry="1.01251" transform="matrix(0.478415 0.878134 -0.932935 0.360044 745.245 445.385)" fill="#EDDAAA"/>
<ellipse cx="0.905358" cy="1.01251" rx="0.905358" ry="1.01251" transform="matrix(0.478415 0.878134 -0.932935 0.360044 767.718 429.978)" fill="#EDDAAA"/>
<ellipse cx="1.35804" cy="1.51877" rx="1.35804" ry="1.51877" transform="matrix(0.478415 0.878134 -0.932935 0.360044 781.195 511.373)" fill="#EDDAAA"/>
<ellipse cx="0.905358" cy="1.01251" rx="0.905358" ry="1.01251" transform="matrix(0.478415 0.878134 -0.932935 0.360044 474.725 271.394)" fill="#EDDAAA"/>
<ellipse cx="1.35804" cy="1.51877" rx="1.35804" ry="1.51877" transform="matrix(0.478415 0.878134 -0.932935 0.360044 607.518 403.922)" fill="#EDDAAA"/>
<ellipse cx="1.35804" cy="1.51877" rx="1.35804" ry="1.51877" transform="matrix(0.478415 0.878134 -0.932935 0.360044 614.36 372.417)" fill="#EDDAAA"/>
<ellipse cx="2.71608" cy="3.03753" rx="2.71608" ry="3.03753" transform="matrix(0.478415 0.878134 -0.932935 0.360044 622.936 344.091)" fill="#EDDAAA"/>
<ellipse cx="0.905358" cy="1.01251" rx="0.905358" ry="1.01251" transform="matrix(0.478415 0.878134 -0.932935 0.360044 599.15 287.841)" fill="#EDDAAA"/>
<ellipse cx="0.452679" cy="0.506255" rx="0.452679" ry="0.506255" transform="matrix(0.478415 0.878134 -0.932935 0.360044 586.837 328.193)" fill="#EDDAAA"/>
<ellipse cx="2.2634" cy="2.53128" rx="2.2634" ry="2.53128" transform="matrix(0.478415 0.878134 -0.932935 0.360044 494.107 358.689)" fill="#EDDAAA"/>
<ellipse cx="1.81072" cy="2.02502" rx="1.81072" ry="2.02502" transform="matrix(0.478415 0.878134 -0.932935 0.360044 528.959 240.842)" fill="#EDDAAA"/>
<ellipse cx="0.905358" cy="1.01251" rx="0.905358" ry="1.01251" transform="matrix(0.478415 0.878134 -0.932935 0.360044 543.257 290.168)" fill="#EDDAAA"/>
<ellipse cx="1.81072" cy="2.02502" rx="1.81072" ry="2.02502" transform="matrix(0.478415 0.878134 -0.932935 0.360044 592.367 225.031)" fill="#EDDAAA"/>
<ellipse cx="0.905358" cy="1.01251" rx="0.905358" ry="1.01251" transform="matrix(0.478415 0.878134 -0.932935 0.360044 477.964 329.799)" fill="#EDDAAA"/>
<ellipse cx="0.905358" cy="1.01251" rx="0.905358" ry="1.01251" transform="matrix(0.478415 0.878134 -0.932935 0.360044 539.487 337.808)" fill="#EDDAAA"/>
<ellipse cx="0.905358" cy="1.01251" rx="0.905358" ry="1.01251" transform="matrix(0.478415 0.878134 -0.932935 0.360044 561.96 322.399)" fill="#EDDAAA"/>
<ellipse cx="1.35804" cy="1.51877" rx="1.35804" ry="1.51877" transform="matrix(0.478415 0.878134 -0.932935 0.360044 575.438 403.794)" fill="#EDDAAA"/>
<ellipse cx="400.821" cy="358.688" rx="1.03918" ry="0.874621" fill="#EDDAAA" fill-opacity="0.38"/>
<ellipse cx="599.824" cy="312.771" rx="1.55877" ry="1.31193" fill="#EDDAAA" fill-opacity="0.38"/>
<ellipse cx="568.649" cy="294.404" rx="1.55877" ry="1.31193" fill="#EDDAAA" fill-opacity="0.38"/>
<ellipse cx="543.189" cy="277.349" rx="3.11753" ry="2.62386" fill="#EDDAAA" fill-opacity="0.38"/>
<ellipse cx="470.446" cy="270.352" rx="1.03918" ry="0.874621" fill="#EDDAAA" fill-opacity="0.38"/>
<ellipse cx="508.376" cy="296.153" rx="0.519589" ry="0.437311" fill="#EDDAAA" fill-opacity="0.38"/>
<ellipse cx="522.925" cy="373.12" rx="3.63712" ry="3.06117" fill="#EDDAAA" fill-opacity="0.38"/>
<ellipse cx="391.469" cy="305.337" rx="2.07836" ry="1.74924" fill="#EDDAAA" fill-opacity="0.38"/>
<ellipse cx="449.663" cy="314.083" rx="1.03918" ry="0.874621" fill="#EDDAAA" fill-opacity="0.38"/>
<ellipse cx="400.822" cy="250.236" rx="2.07836" ry="1.74924" fill="#EDDAAA" fill-opacity="0.38"/>
<ellipse cx="465.25" cy="380.554" rx="1.03918" ry="0.874621" fill="#EDDAAA" fill-opacity="0.38"/>
<ellipse cx="499.543" cy="336.823" rx="1.03918" ry="0.874621" fill="#EDDAAA" fill-opacity="0.38"/>
<ellipse cx="492.27" cy="313.208" rx="1.03918" ry="0.874621" fill="#EDDAAA" fill-opacity="0.38"/>
<ellipse cx="586.315" cy="337.26" rx="1.55877" ry="1.31193" fill="#EDDAAA" fill-opacity="0.38"/>
<ellipse cx="0.876411" cy="1.03767" rx="0.876411" ry="1.03767" transform="matrix(-0.118281 -0.99298 0.996459 -0.0840801 194.116 173.764)" fill="#EDDAAA" fill-opacity="0.38"/>
<ellipse cx="1.31462" cy="1.5565" rx="1.31462" ry="1.5565" transform="matrix(-0.118281 -0.99298 0.996459 -0.0840801 119.515 12.1685)" fill="#EDDAAA" fill-opacity="0.38"/>
<ellipse cx="1.31462" cy="1.5565" rx="1.31462" ry="1.5565" transform="matrix(-0.118281 -0.99298 0.996459 -0.0840801 100.911 40.1082)" fill="#EDDAAA" fill-opacity="0.38"/>
<ellipse cx="2.62923" cy="3.11301" rx="2.62923" ry="3.11301" transform="matrix(-0.118281 -0.99298 0.996459 -0.0840801 81.8925 64.5673)" fill="#EDDAAA" fill-opacity="0.38"/>
<ellipse cx="0.876411" cy="1.03767" rx="0.876411" ry="1.03767" transform="matrix(-0.118281 -0.99298 0.996459 -0.0840801 82.7382 124.268)" fill="#EDDAAA" fill-opacity="0.38"/>
<ellipse cx="0.438205" cy="0.518834" rx="0.438205" ry="0.518834" transform="matrix(-0.118281 -0.99298 0.996459 -0.0840801 109.922 89.4509)" fill="#EDDAAA" fill-opacity="0.38"/>
<ellipse cx="3.06744" cy="3.63184" rx="3.06744" ry="3.63184" transform="matrix(-0.118281 -0.99298 0.996459 -0.0840801 196.671 72.4627)" fill="#EDDAAA" fill-opacity="0.38"/>
<ellipse cx="1.75282" cy="2.07534" rx="1.75282" ry="2.07534" transform="matrix(-0.118281 -0.99298 0.996459 -0.0840801 131.046 187.875)" fill="#EDDAAA" fill-opacity="0.38"/>
<ellipse cx="0.876411" cy="1.03767" rx="0.876411" ry="1.03767" transform="matrix(-0.118281 -0.99298 0.996459 -0.0840801 136.512 137.311)" fill="#EDDAAA" fill-opacity="0.38"/>
<ellipse cx="1.75282" cy="2.07534" rx="1.75282" ry="2.07534" transform="matrix(-0.118281 -0.99298 0.996459 -0.0840801 64.9716 185.54)" fill="#EDDAAA" fill-opacity="0.38"/>
<ellipse cx="0.876411" cy="1.03767" rx="0.876411" ry="1.03767" transform="matrix(-0.118281 -0.99298 0.996459 -0.0840801 213.539 117.626)" fill="#EDDAAA" fill-opacity="0.38"/>
<ellipse cx="0.876411" cy="1.03767" rx="0.876411" ry="1.03767" transform="matrix(-0.118281 -0.99298 0.996459 -0.0840801 158.419 93.2703)" fill="#EDDAAA" fill-opacity="0.38"/>
<ellipse cx="0.876411" cy="1.03767" rx="0.876411" ry="1.03767" transform="matrix(-0.118281 -0.99298 0.996459 -0.0840801 131.227 101.718)" fill="#EDDAAA" fill-opacity="0.38"/>
<ellipse cx="1.31462" cy="1.5565" rx="1.31462" ry="1.5565" transform="matrix(-0.118281 -0.99298 0.996459 -0.0840801 149.814 21.0389)" fill="#EDDAAA" fill-opacity="0.38"/>
<ellipse cx="836.238" cy="572.096" rx="1.03918" ry="0.874621" fill="#EDDAAA" fill-opacity="0.38"/>
<ellipse cx="1035.24" cy="526.179" rx="1.55877" ry="1.31193" fill="#EDDAAA" fill-opacity="0.38"/>
<ellipse cx="1004.07" cy="507.811" rx="1.55877" ry="1.31193" fill="#EDDAAA" fill-opacity="0.38"/>
<ellipse cx="978.605" cy="490.757" rx="3.11753" ry="2.62386" fill="#EDDAAA" fill-opacity="0.38"/>
<ellipse cx="905.862" cy="483.76" rx="1.03918" ry="0.874621" fill="#EDDAAA" fill-opacity="0.38"/>
<ellipse cx="943.793" cy="509.561" rx="0.519589" ry="0.437311" fill="#EDDAAA" fill-opacity="0.38"/>
<ellipse cx="958.341" cy="586.528" rx="3.63712" ry="3.06117" fill="#EDDAAA" fill-opacity="0.38"/>
<ellipse cx="826.885" cy="518.744" rx="2.07836" ry="1.74924" fill="#EDDAAA" fill-opacity="0.38"/>
<ellipse cx="885.079" cy="527.491" rx="1.03918" ry="0.874621" fill="#EDDAAA" fill-opacity="0.38"/>
<ellipse cx="836.238" cy="463.643" rx="2.07836" ry="1.74924" fill="#EDDAAA" fill-opacity="0.38"/>
<ellipse cx="900.667" cy="593.962" rx="1.03918" ry="0.874621" fill="#EDDAAA" fill-opacity="0.38"/>
<ellipse cx="934.96" cy="550.231" rx="1.03918" ry="0.874621" fill="#EDDAAA" fill-opacity="0.38"/>
<ellipse cx="927.685" cy="526.615" rx="1.03918" ry="0.874621" fill="#EDDAAA" fill-opacity="0.38"/>
<ellipse cx="1021.73" cy="550.668" rx="1.55877" ry="1.31193" fill="#EDDAAA" fill-opacity="0.38"/>
<ellipse cx="1002.51" cy="640.318" rx="1.03918" ry="0.874621" fill="#EDDAAA" fill-opacity="0.38"/>
<ellipse cx="1201.51" cy="594.4" rx="1.55877" ry="1.31193" fill="#EDDAAA" fill-opacity="0.38"/>
<ellipse cx="1170.33" cy="576.033" rx="1.55877" ry="1.31193" fill="#EDDAAA" fill-opacity="0.38"/>
<ellipse cx="1144.87" cy="558.978" rx="3.11753" ry="2.62386" fill="#EDDAAA" fill-opacity="0.38"/>
<ellipse cx="1072.13" cy="551.981" rx="1.03918" ry="0.874621" fill="#EDDAAA" fill-opacity="0.38"/>
<ellipse cx="1110.06" cy="577.783" rx="0.519589" ry="0.437311" fill="#EDDAAA" fill-opacity="0.38"/>
<ellipse cx="1124.61" cy="654.749" rx="3.63712" ry="3.06117" fill="#EDDAAA" fill-opacity="0.38"/>
<ellipse cx="993.154" cy="586.966" rx="2.07836" ry="1.74924" fill="#EDDAAA" fill-opacity="0.38"/>
<ellipse cx="1051.35" cy="595.712" rx="1.03918" ry="0.874621" fill="#EDDAAA" fill-opacity="0.38"/>
<ellipse cx="1002.51" cy="531.865" rx="2.07836" ry="1.74924" fill="#EDDAAA" fill-opacity="0.38"/>
<ellipse cx="1066.94" cy="662.184" rx="1.03918" ry="0.874621" fill="#EDDAAA" fill-opacity="0.38"/>
<ellipse cx="1101.23" cy="618.452" rx="1.03918" ry="0.874621" fill="#EDDAAA" fill-opacity="0.38"/>
<ellipse cx="1093.95" cy="594.837" rx="1.03918" ry="0.874621" fill="#EDDAAA" fill-opacity="0.38"/>
<ellipse cx="1188" cy="618.89" rx="1.55877" ry="1.31193" fill="#EDDAAA" fill-opacity="0.38"/>
<ellipse cx="1123.05" cy="698.917" rx="1.03918" ry="0.874621" fill="#EDDAAA" fill-opacity="0.38"/>
<ellipse cx="1322.05" cy="652.999" rx="1.55877" ry="1.31193" fill="#EDDAAA" fill-opacity="0.38"/>
<ellipse cx="1290.88" cy="634.632" rx="1.55877" ry="1.31193" fill="#EDDAAA" fill-opacity="0.38"/>
<ellipse cx="1265.42" cy="617.578" rx="3.11753" ry="2.62386" fill="#EDDAAA" fill-opacity="0.38"/>
<ellipse cx="1192.68" cy="610.58" rx="1.03918" ry="0.874621" fill="#EDDAAA" fill-opacity="0.38"/>
<ellipse cx="1230.61" cy="636.382" rx="0.519589" ry="0.437311" fill="#EDDAAA" fill-opacity="0.38"/>
<ellipse cx="1245.15" cy="713.349" rx="3.63712" ry="3.06117" fill="#EDDAAA" fill-opacity="0.38"/>
<ellipse cx="1113.7" cy="645.565" rx="2.07836" ry="1.74924" fill="#EDDAAA" fill-opacity="0.38"/>
<ellipse cx="1171.89" cy="654.311" rx="1.03918" ry="0.874621" fill="#EDDAAA" fill-opacity="0.38"/>
<ellipse cx="1123.05" cy="590.464" rx="2.07836" ry="1.74924" fill="#EDDAAA" fill-opacity="0.38"/>
<ellipse cx="1187.48" cy="720.783" rx="1.03918" ry="0.874621" fill="#EDDAAA" fill-opacity="0.38"/>
<ellipse cx="1221.77" cy="677.052" rx="1.03918" ry="0.874621" fill="#EDDAAA" fill-opacity="0.38"/>
<ellipse cx="1214.5" cy="653.436" rx="1.03918" ry="0.874621" fill="#EDDAAA" fill-opacity="0.38"/>
<ellipse cx="1308.54" cy="677.489" rx="1.55877" ry="1.31193" fill="#EDDAAA" fill-opacity="0.38"/>
<ellipse cx="210.652" cy="308.836" rx="1.03918" ry="0.874621" fill="#EDDAAA" fill-opacity="0.38"/>
<ellipse cx="409.655" cy="262.918" rx="1.55877" ry="1.31193" fill="#EDDAAA" fill-opacity="0.38"/>
<ellipse cx="378.48" cy="244.551" rx="1.55877" ry="1.31193" fill="#EDDAAA" fill-opacity="0.38"/>
<ellipse cx="353.02" cy="227.496" rx="3.11753" ry="2.62386" fill="#EDDAAA" fill-opacity="0.38"/>
<ellipse cx="280.277" cy="220.499" rx="1.03918" ry="0.874621" fill="#EDDAAA" fill-opacity="0.38"/>
<ellipse cx="318.208" cy="246.301" rx="0.519589" ry="0.437311" fill="#EDDAAA" fill-opacity="0.38"/>
<ellipse cx="332.756" cy="323.267" rx="3.63712" ry="3.06117" fill="#EDDAAA" fill-opacity="0.38"/>
<ellipse cx="201.3" cy="255.484" rx="2.07836" ry="1.74924" fill="#EDDAAA" fill-opacity="0.38"/>
<ellipse cx="259.494" cy="264.23" rx="1.03918" ry="0.874621" fill="#EDDAAA" fill-opacity="0.38"/>
<ellipse cx="210.653" cy="200.383" rx="2.07836" ry="1.74924" fill="#EDDAAA" fill-opacity="0.38"/>
<ellipse cx="275.082" cy="330.702" rx="1.03918" ry="0.874621" fill="#EDDAAA" fill-opacity="0.38"/>
<ellipse cx="309.374" cy="286.97" rx="1.03918" ry="0.874621" fill="#EDDAAA" fill-opacity="0.38"/>
<ellipse cx="302.101" cy="263.356" rx="1.03918" ry="0.874621" fill="#EDDAAA" fill-opacity="0.38"/>
<ellipse cx="396.146" cy="287.408" rx="1.55877" ry="1.31193" fill="#EDDAAA" fill-opacity="0.38"/>
<ellipse cx="376.921" cy="377.057" rx="1.03918" ry="0.874621" fill="#EDDAAA" fill-opacity="0.38"/>
<ellipse cx="575.923" cy="331.139" rx="1.55877" ry="1.31193" fill="#EDDAAA" fill-opacity="0.38"/>
<ellipse cx="544.748" cy="312.772" rx="1.55877" ry="1.31193" fill="#EDDAAA" fill-opacity="0.38"/>
<ellipse cx="519.288" cy="295.716" rx="3.11753" ry="2.62386" fill="#EDDAAA" fill-opacity="0.38"/>
<ellipse cx="446.546" cy="288.72" rx="1.03918" ry="0.874621" fill="#EDDAAA" fill-opacity="0.38"/>
<ellipse cx="484.476" cy="314.521" rx="0.519589" ry="0.437311" fill="#EDDAAA" fill-opacity="0.38"/>
<ellipse cx="499.025" cy="391.487" rx="3.63712" ry="3.06117" fill="#EDDAAA" fill-opacity="0.38"/>
<ellipse cx="367.569" cy="323.705" rx="2.07836" ry="1.74924" fill="#EDDAAA" fill-opacity="0.38"/>
<ellipse cx="425.763" cy="332.451" rx="1.03918" ry="0.874621" fill="#EDDAAA" fill-opacity="0.38"/>
<ellipse cx="376.921" cy="268.603" rx="2.07836" ry="1.74924" fill="#EDDAAA" fill-opacity="0.38"/>
<ellipse cx="441.35" cy="398.922" rx="1.03918" ry="0.874621" fill="#EDDAAA" fill-opacity="0.38"/>
<ellipse cx="475.643" cy="355.191" rx="1.03918" ry="0.874621" fill="#EDDAAA" fill-opacity="0.38"/>
<ellipse cx="468.369" cy="331.576" rx="1.03918" ry="0.874621" fill="#EDDAAA" fill-opacity="0.38"/>
<ellipse cx="562.414" cy="355.628" rx="1.55877" ry="1.31193" fill="#EDDAAA" fill-opacity="0.38"/>
<ellipse cx="497.465" cy="435.656" rx="1.03918" ry="0.874621" fill="#EDDAAA" fill-opacity="0.38"/>
<ellipse cx="696.467" cy="389.738" rx="1.55877" ry="1.31193" fill="#EDDAAA" fill-opacity="0.38"/>
<ellipse cx="665.292" cy="371.371" rx="1.55877" ry="1.31193" fill="#EDDAAA" fill-opacity="0.38"/>
<ellipse cx="639.832" cy="354.316" rx="3.11753" ry="2.62386" fill="#EDDAAA" fill-opacity="0.38"/>
<ellipse cx="567.09" cy="347.319" rx="1.03918" ry="0.874621" fill="#EDDAAA" fill-opacity="0.38"/>
<ellipse cx="605.02" cy="373.12" rx="0.519589" ry="0.437311" fill="#EDDAAA" fill-opacity="0.38"/>
<ellipse cx="619.569" cy="450.087" rx="3.63712" ry="3.06117" fill="#EDDAAA" fill-opacity="0.38"/>
<ellipse cx="488.113" cy="382.304" rx="2.07836" ry="1.74924" fill="#EDDAAA" fill-opacity="0.38"/>
<ellipse cx="546.307" cy="391.05" rx="1.03918" ry="0.874621" fill="#EDDAAA" fill-opacity="0.38"/>
<ellipse cx="497.465" cy="327.203" rx="2.07836" ry="1.74924" fill="#EDDAAA" fill-opacity="0.38"/>
<ellipse cx="561.895" cy="457.521" rx="1.03918" ry="0.874621" fill="#EDDAAA" fill-opacity="0.38"/>
<ellipse cx="596.187" cy="413.79" rx="1.03918" ry="0.874621" fill="#EDDAAA" fill-opacity="0.38"/>
<ellipse cx="588.913" cy="390.176" rx="1.03918" ry="0.874621" fill="#EDDAAA" fill-opacity="0.38"/>
<ellipse cx="682.958" cy="414.227" rx="1.55877" ry="1.31193" fill="#EDDAAA" fill-opacity="0.38"/>
<ellipse cx="642.951" cy="509.999" rx="1.03918" ry="0.874621" fill="#EDDAAA" fill-opacity="0.38"/>
<ellipse cx="841.953" cy="464.081" rx="1.55877" ry="1.31193" fill="#EDDAAA" fill-opacity="0.38"/>
<ellipse cx="810.778" cy="445.715" rx="1.55877" ry="1.31193" fill="#EDDAAA" fill-opacity="0.38"/>
<ellipse cx="785.318" cy="428.659" rx="3.11753" ry="2.62386" fill="#EDDAAA" fill-opacity="0.38"/>
<ellipse cx="712.576" cy="421.662" rx="1.03918" ry="0.874621" fill="#EDDAAA" fill-opacity="0.38"/>
<ellipse cx="750.505" cy="447.464" rx="0.519589" ry="0.437311" fill="#EDDAAA" fill-opacity="0.38"/>
<ellipse cx="765.054" cy="524.43" rx="3.63712" ry="3.06117" fill="#EDDAAA" fill-opacity="0.38"/>
<ellipse cx="633.598" cy="456.647" rx="2.07836" ry="1.74924" fill="#EDDAAA" fill-opacity="0.38"/>
<ellipse cx="691.792" cy="465.393" rx="1.03918" ry="0.874621" fill="#EDDAAA" fill-opacity="0.38"/>
<ellipse cx="642.95" cy="401.546" rx="2.07836" ry="1.74924" fill="#EDDAAA" fill-opacity="0.38"/>
<ellipse cx="707.38" cy="531.865" rx="1.03918" ry="0.874621" fill="#EDDAAA" fill-opacity="0.38"/>
<ellipse cx="741.672" cy="488.133" rx="1.03918" ry="0.874621" fill="#EDDAAA" fill-opacity="0.38"/>
<ellipse cx="734.398" cy="464.519" rx="1.03918" ry="0.874621" fill="#EDDAAA" fill-opacity="0.38"/>
<ellipse cx="828.444" cy="488.571" rx="1.55877" ry="1.31193" fill="#EDDAAA" fill-opacity="0.38"/>
<ellipse cx="809.219" cy="578.219" rx="1.03918" ry="0.874621" fill="#EDDAAA" fill-opacity="0.38"/>
<ellipse cx="1008.22" cy="532.302" rx="1.55877" ry="1.31193" fill="#EDDAAA" fill-opacity="0.38"/>
<ellipse cx="977.046" cy="513.934" rx="1.55877" ry="1.31193" fill="#EDDAAA" fill-opacity="0.38"/>
<ellipse cx="951.586" cy="496.88" rx="3.11753" ry="2.62386" fill="#EDDAAA" fill-opacity="0.38"/>
<ellipse cx="878.844" cy="489.883" rx="1.03918" ry="0.874621" fill="#EDDAAA" fill-opacity="0.38"/>
<ellipse cx="916.774" cy="515.684" rx="0.519589" ry="0.437311" fill="#EDDAAA" fill-opacity="0.38"/>
<ellipse cx="931.323" cy="592.651" rx="3.63712" ry="3.06117" fill="#EDDAAA" fill-opacity="0.38"/>
<ellipse cx="799.866" cy="524.868" rx="2.07836" ry="1.74924" fill="#EDDAAA" fill-opacity="0.38"/>
<ellipse cx="858.061" cy="533.614" rx="1.03918" ry="0.874621" fill="#EDDAAA" fill-opacity="0.38"/>
<ellipse cx="809.219" cy="469.766" rx="2.07836" ry="1.74924" fill="#EDDAAA" fill-opacity="0.38"/>
<ellipse cx="873.648" cy="600.085" rx="1.03918" ry="0.874621" fill="#EDDAAA" fill-opacity="0.38"/>
<ellipse cx="907.941" cy="556.354" rx="1.03918" ry="0.874621" fill="#EDDAAA" fill-opacity="0.38"/>
<ellipse cx="900.667" cy="532.739" rx="1.03918" ry="0.874621" fill="#EDDAAA" fill-opacity="0.38"/>
<ellipse cx="994.712" cy="556.791" rx="1.55877" ry="1.31193" fill="#EDDAAA" fill-opacity="0.38"/>
<ellipse cx="929.763" cy="636.818" rx="1.03918" ry="0.874621" fill="#EDDAAA" fill-opacity="0.38"/>
<ellipse cx="1128.77" cy="590.901" rx="1.55877" ry="1.31193" fill="#EDDAAA" fill-opacity="0.38"/>
<ellipse cx="1097.59" cy="572.534" rx="1.55877" ry="1.31193" fill="#EDDAAA" fill-opacity="0.38"/>
<ellipse cx="1072.13" cy="555.479" rx="3.11753" ry="2.62386" fill="#EDDAAA" fill-opacity="0.38"/>
<ellipse cx="999.388" cy="548.482" rx="1.03918" ry="0.874621" fill="#EDDAAA" fill-opacity="0.38"/>
<ellipse cx="1037.32" cy="574.283" rx="0.519589" ry="0.437311" fill="#EDDAAA" fill-opacity="0.38"/>
<ellipse cx="1051.87" cy="651.25" rx="3.63712" ry="3.06117" fill="#EDDAAA" fill-opacity="0.38"/>
<ellipse cx="920.411" cy="583.467" rx="2.07836" ry="1.74924" fill="#EDDAAA" fill-opacity="0.38"/>
<ellipse cx="978.605" cy="592.213" rx="1.03918" ry="0.874621" fill="#EDDAAA" fill-opacity="0.38"/>
<ellipse cx="929.763" cy="528.366" rx="2.07836" ry="1.74924" fill="#EDDAAA" fill-opacity="0.38"/>
<ellipse cx="994.193" cy="658.684" rx="1.03918" ry="0.874621" fill="#EDDAAA" fill-opacity="0.38"/>
<ellipse cx="1028.49" cy="614.953" rx="1.03918" ry="0.874621" fill="#EDDAAA" fill-opacity="0.38"/>
<ellipse cx="1021.21" cy="591.338" rx="1.03918" ry="0.874621" fill="#EDDAAA" fill-opacity="0.38"/>
<ellipse cx="1115.26" cy="615.39" rx="1.55877" ry="1.31193" fill="#EDDAAA" fill-opacity="0.38"/>
<ellipse cx="33.9923" cy="296.591" rx="1.03918" ry="0.874621" fill="#EDDAAA" fill-opacity="0.38"/>
<ellipse cx="232.995" cy="250.674" rx="1.55877" ry="1.31193" fill="#EDDAAA" fill-opacity="0.38"/>
<ellipse cx="201.82" cy="232.306" rx="1.55877" ry="1.31193" fill="#EDDAAA" fill-opacity="0.38"/>
<ellipse cx="176.36" cy="215.251" rx="3.11753" ry="2.62386" fill="#EDDAAA" fill-opacity="0.38"/>
<ellipse cx="103.617" cy="208.254" rx="1.03918" ry="0.874621" fill="#EDDAAA" fill-opacity="0.38"/>
<ellipse cx="141.547" cy="234.056" rx="0.519589" ry="0.437311" fill="#EDDAAA" fill-opacity="0.38"/>
<ellipse cx="156.096" cy="311.022" rx="3.63712" ry="3.06117" fill="#EDDAAA" fill-opacity="0.38"/>
<ellipse cx="24.6399" cy="243.239" rx="2.07836" ry="1.74924" fill="#EDDAAA" fill-opacity="0.38"/>
<ellipse cx="82.8341" cy="251.985" rx="1.03918" ry="0.874621" fill="#EDDAAA" fill-opacity="0.38"/>
<ellipse cx="33.9925" cy="188.138" rx="2.07836" ry="1.74924" fill="#EDDAAA" fill-opacity="0.38"/>
<ellipse cx="98.422" cy="318.457" rx="1.03918" ry="0.874621" fill="#EDDAAA" fill-opacity="0.38"/>
<ellipse cx="132.714" cy="274.725" rx="1.03918" ry="0.874621" fill="#EDDAAA" fill-opacity="0.38"/>
<ellipse cx="125.441" cy="251.111" rx="1.03918" ry="0.874621" fill="#EDDAAA" fill-opacity="0.38"/>
<ellipse cx="219.486" cy="275.163" rx="1.55877" ry="1.31193" fill="#EDDAAA" fill-opacity="0.38"/>
<ellipse cx="441.351" cy="203.882" rx="1.03918" ry="0.874621" fill="#EDDAAA" fill-opacity="0.38"/>
<ellipse cx="640.353" cy="157.964" rx="1.55877" ry="1.31193" fill="#EDDAAA" fill-opacity="0.38"/>
<ellipse cx="609.178" cy="139.597" rx="1.55877" ry="1.31193" fill="#EDDAAA" fill-opacity="0.38"/>
<ellipse cx="583.718" cy="122.542" rx="3.11753" ry="2.62386" fill="#EDDAAA" fill-opacity="0.38"/>
<ellipse cx="510.976" cy="115.545" rx="1.03918" ry="0.874621" fill="#EDDAAA" fill-opacity="0.38"/>
<ellipse cx="548.905" cy="141.346" rx="0.519589" ry="0.437311" fill="#EDDAAA" fill-opacity="0.38"/>
<ellipse cx="563.454" cy="218.313" rx="3.63712" ry="3.06117" fill="#EDDAAA" fill-opacity="0.38"/>
<ellipse cx="431.998" cy="150.53" rx="2.07836" ry="1.74924" fill="#EDDAAA" fill-opacity="0.38"/>
<ellipse cx="490.192" cy="159.276" rx="1.03918" ry="0.874621" fill="#EDDAAA" fill-opacity="0.38"/>
<ellipse cx="441.351" cy="95.4283" rx="2.07836" ry="1.74924" fill="#EDDAAA" fill-opacity="0.38"/>
<ellipse cx="505.779" cy="225.747" rx="1.03918" ry="0.874621" fill="#EDDAAA" fill-opacity="0.38"/>
<ellipse cx="540.072" cy="182.016" rx="1.03918" ry="0.874621" fill="#EDDAAA" fill-opacity="0.38"/>
<ellipse cx="532.799" cy="158.401" rx="1.03918" ry="0.874621" fill="#EDDAAA" fill-opacity="0.38"/>
<ellipse cx="626.844" cy="182.453" rx="1.55877" ry="1.31193" fill="#EDDAAA" fill-opacity="0.38"/>
<ellipse cx="664.774" cy="473.264" rx="1.03918" ry="0.874621" fill="#EDDAAA" fill-opacity="0.38"/>
<ellipse cx="863.776" cy="427.347" rx="1.55877" ry="1.31193" fill="#EDDAAA" fill-opacity="0.38"/>
<ellipse cx="832.601" cy="408.98" rx="1.55877" ry="1.31193" fill="#EDDAAA" fill-opacity="0.38"/>
<ellipse cx="807.141" cy="391.925" rx="3.11753" ry="2.62386" fill="#EDDAAA" fill-opacity="0.38"/>
<ellipse cx="734.398" cy="384.928" rx="1.03918" ry="0.874621" fill="#EDDAAA" fill-opacity="0.38"/>
<ellipse cx="772.328" cy="410.729" rx="0.519589" ry="0.437311" fill="#EDDAAA" fill-opacity="0.38"/>
<ellipse cx="786.877" cy="487.696" rx="3.63712" ry="3.06117" fill="#EDDAAA" fill-opacity="0.38"/>
<ellipse cx="655.421" cy="419.913" rx="2.07836" ry="1.74924" fill="#EDDAAA" fill-opacity="0.38"/>
<ellipse cx="713.615" cy="428.659" rx="1.03918" ry="0.874621" fill="#EDDAAA" fill-opacity="0.38"/>
<ellipse cx="664.773" cy="364.812" rx="2.07836" ry="1.74924" fill="#EDDAAA" fill-opacity="0.38"/>
<ellipse cx="729.202" cy="495.13" rx="1.03918" ry="0.874621" fill="#EDDAAA" fill-opacity="0.38"/>
<ellipse cx="763.495" cy="451.399" rx="1.03918" ry="0.874621" fill="#EDDAAA" fill-opacity="0.38"/>
<ellipse cx="756.221" cy="427.784" rx="1.03918" ry="0.874621" fill="#EDDAAA" fill-opacity="0.38"/>
<ellipse cx="850.267" cy="451.837" rx="1.55877" ry="1.31193" fill="#EDDAAA" fill-opacity="0.38"/>
<ellipse cx="1239.44" cy="773.26" rx="1.03918" ry="0.874621" fill="#EDDAAA" fill-opacity="0.38"/>
<ellipse cx="1438.44" cy="727.342" rx="1.55877" ry="1.31193" fill="#EDDAAA" fill-opacity="0.38"/>
<ellipse cx="1407.27" cy="708.975" rx="1.55877" ry="1.31193" fill="#EDDAAA" fill-opacity="0.38"/>
<ellipse cx="1381.81" cy="691.92" rx="3.11753" ry="2.62386" fill="#EDDAAA" fill-opacity="0.38"/>
<ellipse cx="1309.06" cy="684.923" rx="1.03918" ry="0.874621" fill="#EDDAAA" fill-opacity="0.38"/>
<ellipse cx="1346.99" cy="710.725" rx="0.519589" ry="0.437311" fill="#EDDAAA" fill-opacity="0.38"/>
<ellipse cx="1361.54" cy="787.691" rx="3.63712" ry="3.06117" fill="#EDDAAA" fill-opacity="0.38"/>
<ellipse cx="1230.09" cy="719.908" rx="2.07836" ry="1.74924" fill="#EDDAAA" fill-opacity="0.38"/>
<ellipse cx="1288.28" cy="728.654" rx="1.03918" ry="0.874621" fill="#EDDAAA" fill-opacity="0.38"/>
<ellipse cx="1239.44" cy="664.807" rx="2.07836" ry="1.74924" fill="#EDDAAA" fill-opacity="0.38"/>
<ellipse cx="1303.87" cy="795.126" rx="1.03918" ry="0.874621" fill="#EDDAAA" fill-opacity="0.38"/>
<ellipse cx="1338.16" cy="751.395" rx="1.03918" ry="0.874621" fill="#EDDAAA" fill-opacity="0.38"/>
<ellipse cx="1330.89" cy="727.779" rx="1.03918" ry="0.874621" fill="#EDDAAA" fill-opacity="0.38"/>
<ellipse cx="1424.93" cy="751.832" rx="1.55877" ry="1.31193" fill="#EDDAAA" fill-opacity="0.38"/>
<ellipse cx="466.29" cy="497.754" rx="1.03918" ry="0.874621" fill="#EDDAAA" fill-opacity="0.38"/>
<ellipse cx="665.293" cy="451.835" rx="1.55877" ry="1.31193" fill="#EDDAAA" fill-opacity="0.38"/>
<ellipse cx="634.118" cy="433.469" rx="1.55877" ry="1.31193" fill="#EDDAAA" fill-opacity="0.38"/>
<ellipse cx="608.658" cy="416.413" rx="3.11753" ry="2.62386" fill="#EDDAAA" fill-opacity="0.38"/>
<ellipse cx="535.915" cy="409.416" rx="1.03918" ry="0.874621" fill="#EDDAAA" fill-opacity="0.38"/>
<ellipse cx="573.845" cy="435.218" rx="0.519589" ry="0.437311" fill="#EDDAAA" fill-opacity="0.38"/>
<ellipse cx="588.394" cy="512.184" rx="3.63712" ry="3.06117" fill="#EDDAAA" fill-opacity="0.38"/>
<ellipse cx="456.938" cy="444.401" rx="2.07836" ry="1.74924" fill="#EDDAAA" fill-opacity="0.38"/>
<ellipse cx="515.132" cy="453.147" rx="1.03918" ry="0.874621" fill="#EDDAAA" fill-opacity="0.38"/>
<ellipse cx="466.29" cy="389.3" rx="2.07836" ry="1.74924" fill="#EDDAAA" fill-opacity="0.38"/>
<ellipse cx="530.72" cy="519.619" rx="1.03918" ry="0.874621" fill="#EDDAAA" fill-opacity="0.38"/>
<ellipse cx="565.012" cy="475.888" rx="1.03918" ry="0.874621" fill="#EDDAAA" fill-opacity="0.38"/>
<ellipse cx="557.738" cy="452.273" rx="1.03918" ry="0.874621" fill="#EDDAAA" fill-opacity="0.38"/>
<ellipse cx="651.784" cy="476.325" rx="1.55877" ry="1.31193" fill="#EDDAAA" fill-opacity="0.38"/>
<g filter="url(#filter0_f_114_997)">
<ellipse cx="533.837" cy="428.659" rx="1.03918" ry="0.874621" fill="url(#paint0_linear_114_997)"/>
<ellipse cx="732.84" cy="382.741" rx="1.55877" ry="1.31193" fill="url(#paint1_linear_114_997)"/>
<ellipse cx="701.664" cy="364.374" rx="1.55877" ry="1.31193" fill="url(#paint2_linear_114_997)"/>
<ellipse cx="676.204" cy="347.319" rx="3.11753" ry="2.62386" fill="url(#paint3_linear_114_997)"/>
<ellipse cx="603.462" cy="340.322" rx="1.03918" ry="0.874621" fill="url(#paint4_linear_114_997)"/>
<ellipse cx="641.392" cy="366.124" rx="0.519589" ry="0.437311" fill="url(#paint5_linear_114_997)"/>
<ellipse cx="655.94" cy="443.09" rx="3.63712" ry="3.06117" fill="url(#paint6_linear_114_997)"/>
<ellipse cx="524.485" cy="375.307" rx="2.07836" ry="1.74924" fill="url(#paint7_linear_114_997)"/>
<ellipse cx="582.678" cy="384.053" rx="1.03918" ry="0.874621" fill="url(#paint8_linear_114_997)"/>
<ellipse cx="533.837" cy="320.206" rx="2.07836" ry="1.74924" fill="url(#paint9_linear_114_997)"/>
<ellipse cx="598.266" cy="450.524" rx="1.03918" ry="0.874621" fill="url(#paint10_linear_114_997)"/>
<ellipse cx="632.559" cy="406.793" rx="1.03918" ry="0.874621" fill="url(#paint11_linear_114_997)"/>
<ellipse cx="625.285" cy="383.179" rx="1.03918" ry="0.874621" fill="url(#paint12_linear_114_997)"/>
<ellipse cx="719.33" cy="407.23" rx="1.55877" ry="1.31193" fill="url(#paint13_linear_114_997)"/>
</g>
<g filter="url(#filter1_f_114_997)">
<ellipse cx="1044.07" cy="669.179" rx="1.03918" ry="0.874621" fill="#EDDAAA"/>
<ellipse cx="1243.08" cy="623.262" rx="1.55877" ry="1.31193" fill="#EDDAAA"/>
<ellipse cx="1211.9" cy="604.894" rx="1.55877" ry="1.31193" fill="#EDDAAA"/>
<ellipse cx="1186.44" cy="587.84" rx="3.11753" ry="2.62386" fill="#EDDAAA"/>
<ellipse cx="1113.7" cy="580.843" rx="1.03918" ry="0.874621" fill="#EDDAAA"/>
<ellipse cx="1151.63" cy="606.644" rx="0.519589" ry="0.437311" fill="#EDDAAA"/>
<ellipse cx="1166.18" cy="683.611" rx="3.63712" ry="3.06117" fill="#EDDAAA"/>
<ellipse cx="1034.72" cy="615.828" rx="2.07836" ry="1.74924" fill="#EDDAAA"/>
<ellipse cx="1092.91" cy="624.574" rx="1.03918" ry="0.874621" fill="#EDDAAA"/>
<ellipse cx="1044.07" cy="560.726" rx="2.07836" ry="1.74924" fill="#EDDAAA"/>
<ellipse cx="1108.5" cy="691.045" rx="1.03918" ry="0.874621" fill="#EDDAAA"/>
<ellipse cx="1142.8" cy="647.314" rx="1.03918" ry="0.874621" fill="#EDDAAA"/>
<ellipse cx="1135.52" cy="623.699" rx="1.03918" ry="0.874621" fill="#EDDAAA"/>
<ellipse cx="1229.57" cy="647.751" rx="1.55877" ry="1.31193" fill="#EDDAAA"/>
</g>
<g filter="url(#filter2_f_114_997)">
<ellipse cx="345.746" cy="229.245" rx="1.03918" ry="0.874621" fill="#EDDAAA"/>
<ellipse cx="544.749" cy="183.328" rx="1.55877" ry="1.31193" fill="#EDDAAA"/>
<ellipse cx="513.573" cy="164.961" rx="1.55877" ry="1.31193" fill="#EDDAAA"/>
<ellipse cx="488.114" cy="147.906" rx="3.11753" ry="2.62386" fill="#EDDAAA"/>
<ellipse cx="415.371" cy="140.909" rx="1.03918" ry="0.874621" fill="#EDDAAA"/>
<ellipse cx="453.301" cy="166.71" rx="0.519589" ry="0.437311" fill="#EDDAAA"/>
<ellipse cx="467.85" cy="243.677" rx="3.63712" ry="3.06117" fill="#EDDAAA"/>
<ellipse cx="336.394" cy="175.894" rx="2.07836" ry="1.74924" fill="#EDDAAA"/>
<ellipse cx="394.588" cy="184.64" rx="1.03918" ry="0.874621" fill="#EDDAAA"/>
<ellipse cx="345.746" cy="120.792" rx="2.07836" ry="1.74924" fill="#EDDAAA"/>
<ellipse cx="410.175" cy="251.111" rx="1.03918" ry="0.874621" fill="#EDDAAA"/>
<ellipse cx="444.468" cy="207.38" rx="1.03918" ry="0.874621" fill="#EDDAAA"/>
<ellipse cx="437.194" cy="183.765" rx="1.03918" ry="0.874621" fill="#EDDAAA"/>
<ellipse cx="531.239" cy="207.818" rx="1.55877" ry="1.31193" fill="#EDDAAA"/>
</g>
<g filter="url(#filter3_f_114_997)">
<ellipse cx="221.044" cy="197.759" rx="1.03918" ry="0.874621" fill="#EDDAAA"/>
<ellipse cx="420.047" cy="151.842" rx="1.55877" ry="1.31193" fill="#EDDAAA"/>
<ellipse cx="388.871" cy="133.475" rx="1.55877" ry="1.31193" fill="#EDDAAA"/>
<ellipse cx="363.411" cy="116.419" rx="3.11753" ry="2.62386" fill="#EDDAAA"/>
<ellipse cx="290.669" cy="109.423" rx="1.03918" ry="0.874621" fill="#EDDAAA"/>
<ellipse cx="328.6" cy="135.224" rx="0.519589" ry="0.437311" fill="#EDDAAA"/>
<ellipse cx="343.148" cy="212.19" rx="3.63712" ry="3.06117" fill="#EDDAAA"/>
<ellipse cx="211.692" cy="144.408" rx="2.07836" ry="1.74924" fill="#EDDAAA"/>
<ellipse cx="269.886" cy="153.154" rx="1.03918" ry="0.874621" fill="#EDDAAA"/>
<ellipse cx="221.044" cy="89.3063" rx="2.07836" ry="1.74924" fill="#EDDAAA"/>
<ellipse cx="285.474" cy="219.624" rx="1.03918" ry="0.874621" fill="#EDDAAA"/>
<ellipse cx="319.767" cy="175.894" rx="1.03918" ry="0.874621" fill="#EDDAAA"/>
<ellipse cx="312.492" cy="152.279" rx="1.03918" ry="0.874621" fill="#EDDAAA"/>
<ellipse cx="406.537" cy="176.331" rx="1.55877" ry="1.31193" fill="#EDDAAA"/>
</g>
<g filter="url(#filter4_f_114_997)">
<ellipse cx="130.636" cy="126.914" rx="1.03918" ry="0.874621" fill="#EDDAAA"/>
<ellipse cx="329.639" cy="80.9971" rx="1.55877" ry="1.31193" fill="#EDDAAA"/>
<ellipse cx="298.463" cy="62.6297" rx="1.55877" ry="1.31193" fill="#EDDAAA"/>
<ellipse cx="273.003" cy="45.5747" rx="3.11753" ry="2.62386" fill="#EDDAAA"/>
<ellipse cx="200.261" cy="38.5775" rx="1.03918" ry="0.874621" fill="#EDDAAA"/>
<ellipse cx="238.19" cy="64.3791" rx="0.519589" ry="0.437311" fill="#EDDAAA"/>
<ellipse cx="252.74" cy="141.346" rx="3.63712" ry="3.06117" fill="#EDDAAA"/>
<ellipse cx="121.283" cy="73.5625" rx="2.07836" ry="1.74924" fill="#EDDAAA"/>
<ellipse cx="179.478" cy="82.3086" rx="1.03918" ry="0.874621" fill="#EDDAAA"/>
<ellipse cx="130.636" cy="18.4615" rx="2.07836" ry="1.74924" fill="#EDDAAA"/>
<ellipse cx="195.065" cy="148.78" rx="1.03918" ry="0.874621" fill="#EDDAAA"/>
<ellipse cx="229.358" cy="105.049" rx="1.03918" ry="0.874621" fill="#EDDAAA"/>
<ellipse cx="222.084" cy="81.4339" rx="1.03918" ry="0.874621" fill="#EDDAAA"/>
<ellipse cx="316.129" cy="105.486" rx="1.55877" ry="1.31193" fill="#EDDAAA"/>
</g>
<g filter="url(#filter5_f_114_997)">
<ellipse cx="1.02811" cy="0.887607" rx="1.02811" ry="0.887607" transform="matrix(0.973351 -0.229319 0.315594 0.948894 45.0225 151.019)" fill="#EDDAAA"/>
<ellipse cx="1.54216" cy="1.33141" rx="1.54216" ry="1.33141" transform="matrix(0.973351 -0.229319 0.315594 0.948894 221.312 61.3495)" fill="#EDDAAA"/>
<ellipse cx="1.54216" cy="1.33141" rx="1.54216" ry="1.33141" transform="matrix(0.973351 -0.229319 0.315594 0.948894 185.408 50.7352)" fill="#EDDAAA"/>
<ellipse cx="3.08432" cy="2.66282" rx="3.08432" ry="2.66282" transform="matrix(0.973351 -0.229319 0.315594 0.948894 153.507 39.1777)" fill="#EDDAAA"/>
<ellipse cx="1.02811" cy="0.887607" rx="1.02811" ry="0.887607" transform="matrix(0.973351 -0.229319 0.315594 0.948894 83.7773 50.1562)" fill="#EDDAAA"/>
<ellipse cx="0.514054" cy="0.443803" rx="0.514054" ry="0.443803" transform="matrix(0.973351 -0.229319 0.315594 0.948894 129.208 66.7004)" fill="#EDDAAA"/>
<ellipse cx="3.59838" cy="3.10662" rx="3.59838" ry="3.10662" transform="matrix(0.973351 -0.229319 0.315594 0.948894 164.025 135.698)" fill="#EDDAAA"/>
<ellipse cx="2.05622" cy="1.77521" rx="2.05622" ry="1.77521" transform="matrix(0.973351 -0.229319 0.315594 0.948894 17.6475 101.158)" fill="#EDDAAA"/>
<ellipse cx="1.02811" cy="0.887607" rx="1.02811" ry="0.887607" transform="matrix(0.973351 -0.229319 0.315594 0.948894 77.7695 96.9839)" fill="#EDDAAA"/>
<ellipse cx="2.05622" cy="1.77521" rx="2.05622" ry="1.77521" transform="matrix(0.973351 -0.229319 0.315594 0.948894 9.00684 45.9742)" fill="#EDDAAA"/>
<ellipse cx="1.02811" cy="0.887607" rx="1.02811" ry="0.887607" transform="matrix(0.973351 -0.229319 0.315594 0.948894 114.07 157.458)" fill="#EDDAAA"/>
<ellipse cx="1.02811" cy="0.887607" rx="1.02811" ry="0.887607" transform="matrix(0.973351 -0.229319 0.315594 0.948894 133.087 107.565)" fill="#EDDAAA"/>
<ellipse cx="1.02811" cy="0.887607" rx="1.02811" ry="0.887607" transform="matrix(0.973351 -0.229319 0.315594 0.948894 118.519 86.4755)" fill="#EDDAAA"/>
<ellipse cx="1.54216" cy="1.33141" rx="1.54216" ry="1.33141" transform="matrix(0.973351 -0.229319 0.315594 0.948894 216.145 87.997)" fill="#EDDAAA"/>
</g>
<defs>
<filter id="filter0_f_114_997" x="518.406" y="314.457" width="219.992" height="140.942" filterUnits="userSpaceOnUse" color-interpolation-filters="sRGB">
<feFlood flood-opacity="0" result="BackgroundImageFix"/>
<feBlend mode="normal" in="SourceGraphic" in2="BackgroundImageFix" result="shape"/>
<feGaussianBlur stdDeviation="2" result="effect1_foregroundBlur_114_997"/>
</filter>
<filter id="filter1_f_114_997" x="1028.64" y="554.977" width="219.992" height="140.943" filterUnits="userSpaceOnUse" color-interpolation-filters="sRGB">
<feFlood flood-opacity="0" result="BackgroundImageFix"/>
<feBlend mode="normal" in="SourceGraphic" in2="BackgroundImageFix" result="shape"/>
<feGaussianBlur stdDeviation="2" result="effect1_foregroundBlur_114_997"/>
</filter>
<filter id="filter2_f_114_997" x="330.315" y="115.043" width="219.993" height="140.942" filterUnits="userSpaceOnUse" color-interpolation-filters="sRGB">
<feFlood flood-opacity="0" result="BackgroundImageFix"/>
<feBlend mode="normal" in="SourceGraphic" in2="BackgroundImageFix" result="shape"/>
<feGaussianBlur stdDeviation="2" result="effect1_foregroundBlur_114_997"/>
</filter>
<filter id="filter3_f_114_997" x="205.613" y="83.5571" width="219.993" height="140.942" filterUnits="userSpaceOnUse" color-interpolation-filters="sRGB">
<feFlood flood-opacity="0" result="BackgroundImageFix"/>
<feBlend mode="normal" in="SourceGraphic" in2="BackgroundImageFix" result="shape"/>
<feGaussianBlur stdDeviation="2" result="effect1_foregroundBlur_114_997"/>
</filter>
<filter id="filter4_f_114_997" x="115.205" y="12.7122" width="219.993" height="140.942" filterUnits="userSpaceOnUse" color-interpolation-filters="sRGB">
<feFlood flood-opacity="0" result="BackgroundImageFix"/>
<feBlend mode="normal" in="SourceGraphic" in2="BackgroundImageFix" result="shape"/>
<feGaussianBlur stdDeviation="2" result="effect1_foregroundBlur_114_997"/>
</filter>
<filter id="filter5_f_114_997" x="5.48962" y="34.3726" width="223.302" height="128.567" filterUnits="userSpaceOnUse" color-interpolation-filters="sRGB">
<feFlood flood-opacity="0" result="BackgroundImageFix"/>
<feBlend mode="normal" in="SourceGraphic" in2="BackgroundImageFix" result="shape"/>
<feGaussianBlur stdDeviation="2" result="effect1_foregroundBlur_114_997"/>
</filter>
<linearGradient id="paint0_linear_114_997" x1="532.78" y1="428.659" x2="534.876" y2="428.659" gradientUnits="userSpaceOnUse">
<stop stop-color="#86602F"/>
<stop offset="0.1257" stop-color="#A38251"/>
<stop offset="0.2393" stop-color="#E9D4A4"/>
<stop offset="0.3622" stop-color="#F5E3B3"/>
<stop offset="0.5261" stop-color="#AF905F"/>
<stop offset="0.6844" stop-color="#E5D1A0"/>
<stop offset="0.8613" stop-color="#957140"/>
<stop offset="1" stop-color="#845E2D"/>
</linearGradient>
<linearGradient id="paint1_linear_114_997" x1="731.254" y1="382.741" x2="734.398" y2="382.741" gradientUnits="userSpaceOnUse">
<stop stop-color="#86602F"/>
<stop offset="0.1257" stop-color="#A38251"/>
<stop offset="0.2393" stop-color="#E9D4A4"/>
<stop offset="0.3622" stop-color="#F5E3B3"/>
<stop offset="0.5261" stop-color="#AF905F"/>
<stop offset="0.6844" stop-color="#E5D1A0"/>
<stop offset="0.8613" stop-color="#957140"/>
<stop offset="1" stop-color="#845E2D"/>
</linearGradient>
<linearGradient id="paint2_linear_114_997" x1="700.078" y1="364.374" x2="703.223" y2="364.374" gradientUnits="userSpaceOnUse">
<stop stop-color="#86602F"/>
<stop offset="0.1257" stop-color="#A38251"/>
<stop offset="0.2393" stop-color="#E9D4A4"/>
<stop offset="0.3622" stop-color="#F5E3B3"/>
<stop offset="0.5261" stop-color="#AF905F"/>
<stop offset="0.6844" stop-color="#E5D1A0"/>
<stop offset="0.8613" stop-color="#957140"/>
<stop offset="1" stop-color="#845E2D"/>
</linearGradient>
<linearGradient id="paint3_linear_114_997" x1="673.033" y1="347.319" x2="679.322" y2="347.319" gradientUnits="userSpaceOnUse">
<stop stop-color="#86602F"/>
<stop offset="0.1257" stop-color="#A38251"/>
<stop offset="0.2393" stop-color="#E9D4A4"/>
<stop offset="0.3622" stop-color="#F5E3B3"/>
<stop offset="0.5261" stop-color="#AF905F"/>
<stop offset="0.6844" stop-color="#E5D1A0"/>
<stop offset="0.8613" stop-color="#957140"/>
<stop offset="1" stop-color="#845E2D"/>
</linearGradient>
<linearGradient id="paint4_linear_114_997" x1="602.405" y1="340.322" x2="604.501" y2="340.322" gradientUnits="userSpaceOnUse">
<stop stop-color="#86602F"/>
<stop offset="0.1257" stop-color="#A38251"/>
<stop offset="0.2393" stop-color="#E9D4A4"/>
<stop offset="0.3622" stop-color="#F5E3B3"/>
<stop offset="0.5261" stop-color="#AF905F"/>
<stop offset="0.6844" stop-color="#E5D1A0"/>
<stop offset="0.8613" stop-color="#957140"/>
<stop offset="1" stop-color="#845E2D"/>
</linearGradient>
<linearGradient id="paint5_linear_114_997" x1="640.863" y1="366.124" x2="641.911" y2="366.124" gradientUnits="userSpaceOnUse">
<stop stop-color="#86602F"/>
<stop offset="0.1257" stop-color="#A38251"/>
<stop offset="0.2393" stop-color="#E9D4A4"/>
<stop offset="0.3622" stop-color="#F5E3B3"/>
<stop offset="0.5261" stop-color="#AF905F"/>
<stop offset="0.6844" stop-color="#E5D1A0"/>
<stop offset="0.8613" stop-color="#957140"/>
<stop offset="1" stop-color="#845E2D"/>
</linearGradient>
<linearGradient id="paint6_linear_114_997" x1="652.24" y1="443.089" x2="659.577" y2="443.089" gradientUnits="userSpaceOnUse">
<stop stop-color="#86602F"/>
<stop offset="0.1257" stop-color="#A38251"/>
<stop offset="0.2393" stop-color="#E9D4A4"/>
<stop offset="0.3622" stop-color="#F5E3B3"/>
<stop offset="0.5261" stop-color="#AF905F"/>
<stop offset="0.6844" stop-color="#E5D1A0"/>
<stop offset="0.8613" stop-color="#957140"/>
<stop offset="1" stop-color="#845E2D"/>
</linearGradient>
<linearGradient id="paint7_linear_114_997" x1="522.37" y1="375.307" x2="526.563" y2="375.307" gradientUnits="userSpaceOnUse">
<stop stop-color="#86602F"/>
<stop offset="0.1257" stop-color="#A38251"/>
<stop offset="0.2393" stop-color="#E9D4A4"/>
<stop offset="0.3622" stop-color="#F5E3B3"/>
<stop offset="0.5261" stop-color="#AF905F"/>
<stop offset="0.6844" stop-color="#E5D1A0"/>
<stop offset="0.8613" stop-color="#957140"/>
<stop offset="1" stop-color="#845E2D"/>
</linearGradient>
<linearGradient id="paint8_linear_114_997" x1="581.621" y1="384.053" x2="583.717" y2="384.053" gradientUnits="userSpaceOnUse">
<stop stop-color="#86602F"/>
<stop offset="0.1257" stop-color="#A38251"/>
<stop offset="0.2393" stop-color="#E9D4A4"/>
<stop offset="0.3622" stop-color="#F5E3B3"/>
<stop offset="0.5261" stop-color="#AF905F"/>
<stop offset="0.6844" stop-color="#E5D1A0"/>
<stop offset="0.8613" stop-color="#957140"/>
<stop offset="1" stop-color="#845E2D"/>
</linearGradient>
<linearGradient id="paint9_linear_114_997" x1="531.723" y1="320.206" x2="535.915" y2="320.206" gradientUnits="userSpaceOnUse">
<stop stop-color="#86602F"/>
<stop offset="0.1257" stop-color="#A38251"/>
<stop offset="0.2393" stop-color="#E9D4A4"/>
<stop offset="0.3622" stop-color="#F5E3B3"/>
<stop offset="0.5261" stop-color="#AF905F"/>
<stop offset="0.6844" stop-color="#E5D1A0"/>
<stop offset="0.8613" stop-color="#957140"/>
<stop offset="1" stop-color="#845E2D"/>
</linearGradient>
<linearGradient id="paint10_linear_114_997" x1="597.209" y1="450.524" x2="599.305" y2="450.524" gradientUnits="userSpaceOnUse">
<stop stop-color="#86602F"/>
<stop offset="0.1257" stop-color="#A38251"/>
<stop offset="0.2393" stop-color="#E9D4A4"/>
<stop offset="0.3622" stop-color="#F5E3B3"/>
<stop offset="0.5261" stop-color="#AF905F"/>
<stop offset="0.6844" stop-color="#E5D1A0"/>
<stop offset="0.8613" stop-color="#957140"/>
<stop offset="1" stop-color="#845E2D"/>
</linearGradient>
<linearGradient id="paint11_linear_114_997" x1="631.502" y1="406.793" x2="633.598" y2="406.793" gradientUnits="userSpaceOnUse">
<stop stop-color="#86602F"/>
<stop offset="0.1257" stop-color="#A38251"/>
<stop offset="0.2393" stop-color="#E9D4A4"/>
<stop offset="0.3622" stop-color="#F5E3B3"/>
<stop offset="0.5261" stop-color="#AF905F"/>
<stop offset="0.6844" stop-color="#E5D1A0"/>
<stop offset="0.8613" stop-color="#957140"/>
<stop offset="1" stop-color="#845E2D"/>
</linearGradient>
<linearGradient id="paint12_linear_114_997" x1="624.228" y1="383.179" x2="626.324" y2="383.179" gradientUnits="userSpaceOnUse">
<stop stop-color="#86602F"/>
<stop offset="0.1257" stop-color="#A38251"/>
<stop offset="0.2393" stop-color="#E9D4A4"/>
<stop offset="0.3622" stop-color="#F5E3B3"/>
<stop offset="0.5261" stop-color="#AF905F"/>
<stop offset="0.6844" stop-color="#E5D1A0"/>
<stop offset="0.8613" stop-color="#957140"/>
<stop offset="1" stop-color="#845E2D"/>
</linearGradient>
<linearGradient id="paint13_linear_114_997" x1="717.745" y1="407.23" x2="720.889" y2="407.23" gradientUnits="userSpaceOnUse">
<stop stop-color="#86602F"/>
<stop offset="0.1257" stop-color="#A38251"/>
<stop offset="0.2393" stop-color="#E9D4A4"/>
<stop offset="0.3622" stop-color="#F5E3B3"/>
<stop offset="0.5261" stop-color="#AF905F"/>
<stop offset="0.6844" stop-color="#E5D1A0"/>
<stop offset="0.8613" stop-color="#957140"/>
<stop offset="1" stop-color="#845E2D"/>
</linearGradient>
</defs>
</svg>
