<svg width="26" height="23" viewBox="0 0 26 23" fill="none" xmlns="http://www.w3.org/2000/svg">
<path d="M1 13L13 1L25 13" stroke="#2F2F2F" stroke-opacity="0.47" stroke-width="1.14286" stroke-linecap="round" stroke-linejoin="round"/>
<path d="M3.6665 10.334V21.0007C3.6665 21.3543 3.80698 21.6934 4.05703 21.9435C4.30708 22.1935 4.64622 22.334 4.99984 22.334H8.99984C9.35346 22.334 9.6926 22.1935 9.94265 21.9435C10.1927 21.6934 10.3332 21.3543 10.3332 21.0007V15.6673C10.3332 15.3137 10.4736 14.9746 10.7237 14.7245C10.9737 14.4745 11.3129 14.334 11.6665 14.334H14.3332C14.6868 14.334 15.0259 14.4745 15.276 14.7245C15.526 14.9746 15.6665 15.3137 15.6665 15.6673V21.0007C15.6665 21.3543 15.807 21.6934 16.057 21.9435C16.3071 22.1935 16.6462 22.334 16.9998 22.334H20.9998C21.3535 22.334 21.6926 22.1935 21.9426 21.9435C22.1927 21.6934 22.3332 21.3543 22.3332 21.0007V10.334" stroke="#2F2F2F" stroke-opacity="0.47" stroke-width="1.14286" stroke-linecap="round" stroke-linejoin="round"/>
</svg>
