<svg width="36" height="40" viewBox="0 0 36 40" fill="none" xmlns="http://www.w3.org/2000/svg">
<g clip-path="url(#clip0_1676_5890)">
<path d="M15.4915 16.3065C15.0429 16.6064 14.6577 16.9917 14.358 17.4405C14.0584 17.8892 13.85 18.3926 13.7448 18.9219C13.5325 19.9909 13.7535 21.1004 14.3592 22.0064C14.9649 22.9124 15.9057 23.5407 16.9747 23.753C18.0436 23.9654 19.1531 23.7444 20.0591 23.1387C20.9652 22.533 21.5934 21.5922 21.8058 20.5232C22.0181 19.4543 21.7971 18.3448 21.1914 17.4388C20.5857 16.5327 19.6449 15.9045 18.576 15.6921C17.507 15.4798 16.3975 15.7008 15.4915 16.3065ZM26.4523 11.0379C26.0518 10.6373 25.5665 10.3215 25.035 10.1136C23.6409 9.56667 20.5983 9.58977 18.6342 9.61288C18.3183 9.61288 18.0257 9.62058 17.7715 9.62058C17.5173 9.62058 17.2169 9.62058 16.8934 9.61288C14.9292 9.58977 11.9021 9.55896 10.5079 10.1136C9.9764 10.3215 9.49884 10.6373 9.0906 11.0379C8.68236 11.4384 8.37426 11.9237 8.16629 12.4552C7.6194 13.8493 7.65021 16.8996 7.66562 18.8637C7.66562 19.1795 7.67332 19.4722 7.67332 19.7187C7.67332 19.9652 7.67332 20.2579 7.66562 20.5737C7.65021 22.5379 7.6194 25.5881 8.16629 26.9823C8.37426 27.5138 8.69007 27.9914 9.0906 28.3996C9.49114 28.8078 9.9764 29.1159 10.5079 29.3239C11.9021 29.8708 14.9446 29.8477 16.9088 29.8246C17.2246 29.8246 17.5173 29.8169 17.7715 29.8169C18.0257 29.8169 18.3261 29.8169 18.6496 29.8246C20.6137 29.8477 23.6409 29.8785 25.035 29.3239C25.5665 29.1159 26.0441 28.8001 26.4523 28.3996C26.8606 27.9991 27.1687 27.5138 27.3766 26.9823C27.9312 25.5958 27.9004 22.561 27.8773 20.5891C27.8773 20.2656 27.8696 19.9652 27.8696 19.711C27.8696 19.4568 27.8696 19.1641 27.8773 18.8329C27.9004 16.8688 27.9312 13.8339 27.3766 12.4397C27.1687 11.9083 26.8529 11.4307 26.4523 11.0225V11.0379ZM21.2839 14.4655C22.6771 15.3971 23.6432 16.8439 23.9697 18.4878C24.2961 20.1317 23.9562 21.8379 23.0247 23.2311C22.0931 24.6244 20.6463 25.5905 19.0024 25.9169C17.3585 26.2434 15.6523 25.9035 14.2591 24.9719C13.5692 24.5112 12.9769 23.9191 12.5158 23.2294C12.0548 22.5397 11.7341 21.766 11.5721 20.9524C11.4101 20.1388 11.41 19.3012 11.5716 18.4876C11.7333 17.6739 12.0537 16.9 12.5144 16.2102C12.9752 15.5203 13.5673 14.928 14.257 14.4669C14.9466 14.0059 15.7204 13.6852 16.534 13.5232C17.3476 13.3612 18.1851 13.3611 18.9988 13.5227C19.8124 13.6844 20.5863 14.0048 21.2762 14.4655H21.2839ZM23.533 14.3654C23.2942 14.2036 23.1017 13.9726 22.9861 13.703C22.8706 13.4334 22.8475 13.1407 22.9014 12.848C22.9553 12.5553 23.1017 12.3011 23.3019 12.0931C23.5022 11.8852 23.7718 11.7465 24.0568 11.6926C24.3418 11.6387 24.6422 11.6618 24.9118 11.7773C25.1814 11.8929 25.4125 12.0777 25.5742 12.3165C25.736 12.5553 25.8207 12.8403 25.8207 13.133C25.8207 13.3255 25.7822 13.5181 25.7129 13.6953C25.6435 13.8724 25.528 14.0342 25.3971 14.1728C25.2661 14.3115 25.0967 14.4193 24.9195 14.4963C24.7423 14.5734 24.5498 14.6119 24.3572 14.6119C24.0645 14.6119 23.7795 14.5272 23.5407 14.3654H23.533ZM35.0253 7.39453C35.0253 4.6755 32.8147 2.46484 30.0957 2.46484H5.44726C2.72823 2.46484 0.517578 4.6755 0.517578 7.39453V32.0429C0.517578 34.762 2.72823 36.9726 5.44726 36.9726H30.0957C32.8147 36.9726 35.0253 34.762 35.0253 32.0429V7.39453ZM28.016 29.9632C26.5756 31.4036 24.8271 31.8581 22.8552 31.9582C20.8217 32.0737 14.7212 32.0737 12.6877 31.9582C10.7159 31.8581 8.96736 31.4036 7.52697 29.9632C6.08658 28.5228 5.63212 26.7743 5.53969 24.8025C5.42415 22.769 5.42415 16.6685 5.53969 14.635C5.63982 12.6631 6.08658 10.9146 7.52697 9.47423C8.96736 8.03384 10.7236 7.57939 12.6877 7.48696C14.7212 7.37142 20.8217 7.37142 22.8552 7.48696C24.8271 7.58709 26.5756 8.03384 28.016 9.47423C29.4563 10.9146 29.9108 12.6631 30.0032 14.635C30.1188 16.6608 30.1188 22.7536 30.0032 24.7948C29.9031 26.7666 29.4563 28.5151 28.016 29.9555V29.9632Z" fill="#4B5692"/>
</g>
<defs>
<clipPath id="clip0_1676_5890">
<rect width="34.5078" height="39.4375" fill="white" transform="translate(0.517578)"/>
</clipPath>
</defs>
</svg>
