<svg width="28" height="28" viewBox="0 0 28 28" fill="none" xmlns="http://www.w3.org/2000/svg">
<g clip-path="url(#clip0_2049_5466)">
<path d="M21.8845 5.44779C22.2297 5.27187 22.5984 5.64053 22.4225 5.98578L19.9166 10.9039C19.6019 11.5215 19.7207 12.2715 20.2108 12.7617L24.1139 16.6647C24.3879 16.9387 24.1512 17.4032 23.7684 17.3426L18.3167 16.4791C17.632 16.3707 16.9554 16.7154 16.6408 17.3331L14.1348 22.2512C13.9589 22.5964 13.444 22.5149 13.3834 22.1322L12.5199 16.6804C12.4115 15.9958 11.8745 15.4588 11.1899 15.3504L5.73811 14.4869C5.35539 14.4263 5.27383 13.9113 5.61908 13.7354L10.5372 11.2295C11.1548 10.9148 11.4996 10.2382 11.3911 9.55361L10.5276 4.10183C10.467 3.71911 10.9316 3.48241 11.2056 3.75641L15.1086 7.65945C15.5987 8.14959 16.3487 8.26838 16.9664 7.95369L21.8845 5.44779Z" stroke="#2F2F2F" stroke-opacity="0.47" stroke-width="1.2"/>
<path d="M1.1665 26.834L11.8838 16.1182" stroke="#2F2F2F" stroke-opacity="0.47" stroke-width="1.2" stroke-linecap="round"/>
</g>
<defs>
<clipPath id="clip0_2049_5466">
<rect width="28" height="28" fill="white"/>
</clipPath>
</defs>
</svg>
