<svg width="20" height="18" viewBox="0 0 20 18" fill="none" xmlns="http://www.w3.org/2000/svg">
<path fill-rule="evenodd" clip-rule="evenodd" d="M0.666504 3.66667V14.3333C0.666504 15.0406 0.947455 15.7189 1.44755 16.219C1.94765 16.719 2.62593 17 3.33317 17H16.6665C17.3737 17 18.052 16.719 18.5521 16.219C19.0522 15.7189 19.3332 15.0406 19.3332 14.3333V3.66667C19.3332 2.95942 19.0522 2.28115 18.5521 1.78105C18.052 1.28095 17.3737 1 16.6665 1H3.33317C2.62593 1 1.94765 1.28095 1.44755 1.78105C0.947455 2.28115 0.666504 2.95942 0.666504 3.66667Z" stroke="#2F2F2F" stroke-opacity="0.47" stroke-width="1.14286" stroke-linecap="round" stroke-linejoin="round"/>
<path d="M3.33301 5L9.99967 9L16.6663 5" stroke="#2F2F2F" stroke-opacity="0.47" stroke-width="1.14286" stroke-linecap="round" stroke-linejoin="round"/>
</svg>
