<svg width="28" height="28" viewBox="0 0 28 28" fill="none" xmlns="http://www.w3.org/2000/svg">
<path fill-rule="evenodd" clip-rule="evenodd" d="M13.9998 21.3332C18.1732 21.3332 21.9505 18.8892 25.3332 13.9998C21.9505 9.1105 18.1732 6.6665 13.9998 6.6665C9.8265 6.6665 6.04917 9.1105 2.6665 13.9998C6.04917 18.8892 9.8265 21.3332 13.9998 21.3332Z" stroke="#0C0F20" stroke-width="1.14286" stroke-linecap="round" stroke-linejoin="round"/>
<path fill-rule="evenodd" clip-rule="evenodd" d="M13.9999 9.33301C14.2465 9.33301 14.4879 9.35167 14.7239 9.38901C14.6247 9.92113 14.6565 10.4694 14.8167 10.9864C14.9769 11.5035 15.2606 11.9737 15.6433 12.3565C16.026 12.7394 16.4961 13.0232 17.0131 13.1836C17.5301 13.344 18.0784 13.376 18.6105 13.277C18.7583 14.2194 18.6136 15.1844 18.1962 16.0421C17.7787 16.8998 17.1084 17.6089 16.2756 18.074C15.4428 18.5391 14.4874 18.7378 13.5382 18.6434C12.589 18.549 11.6916 18.166 10.9667 17.5459C10.2418 16.9259 9.72438 16.0986 9.48404 15.1754C9.24371 14.2523 9.29203 13.2777 9.62251 12.3829C9.95298 11.4881 10.5497 10.7161 11.3324 10.1707C12.115 9.62544 13.046 9.33307 13.9999 9.33301Z" stroke="#0C0F20" stroke-width="1.14286" stroke-linecap="round" stroke-linejoin="round"/>
</svg>
