<svg width="20" height="20" viewBox="0 0 20 20" fill="none" xmlns="http://www.w3.org/2000/svg">
<path fill-rule="evenodd" clip-rule="evenodd" d="M10 0.666016C10.468 0.666016 10.9294 0.700683 11.3787 0.767349L12.056 2.81935C12.6494 2.98868 13.2134 3.23002 13.736 3.53402L15.6827 2.59535C16.372 3.12468 16.9854 3.74868 17.5027 4.44735L16.5294 6.37668C16.824 6.90468 17.056 7.47268 17.2147 8.07002L19.2547 8.78068C19.3671 9.64336 19.3595 10.5174 19.232 11.378L17.18 12.0553C17.0119 12.6426 16.7718 13.2069 16.4654 13.7353L17.404 15.682C16.874 16.3715 16.2507 16.9841 15.552 17.502L13.6227 16.5287C13.089 16.8267 12.5201 17.0569 11.9294 17.214L11.2187 19.254C10.356 19.3664 9.48196 19.3588 8.62138 19.2313L7.94404 17.1793C7.35677 17.0112 6.7925 16.7711 6.26404 16.4647L4.31738 17.4034C3.62785 16.8733 3.01533 16.25 2.49738 15.5513L3.47071 13.622C3.17339 13.088 2.9432 12.5192 2.78538 11.9287L0.745376 11.2167C0.6331 10.3545 0.640728 9.48082 0.768042 8.62068L2.82004 7.94335C2.98938 7.35002 3.23071 6.78602 3.53471 6.26335L2.59604 4.31668C3.12609 3.62716 3.74939 3.01464 4.44804 2.49668L6.37738 3.47002C6.91109 3.17198 7.47994 2.94175 8.07071 2.78468L8.78271 0.744683C9.18636 0.692168 9.59299 0.665891 10 0.666016Z" stroke="#2F2F2F" stroke-opacity="0.47" stroke-width="1.06629" stroke-linecap="round" stroke-linejoin="round"/>
<path d="M10 14C12.2091 14 14 12.2091 14 10C14 7.79086 12.2091 6 10 6C7.79086 6 6 7.79086 6 10C6 12.2091 7.79086 14 10 14Z" stroke="#2F2F2F" stroke-opacity="0.47" stroke-width="1.14286" stroke-linecap="round" stroke-linejoin="round"/>
</svg>
