<svg width="35" height="37" viewBox="0 0 35 37" fill="none" xmlns="http://www.w3.org/2000/svg">
<g clip-path="url(#clip0_1676_5886)">
<path d="M17.2646 1.46289C7.73554 1.46289 0.0107422 9.18769 0.0107422 18.7168C0.0107422 28.2459 7.73554 35.9707 17.2646 35.9707C26.7937 35.9707 34.5185 28.2459 34.5185 18.7168C34.5185 9.18769 26.7937 1.46289 17.2646 1.46289ZM25.2621 13.1969C25.0024 15.9252 23.8789 22.5459 23.3071 25.6016C23.0653 26.8946 22.589 27.3281 22.128 27.3705C21.1262 27.4628 20.3652 26.7084 19.3947 26.0722C17.8762 25.0768 17.0183 24.4571 15.5442 23.4857C13.8407 22.3632 14.945 21.7464 15.9158 20.7376C16.1699 20.4738 20.5846 16.4583 20.67 16.094C20.6807 16.0484 20.6909 15.8783 20.5898 15.789C20.4886 15.6996 20.34 15.7299 20.2325 15.7542C20.0802 15.7888 17.6543 17.3922 12.9547 20.5645C12.2662 21.0374 11.6425 21.2677 11.0836 21.2557C10.4676 21.2424 9.28255 20.9074 8.40156 20.621C7.32103 20.2698 6.46223 20.0841 6.53702 19.4876C6.57598 19.1768 7.00385 18.8591 7.82063 18.5344C12.8505 16.343 16.2045 14.8982 17.8827 14.2001C22.6743 12.2071 23.6699 11.8609 24.3189 11.8493C24.4617 11.8469 24.7808 11.8823 24.9875 12.05C25.125 12.1695 25.2126 12.3363 25.2331 12.5173C25.2681 12.742 25.2778 12.97 25.2621 13.1969Z" fill="#4B5692"/>
</g>
<defs>
<clipPath id="clip0_1676_5886">
<rect width="34.5078" height="35.6209" fill="white" transform="translate(0.0107422 0.908203)"/>
</clipPath>
</defs>
</svg>
