<svg width="627" height="348" viewBox="0 0 627 348" fill="none" xmlns="http://www.w3.org/2000/svg">
<path d="M583.425 311.413V257.25H604.899C605.833 257.25 607.118 257.317 608.753 257.451C610.422 257.551 612.007 257.802 613.509 258.203C616.679 259.005 619.148 260.677 620.917 263.218C622.719 265.759 623.62 268.718 623.62 272.095C623.62 273.9 623.353 275.572 622.819 277.11C622.318 278.614 621.551 279.952 620.516 281.122C620.049 281.69 619.515 282.209 618.915 282.677C618.314 283.111 617.73 283.462 617.163 283.73C618.164 283.93 619.298 284.449 620.566 285.284C622.502 286.488 623.937 288.076 624.871 290.049C625.806 292.021 626.273 294.295 626.273 296.869C626.273 300.581 625.372 303.59 623.57 305.897C621.801 308.203 619.499 309.758 616.662 310.561C615.294 310.962 613.842 311.213 612.307 311.313C610.772 311.38 609.371 311.413 608.103 311.413H583.425ZM589.231 306.197H607.952C608.653 306.197 609.571 306.147 610.705 306.047C611.84 305.913 612.841 305.746 613.709 305.545C615.978 305.011 617.613 303.924 618.614 302.286C619.649 300.614 620.166 298.775 620.166 296.769C620.166 294.128 619.382 291.971 617.813 290.3C616.245 288.594 614.109 287.575 611.406 287.24C610.639 287.107 609.821 287.04 608.953 287.04C608.119 287.006 607.335 286.99 606.601 286.99H589.231V306.197ZM589.231 281.724H606.05C606.851 281.724 607.802 281.674 608.903 281.573C610.005 281.44 610.989 281.222 611.857 280.921C613.792 280.253 615.227 279.116 616.162 277.511C617.096 275.873 617.563 274.117 617.563 272.245C617.563 270.139 617.063 268.317 616.061 266.779C615.06 265.207 613.609 264.087 611.707 263.419C610.372 262.984 608.97 262.733 607.502 262.666C606.067 262.566 605.166 262.516 604.799 262.516H589.231V281.724Z" fill="black"/>
<path d="M543.229 312.918C537.856 312.918 533.301 311.697 529.564 309.257C525.826 306.816 522.973 303.439 521.004 299.126C519.035 294.813 518.051 289.848 518.051 284.231C518.051 278.581 519.052 273.616 521.054 269.337C523.056 265.024 525.926 261.68 529.664 259.306C533.435 256.933 537.956 255.746 543.229 255.746C548.602 255.746 553.157 256.966 556.894 259.407C560.665 261.814 563.518 265.157 565.454 269.437C567.423 273.716 568.407 278.648 568.407 284.231C568.407 289.949 567.423 294.964 565.454 299.277C563.485 303.556 560.615 306.9 556.844 309.307C553.073 311.714 548.535 312.918 543.229 312.918ZM543.229 307.301C549.603 307.301 554.358 305.161 557.495 300.882C560.665 296.602 562.25 291.052 562.25 284.231C562.25 277.277 560.665 271.727 557.495 267.581C554.325 263.435 549.57 261.363 543.229 261.363C538.924 261.363 535.37 262.349 532.567 264.321C529.764 266.261 527.662 268.952 526.26 272.396C524.892 275.806 524.208 279.751 524.208 284.231C524.208 291.186 525.81 296.769 529.013 300.982C532.25 305.195 536.989 307.301 543.229 307.301Z" fill="black"/>
<path d="M454.287 323.449V306.147C457.391 306.147 459.626 305.161 460.995 303.188C462.396 301.216 463.531 298.123 464.398 293.91C464.966 291.102 465.433 288.059 465.8 284.783C466.2 281.506 466.534 277.661 466.801 273.248C467.101 268.835 467.402 263.502 467.702 257.25H501.941V306.147H506.996V323.449H501.39V311.413H459.943V323.449H454.287ZM465.55 306.147H496.134V262.516H473.258C473.125 265.257 472.958 268.183 472.758 271.292C472.558 274.368 472.324 277.444 472.057 280.52C471.79 283.596 471.473 286.488 471.106 289.196C470.739 291.904 470.305 294.245 469.805 296.217C469.271 298.457 468.703 300.413 468.103 302.085C467.502 303.757 466.651 305.111 465.55 306.147Z" fill="black"/>
<path d="M396.215 311.413V257.25H401.971V281.523H434.558V257.25H440.314V311.413H434.558V287.14H401.971V311.413H396.215Z" fill="black"/>
<path d="M356.51 312.918C351.337 312.918 346.866 311.764 343.095 309.457C339.324 307.117 336.404 303.824 334.335 299.578C332.266 295.298 331.231 290.25 331.231 284.432C331.231 278.514 332.249 273.416 334.285 269.136C336.354 264.823 339.257 261.513 342.995 259.206C346.766 256.899 351.237 255.746 356.41 255.746C361.649 255.746 366.121 256.949 369.825 259.356C373.562 261.73 376.399 265.174 378.334 269.688C380.303 274.201 381.238 279.634 381.137 285.987H375.131V283.981C374.964 276.558 373.295 270.908 370.125 267.03C366.955 263.151 362.416 261.212 356.51 261.212C350.403 261.212 345.681 263.235 342.344 267.28C339.04 271.292 337.388 276.976 337.388 284.332C337.388 291.62 339.04 297.271 342.344 301.283C345.681 305.295 350.37 307.301 356.41 307.301C360.581 307.301 364.218 306.331 367.322 304.392C370.459 302.42 372.945 299.611 374.78 295.967L379.986 298.274C377.817 302.954 374.68 306.565 370.576 309.106C366.471 311.647 361.782 312.918 356.51 312.918ZM335.186 285.987V280.771H377.884V285.987H335.186Z" fill="black"/>
<path d="M295.442 312.918C290.57 312.918 286.449 311.647 283.078 309.106C279.708 306.565 277.138 303.138 275.37 298.825C273.601 294.512 272.717 289.648 272.717 284.231C272.717 278.782 273.601 273.917 275.37 269.637C277.138 265.324 279.758 261.931 283.229 259.457C286.699 256.983 290.954 255.746 295.993 255.746C300.898 255.746 305.086 256.999 308.557 259.507C312.027 262.014 314.664 265.425 316.466 269.738C318.301 274.051 319.219 278.882 319.219 284.231C319.219 289.648 318.285 294.529 316.416 298.876C314.58 303.189 311.894 306.615 308.357 309.156C304.853 311.664 300.548 312.918 295.442 312.918ZM271.766 335.486V257.25H277.022V298.976H277.522V335.486H271.766ZM295.092 307.401C299.063 307.401 302.367 306.381 305.003 304.342C307.673 302.303 309.675 299.544 311.01 296.067C312.378 292.556 313.062 288.611 313.062 284.231C313.062 279.885 312.395 275.99 311.06 272.546C309.758 269.069 307.773 266.327 305.103 264.321C302.467 262.282 299.096 261.262 294.992 261.262C291.021 261.262 287.7 262.249 285.031 264.221C282.361 266.16 280.359 268.868 279.024 272.346C277.689 275.823 277.022 279.785 277.022 284.231C277.022 288.645 277.672 292.607 278.974 296.117C280.309 299.594 282.311 302.353 284.98 304.392C287.684 306.398 291.054 307.401 295.092 307.401Z" fill="black"/>
<path d="M231.309 312.918C226.27 312.918 221.948 311.848 218.344 309.708C214.74 307.568 211.953 304.309 209.985 299.929C208.016 295.516 206.998 289.915 206.931 283.128C206.864 280.286 206.965 277.21 207.231 273.9C207.498 270.59 207.866 267.464 208.333 264.522C208.833 261.58 209.367 259.24 209.935 257.501C210.735 254.96 211.937 252.603 213.539 250.43C215.174 248.223 217.093 246.418 219.295 245.013C221.297 243.676 223.617 242.623 226.253 241.854C228.889 241.085 231.642 240.483 234.512 240.048C237.382 239.58 240.185 239.196 242.922 238.895C245.658 238.561 251.785 236.688 254.788 234.181C254.788 234.181 253.038 237.844 251.284 239.697C249.134 241.969 247.497 242.957 244.573 244.061C241.634 245.17 239.384 244.746 236.614 245.214C233.845 245.649 231.192 246.234 228.656 246.969C226.119 247.705 223.95 248.641 222.148 249.778C219.345 251.483 217.193 254.091 215.691 257.601C214.189 261.112 213.255 265.208 212.888 269.888C214.957 266.578 217.76 264.037 221.297 262.265C224.835 260.493 228.739 259.607 233.01 259.607C237.883 259.607 242.087 260.727 245.625 262.968C249.195 265.208 251.932 268.334 253.834 272.346C255.769 276.324 256.737 280.972 256.737 286.288C256.737 291.671 255.719 296.368 253.684 300.38C251.648 304.359 248.728 307.451 244.924 309.658C241.12 311.865 236.581 312.951 231.309 312.918ZM231.809 307.301C237.949 307.301 242.605 305.395 245.775 301.584C248.978 297.739 250.58 292.64 250.58 286.288C250.58 279.768 248.928 274.636 245.625 270.891C242.321 267.147 237.682 265.274 231.709 265.274C225.736 265.274 221.13 267.147 217.893 270.891C214.69 274.636 213.088 279.768 213.088 286.288C213.088 292.774 214.69 297.906 217.893 301.684C221.097 305.429 225.736 307.301 231.809 307.301Z" fill="black"/>
<path d="M161.914 311.413V290.249H148.248C146.747 290.249 145.262 290.183 143.793 290.049C142.358 289.882 141.007 289.681 139.739 289.447C136.068 288.745 132.914 287.14 130.278 284.632C127.675 282.091 126.374 278.531 126.374 273.95C126.374 269.537 127.575 265.993 129.978 263.318C132.414 260.644 135.267 258.888 138.537 258.052C140.106 257.651 141.674 257.417 143.243 257.35C144.845 257.283 146.246 257.25 147.447 257.25H167.67L167.77 311.413H161.914ZM124.472 311.413L140.289 287.993H146.947L131.029 311.413H124.472ZM148.198 284.984H161.914V262.516H148.198C147.297 262.516 146.046 262.549 144.444 262.616C142.842 262.683 141.357 262.934 139.989 263.368C138.821 263.703 137.653 264.305 136.485 265.174C135.317 266.01 134.349 267.146 133.582 268.584C132.814 270.022 132.431 271.777 132.431 273.85C132.431 276.759 133.215 279.082 134.783 280.821C136.352 282.526 138.337 283.68 140.74 284.281C142.108 284.616 143.443 284.816 144.744 284.883C146.079 284.95 147.231 284.984 148.198 284.984Z" fill="black"/>
<path d="M61.7607 311.413V306.197C63.7964 306.565 65.3314 306.465 66.3659 305.897C67.4004 305.295 68.1512 304.325 68.6184 302.988C69.119 301.617 69.5195 299.962 69.8198 298.023C70.3871 294.679 70.8877 291.035 71.3215 287.09C71.7553 283.111 72.1557 278.681 72.5228 273.8C72.8899 268.885 73.257 263.368 73.6241 257.25H109.414V311.413H103.608V262.867H79.2304C78.9634 266.879 78.6631 270.774 78.3293 274.552C78.029 278.33 77.6953 281.924 77.3282 285.335C76.9945 288.711 76.6274 291.804 76.227 294.613C75.8599 297.388 75.4595 299.795 75.0256 301.834C74.5251 304.509 73.841 306.666 72.9733 308.304C72.1391 309.909 70.8543 310.979 69.119 311.513C67.3837 312.048 64.931 312.015 61.7607 311.413Z" fill="black"/>
<path d="M0 323.449V306.147C3.10348 306.147 5.33933 305.161 6.70753 303.188C8.1091 301.216 9.24371 298.123 10.1114 293.91C10.6787 291.102 11.1458 288.059 11.5129 284.783C11.9134 281.506 12.2471 277.661 12.514 273.248C12.8144 268.835 13.1147 263.502 13.4151 257.25H47.6535V306.147H52.7092V323.449H47.1029V311.413H5.65635V323.449H0ZM11.2626 306.147H41.847V262.516H18.9713C18.8378 265.257 18.671 268.183 18.4707 271.292C18.2705 274.368 18.0369 277.444 17.7699 280.52C17.503 283.596 17.186 286.488 16.8189 289.196C16.4518 291.904 16.018 294.245 15.5174 296.217C14.9835 298.457 14.4162 300.413 13.8155 302.085C13.2148 303.757 12.3639 305.111 11.2626 306.147Z" fill="black"/>
<path d="M598.403 186.04C596.126 186.04 594.286 185.317 592.884 183.871C591.526 182.426 590.847 180.476 590.847 178.023C590.847 176.49 591.307 174.672 592.227 172.57C585.174 181.55 578.845 186.04 573.238 186.04C571.223 186.04 569.602 185.492 568.375 184.397C567.105 183.302 566.47 181.791 566.47 179.863C566.47 177.936 567.499 175.176 569.558 171.584C571.617 167.992 573.873 164.553 576.326 161.268C578.823 157.939 581.101 154.632 583.159 151.346C585.218 148.061 586.248 145.739 586.248 144.381C587.649 144.381 588.876 144.841 589.927 145.761C590.978 146.637 591.504 147.776 591.504 149.178C591.504 150.667 590.497 153.033 588.482 156.274C586.467 159.472 584.254 162.626 581.845 165.736C579.48 168.802 577.29 171.956 575.274 175.198C573.259 178.396 572.252 180.761 572.252 182.294C572.252 183.915 572.931 184.726 574.289 184.726C576.129 184.726 578.188 183.937 580.465 182.36C582.787 180.739 585.131 178.571 587.496 175.855C589.905 173.139 591.898 170.774 593.475 168.759C595.096 166.7 597.352 163.655 600.243 159.625L602.214 156.866C603.441 155.289 604.427 153.975 605.171 152.923C608.369 148.63 609.968 145.783 609.968 144.381C611.457 144.381 612.662 144.819 613.582 145.695C614.502 146.572 614.962 147.732 614.962 149.178C614.962 150.404 613.954 152.551 611.939 155.617C609.968 158.64 607.778 161.684 605.368 164.751C603.003 167.817 600.813 170.993 598.798 174.278C596.826 177.52 595.841 179.973 595.841 181.637C595.841 183.521 596.695 184.55 598.403 184.726C604.799 184.726 613.626 176.841 624.883 161.071L625.212 161.005C625.431 161.005 625.606 161.093 625.738 161.268C625.913 161.399 626 161.575 626 161.794V161.859C614.524 177.98 605.325 186.04 598.403 186.04ZM602.609 138.336C600.506 138.336 598.776 137.723 597.418 136.496C596.06 135.27 595.381 133.934 595.381 132.488C595.381 131.568 595.644 130.802 596.169 130.189C599.367 131.809 602.609 132.62 605.894 132.62C606.376 132.62 607.668 132.554 609.771 132.423C611.917 132.291 614.633 131.152 617.918 129.006L618.576 130.057C615.159 133.868 611.26 136.387 606.88 137.613C605.303 138.095 603.879 138.336 602.609 138.336Z" fill="#0C0F20"/>
<path d="M544.66 186.04C542.382 186.04 540.543 185.317 539.141 183.871C537.783 182.426 537.104 180.476 537.104 178.023C537.104 176.49 537.564 174.672 538.484 172.57C531.431 181.55 525.101 186.04 519.494 186.04C517.479 186.04 515.859 185.492 514.632 184.397C513.362 183.302 512.727 181.791 512.727 179.863C512.727 177.936 513.756 175.176 515.815 171.584C517.874 167.992 520.13 164.553 522.583 161.268C525.08 157.939 527.357 154.632 529.416 151.346C531.475 148.061 532.504 145.739 532.504 144.381C533.906 144.381 535.133 144.841 536.184 145.761C537.235 146.637 537.761 147.776 537.761 149.178C537.761 150.667 536.753 153.033 534.738 156.274C532.723 159.472 530.511 162.626 528.102 165.736C525.737 168.803 523.546 171.956 521.531 175.198C519.516 178.396 518.509 180.761 518.509 182.294C518.509 183.915 519.188 184.726 520.546 184.726C522.386 184.726 524.444 183.937 526.722 182.36C529.044 180.739 531.387 178.571 533.753 175.855C536.162 173.139 538.155 170.774 539.732 168.759C541.353 166.7 543.609 163.655 546.5 159.625L548.471 156.866C549.698 155.289 550.683 153.975 551.428 152.923C554.626 148.63 556.225 145.783 556.225 144.381C557.714 144.381 558.919 144.819 559.839 145.695C560.758 146.572 561.218 147.732 561.218 149.178C561.218 150.405 560.211 152.551 558.196 155.617C556.225 158.64 554.034 161.684 551.625 164.751C549.26 167.817 547.07 170.993 545.054 174.278C543.083 177.52 542.098 179.973 542.098 181.637C542.098 183.521 542.952 184.55 544.66 184.726C551.056 184.726 559.882 176.841 571.14 161.071L571.469 161.005C571.688 161.005 571.863 161.093 571.994 161.268C572.17 161.4 572.257 161.575 572.257 161.794V161.859C560.78 177.98 551.581 186.04 544.66 186.04Z" fill="#0C0F20"/>
<path d="M488.485 193.267C488.835 193.267 489.186 193.18 489.536 193.005C490.325 192.567 491.026 191.953 491.639 191.165C492.778 189.807 493.347 188.602 493.347 187.551C493.347 186.981 493.041 186.697 492.427 186.697C491.026 186.697 489.711 187.463 488.485 188.997C487.74 189.916 487.368 190.924 487.368 192.019C487.368 192.851 487.74 193.267 488.485 193.267ZM487.171 196.684C485.506 196.684 484.674 195.874 484.674 194.253C484.674 192.676 485.156 191.121 486.119 189.588C487.127 188.099 488.397 186.894 489.93 185.974C488.091 185.799 486.601 185.098 485.462 183.871C484.061 182.426 483.36 180.476 483.36 178.023C483.36 176.49 483.82 174.672 484.74 172.57C477.687 181.55 471.357 186.04 465.75 186.04C463.735 186.04 462.114 185.492 460.888 184.397C459.618 183.302 458.982 181.791 458.982 179.863C458.982 177.936 460.012 175.176 462.071 171.584C464.129 167.992 466.385 164.553 468.838 161.268C471.335 157.939 473.613 154.632 475.672 151.346C477.731 148.061 478.76 145.739 478.76 144.381C480.162 144.381 481.389 144.841 482.44 145.761C483.491 146.637 484.017 147.776 484.017 149.178C484.017 150.667 483.009 153.033 480.994 156.274C478.979 159.472 476.767 162.626 474.358 165.736C471.992 168.803 469.802 171.956 467.787 175.198C465.772 178.396 464.765 180.761 464.765 182.294C464.765 183.915 465.444 184.726 466.802 184.726C470.394 184.726 474.818 181.769 480.074 175.855C484.017 171.343 487.631 166.787 490.916 162.188C491.004 162.013 491.091 161.881 491.179 161.794C491.31 161.662 491.42 161.509 491.507 161.334C493.391 158.618 494.464 157.129 494.727 156.866C495.954 155.289 496.939 153.975 497.684 152.923C500.882 148.674 502.481 145.827 502.481 144.381C503.97 144.381 505.175 144.819 506.094 145.695C507.014 146.572 507.474 147.732 507.474 149.178C507.474 150.405 506.467 152.551 504.452 155.617C502.481 158.64 500.29 161.684 497.881 164.751C495.516 167.817 493.325 170.993 491.31 174.278C489.339 177.52 488.354 179.973 488.354 181.637C488.354 183.521 489.208 184.55 490.916 184.726C497.312 184.726 506.138 176.841 517.396 161.071L517.725 161.005C518.25 161.005 518.513 161.29 518.513 161.859C509.446 174.607 501.802 182.316 495.581 184.988C496.326 185.383 496.698 186.127 496.698 187.222C496.698 187.923 496.545 188.69 496.238 189.522C495.932 190.398 495.472 191.252 494.859 192.085C494.245 192.917 493.544 193.662 492.756 194.319C492.011 195.02 491.135 195.589 490.128 196.027C489.164 196.465 488.178 196.684 487.171 196.684Z" fill="#0C0F20"/>
<path d="M437.108 186.04C435.005 186.04 433.297 185.361 431.982 184.003C430.712 182.645 430.077 180.827 430.077 178.549C430.077 177.498 430.362 176.228 430.931 174.738C424.623 182.273 418.863 186.04 413.65 186.04C411.504 186.04 409.795 185.361 408.525 184.003C407.211 182.601 406.554 180.739 406.554 178.418C406.554 174.782 407.539 170.883 409.511 166.722C411.482 162.56 413.979 158.815 417.001 155.486C420.067 152.113 423.594 149.31 427.58 147.075C431.566 144.798 435.399 143.659 439.079 143.659C442.233 143.659 443.897 145.455 444.072 149.047C444.072 151.062 443.24 153.975 441.576 157.786C443.985 154.5 445.781 151.806 446.964 149.704C448.19 147.557 448.803 145.783 448.803 144.381C450.161 144.381 451.256 144.82 452.089 145.696C452.965 146.572 453.403 147.733 453.403 149.178C453.403 150.886 452.417 153.383 450.446 156.669C448.475 159.954 446.307 163.13 443.941 166.196C441.619 169.219 439.473 172.263 437.502 175.33C435.531 178.396 434.545 180.586 434.545 181.9C434.545 183.652 435.399 184.594 437.108 184.726C438.947 184.726 441.028 184.047 443.35 182.689C445.671 181.331 447.708 179.841 449.46 178.221C451.213 176.556 453.206 174.388 455.44 171.716C457.718 169.044 459.317 167.094 460.236 165.868L463.719 161.071L464.047 161.005C464.266 161.005 464.442 161.093 464.573 161.268C464.748 161.4 464.836 161.575 464.836 161.794V161.86L461.353 166.722C460.434 167.948 458.791 169.942 456.425 172.701C454.104 175.461 452.023 177.673 450.183 179.338C448.343 181.002 446.219 182.535 443.81 183.937C441.4 185.339 439.166 186.04 437.108 186.04ZM414.373 184.726C416.607 184.726 419.148 183.652 421.995 181.506C424.886 179.36 427.733 176.6 430.537 173.227C433.34 169.854 435.815 166.262 437.962 162.451C441.159 156.713 442.758 152.244 442.758 149.047C442.758 146.375 441.751 145.039 439.736 145.039C437.589 145.039 434.961 146.44 431.851 149.244C428.741 152.047 425.674 155.486 422.652 159.56C419.629 163.634 417.089 167.729 415.03 171.847C412.971 175.965 411.942 179.316 411.942 181.9C411.942 182.689 412.183 183.368 412.664 183.937C413.146 184.463 413.716 184.726 414.373 184.726Z" fill="#0C0F20"/>
<path d="M291.309 233.152C284.738 233.152 279.503 231.684 275.605 228.75C271.706 225.815 269.757 221.96 269.757 217.185C269.976 217.01 270.217 216.922 270.48 216.922C270.742 216.922 270.961 217.01 271.137 217.185C271.137 221.434 272.889 224.917 276.393 227.633C279.941 230.261 284.607 231.575 290.389 231.575C296.39 231.575 302.172 230.129 307.736 227.238C313.167 224.566 318.446 220.799 323.571 215.937C326.287 213.352 328.74 210.899 330.93 208.577C333.12 206.256 335.508 203.452 338.092 200.167C340.633 196.925 342.845 194.056 344.729 191.559L345.977 189.917C347.598 187.77 349.394 185.317 351.365 182.557C359.25 171.606 365.01 163.108 368.646 157.063C372.282 150.974 374.1 146.747 374.1 144.382C375.721 144.382 377.013 144.841 377.977 145.761C378.984 146.637 379.488 147.798 379.488 149.244C379.488 150.689 378.765 152.923 377.319 155.946C380.473 152.223 383.693 149.222 386.978 146.944C390.308 144.666 393.308 143.527 395.98 143.527C400.273 143.527 402.551 145.739 402.814 150.164C402.814 155.596 400.646 161.75 396.309 168.627C394.25 171.781 391.906 174.694 389.278 177.367C386.65 179.995 383.715 182.097 380.473 183.674C377.232 185.251 374.012 186.04 370.814 186.04C369.15 186.04 367.792 185.427 366.741 184.2C365.689 182.93 365.164 181.265 365.164 179.206C365.164 177.629 365.558 175.79 366.346 173.687C360.958 181.353 355.373 188.865 349.591 196.224C343.677 203.671 338.136 209.76 332.967 214.491C330.295 216.944 327.251 219.419 323.834 221.916C317.395 226.691 310.473 229.954 303.07 231.706C299.259 232.67 295.339 233.152 291.309 233.152ZM370.223 184.594C372.676 184.594 376.137 182.141 380.605 177.235C385.117 172.329 389.103 166.897 392.564 160.94C396.068 154.938 397.82 150.536 397.82 147.733C397.82 145.937 396.966 144.995 395.258 144.907C392.235 144.907 388.402 147.032 383.759 151.281C379.115 155.486 375.064 160.348 371.603 165.868C368.186 171.387 366.478 175.833 366.478 179.206C366.478 180.827 366.806 182.141 367.463 183.149C368.164 184.112 369.084 184.594 370.223 184.594Z" fill="#0C0F20"/>
<path d="M324.365 186.106C321.999 186.106 320.094 185.405 318.648 184.003C317.159 182.557 316.414 180.696 316.414 178.418C316.414 174.782 317.4 170.883 319.371 166.722C321.342 162.56 323.839 158.815 326.862 155.486C329.928 152.113 333.454 149.31 337.44 147.075C341.427 144.798 345.26 143.659 348.939 143.659C350.472 143.659 351.677 144.206 352.553 145.301C353.473 146.396 353.933 148.017 353.933 150.164C353.933 153.624 353.013 157.391 351.173 161.465C349.333 165.539 346.902 169.416 343.88 173.096C350.188 172.482 355.816 168.474 360.766 161.071H360.898C361.161 161.071 361.38 161.137 361.555 161.268C361.73 161.4 361.818 161.575 361.818 161.794V161.86C356.211 170.051 349.837 174.256 342.697 174.475C339.674 177.936 336.52 180.739 333.235 182.886C329.95 185.032 326.993 186.106 324.365 186.106ZM342.106 173.161C345.26 169.482 347.8 165.671 349.728 161.728C351.655 157.742 352.619 153.887 352.619 150.164C352.619 146.747 351.589 145.039 349.53 145.039C346.99 145.039 343.485 147.338 339.017 151.938C336.915 154.172 335.382 156.231 334.418 158.114C333.454 159.954 332.972 162.013 332.972 164.291C332.972 166.963 333.783 169.087 335.403 170.664C337.068 172.241 339.302 173.074 342.106 173.161ZM325.022 184.726C326.993 184.726 329.446 183.784 332.381 181.9C335.316 179.973 338.185 177.476 340.989 174.41C338.097 174.103 335.798 173.052 334.089 171.256C332.425 169.46 331.592 167.138 331.592 164.291C331.592 162.758 331.79 161.356 332.184 160.085C329.117 164.247 326.621 168.299 324.693 172.241C322.766 176.14 321.802 179.36 321.802 181.9C321.802 183.652 322.875 184.594 325.022 184.726Z" fill="#0C0F20"/>
<path d="M274.827 184.726C277.192 184.726 279.755 183.806 282.514 181.966C284.617 180.608 286.61 178.944 288.494 176.972C286.829 176.184 285.449 174.826 284.354 172.898C282.646 170.007 281.792 167.138 281.792 164.291C281.792 162.845 282.033 161.356 282.514 159.823C279.711 163.546 277.28 167.467 275.221 171.584C273.074 175.877 272.001 179.316 272.001 181.9C272.001 183.784 272.943 184.726 274.827 184.726ZM289.545 175.855C292.042 173.008 294.473 169.723 296.839 165.999C301.088 158.684 303.212 153.033 303.212 149.047C303.212 147.864 302.862 146.9 302.161 146.156C301.504 145.411 300.693 145.039 299.73 145.039C297.846 145.039 295.305 146.44 292.108 149.244C288.559 152.354 286.063 155.289 284.617 158.049C283.653 159.932 283.171 162.013 283.171 164.291C283.171 166.963 284.004 169.635 285.668 172.307C286.72 174.015 288.012 175.198 289.545 175.855ZM274.104 186.04C271.826 186.04 270.008 185.361 268.65 184.003C267.292 182.601 266.613 180.74 266.613 178.418C266.613 174.782 267.599 170.883 269.57 166.722C271.541 162.561 274.038 158.815 277.061 155.486C280.127 152.113 283.653 149.288 287.64 147.01C291.451 144.776 295.284 143.659 299.138 143.659C300.715 143.659 302.008 144.163 303.015 145.17C304.023 146.178 304.526 147.47 304.526 149.047C304.526 151.193 303.76 154.194 302.227 158.049C303.146 156.778 304.57 155.07 306.498 152.923C308.118 151.215 309.542 149.069 310.768 146.484C313.397 141.096 314.711 135.555 314.711 129.86C314.711 124.647 313.55 121.428 311.228 120.201C310.834 120.201 310.637 120.092 310.637 119.873C310.637 119.61 310.79 119.194 311.097 118.624C312.893 115.646 315.521 113.521 318.982 112.251C322.442 110.98 326.013 110.345 329.692 110.345C331.62 110.345 333.897 110.608 336.526 111.134C339.198 111.616 341.366 111.856 343.031 111.856C344.783 111.856 346.491 111.506 348.156 110.805C349.864 110.06 351.113 109.097 351.901 107.914C352.164 108.002 352.295 108.286 352.295 108.768C352.295 110.389 351.529 112.338 349.996 114.616C348.068 117.069 345.265 118.296 341.585 118.296C340.359 118.296 337.884 117.88 334.16 117.047C330.481 116.171 327.261 115.733 324.501 115.733C320.69 115.733 317.274 116.741 314.251 118.756C315.609 121.822 316.288 125.918 316.288 131.043C316.288 140.33 313.769 149.375 308.732 158.18C303.869 166.722 299.335 172.833 295.13 176.512H296.05C302.708 176.512 309.87 171.365 317.536 161.071C318.237 161.071 318.588 161.312 318.588 161.794C310.484 172.614 302.818 178.024 295.59 178.024C294.933 178.024 294.254 177.98 293.553 177.892C289.173 181.309 284.442 183.696 279.36 185.054C277.608 185.711 275.856 186.04 274.104 186.04Z" fill="#0C0F20"/>
<path d="M240.796 186.04C238.693 186.04 236.985 185.361 235.671 184.003C234.401 182.645 233.765 180.827 233.765 178.549C233.765 177.498 234.05 176.228 234.62 174.738C228.312 182.273 222.551 186.04 217.339 186.04C215.192 186.04 213.484 185.361 212.213 184.003C210.899 182.601 210.242 180.739 210.242 178.418C210.242 174.782 211.228 170.883 213.199 166.722C215.17 162.56 217.667 158.815 220.69 155.486C223.756 152.113 227.282 149.31 231.268 147.075C235.255 144.798 239.088 143.659 242.767 143.659C245.921 143.659 247.586 145.455 247.761 149.047C247.761 151.062 246.929 153.975 245.264 157.786C247.673 154.5 249.469 151.806 250.652 149.704C251.879 147.557 252.492 145.783 252.492 144.381C253.85 144.381 254.945 144.82 255.777 145.696C256.653 146.572 257.091 147.733 257.091 149.178C257.091 150.886 256.106 153.383 254.135 156.669C252.163 159.954 249.995 163.13 247.63 166.196C245.308 169.219 243.161 172.263 241.19 175.33C239.219 178.396 238.233 180.586 238.233 181.9C238.233 183.652 239.088 184.594 240.796 184.726C242.636 184.726 244.717 184.047 247.038 182.689C249.36 181.331 251.397 179.841 253.149 178.221C254.901 176.556 256.894 174.388 259.128 171.716C261.406 169.044 263.005 167.094 263.925 165.868L267.407 161.071L267.736 161.005C267.955 161.005 268.13 161.093 268.262 161.268C268.437 161.4 268.524 161.575 268.524 161.794V161.86L265.042 166.722C264.122 167.948 262.479 169.942 260.114 172.701C257.792 175.461 255.712 177.673 253.872 179.338C252.032 181.002 249.907 182.535 247.498 183.937C245.089 185.339 242.855 186.04 240.796 186.04ZM218.061 184.726C220.295 184.726 222.836 183.652 225.683 181.506C228.574 179.36 231.422 176.6 234.225 173.227C237.029 169.854 239.504 166.262 241.65 162.451C244.848 156.713 246.447 152.244 246.447 149.047C246.447 146.375 245.439 145.039 243.424 145.039C241.278 145.039 238.65 146.44 235.539 149.244C232.429 152.047 229.363 155.486 226.34 159.56C223.318 163.634 220.777 167.729 218.718 171.847C216.66 175.965 215.63 179.316 215.63 181.9C215.63 182.689 215.871 183.368 216.353 183.937C216.835 184.463 217.404 184.726 218.061 184.726Z" fill="#0C0F20"/>
<path d="M190.075 186.04C189.024 186.04 188.038 185.514 187.118 184.463C186.242 183.368 185.804 181.966 185.804 180.257C185.804 176.446 187.272 172.132 190.207 167.313C191.433 165.254 192.66 163.283 193.886 161.4C196.821 156.756 198.289 152.42 198.289 148.389C198.289 146.769 197.916 145.958 197.172 145.958C193.667 145.958 185.936 154.391 173.977 171.256C171.611 174.322 169.487 176.994 167.603 179.272C165.194 182.426 162.675 184.003 160.047 184.003C155.36 184.003 152.885 181.703 152.622 177.104L152.688 176.184C152.732 176.096 152.753 175.986 152.753 175.855C152.797 174.278 153.958 171.869 156.236 168.627L158.339 165.67C159.302 164.269 159.784 162.976 159.784 161.794C160.967 161.794 161.996 162.166 162.872 162.911C163.748 163.655 164.187 164.619 164.187 165.802C164.187 167.51 163.048 169.963 160.77 173.161C158.492 176.359 157.353 178.571 157.353 179.798C157.353 181.681 158.295 182.623 160.178 182.623C162.412 182.623 164.515 181.243 166.486 178.483C168.457 176.249 170.976 173.052 174.043 168.89C185.476 152.551 193.382 144.381 197.763 144.381C199.384 144.381 200.698 145.038 201.705 146.353C202.713 147.667 203.238 149.463 203.282 151.741C203.107 158.005 201.574 163.239 198.683 167.445C197.369 169.416 196.055 171.343 194.74 173.227C193.426 175.11 192.309 177.147 191.389 179.338C190.513 181.528 190.075 183.762 190.075 186.04Z" fill="#0C0F20"/>
<path d="M135.28 186.04C134.229 186.04 133.243 185.514 132.323 184.463C131.447 183.368 131.009 181.966 131.009 180.257C131.009 176.446 132.477 172.132 135.412 167.313C136.638 165.254 137.865 163.283 139.091 161.4C142.026 156.756 143.494 152.42 143.494 148.389C143.494 146.769 143.121 145.958 142.377 145.958C138.872 145.958 131.141 154.391 119.182 171.256C116.817 174.322 114.692 176.994 112.808 179.272C110.399 182.426 107.88 184.003 105.252 184.003C100.565 184.003 98.09 181.703 97.8271 177.104L97.8929 176.184C97.9367 176.096 97.9586 175.986 97.9586 175.855C98.0024 174.278 99.1632 171.869 101.441 168.627L103.544 165.67C104.507 164.269 104.989 162.976 104.989 161.794C106.172 161.794 107.201 162.166 108.077 162.911C108.954 163.655 109.392 164.619 109.392 165.802C109.392 167.51 108.253 169.963 105.975 173.161C103.697 176.359 102.558 178.571 102.558 179.798C102.558 181.681 103.5 182.623 105.383 182.623C107.618 182.623 109.72 181.243 111.691 178.483C113.663 176.249 116.181 173.052 119.248 168.89C130.681 152.551 138.587 144.381 142.968 144.381C144.589 144.381 145.903 145.038 146.91 146.353C147.918 147.667 148.444 149.463 148.487 151.741C148.312 158.005 146.779 163.239 143.888 167.445C142.574 169.416 141.26 171.343 139.945 173.227C138.631 175.11 137.514 177.147 136.594 179.338C135.718 181.528 135.28 183.762 135.28 186.04Z" fill="#0C0F20"/>
<path d="M64.9789 186.106C62.6134 186.106 60.7079 185.405 59.2624 184.003C57.773 182.557 57.0283 180.696 57.0283 178.418C57.0283 174.782 58.0139 170.883 59.9851 166.722C61.9564 162.56 64.4532 158.815 67.4758 155.486C70.5421 152.113 74.0684 149.31 78.0546 147.075C82.0408 144.798 85.8738 143.659 89.5534 143.659C91.0865 143.659 92.2912 144.206 93.1673 145.301C94.0872 146.396 94.5471 148.017 94.5471 150.164C94.5471 153.624 93.6272 157.391 91.7874 161.465C89.9476 165.539 87.5164 169.416 84.4939 173.096C90.8018 172.482 96.4307 168.474 101.381 161.071H101.512C101.775 161.071 101.994 161.137 102.169 161.268C102.344 161.4 102.432 161.575 102.432 161.794V161.86C96.825 170.051 90.4514 174.256 83.3112 174.475C80.2887 177.936 77.1347 180.739 73.8494 182.886C70.564 185.032 67.6072 186.106 64.9789 186.106ZM82.7198 173.161C85.8738 169.482 88.4144 165.671 90.3419 161.728C92.2693 157.742 93.233 153.887 93.233 150.164C93.233 146.747 92.2036 145.039 90.1447 145.039C87.6041 145.039 84.0997 147.338 79.6316 151.938C77.529 154.172 75.9958 156.231 75.0321 158.114C74.0684 159.954 73.5865 162.013 73.5865 164.291C73.5865 166.963 74.3969 169.087 76.0177 170.664C77.6823 172.241 79.9163 173.074 82.7198 173.161ZM65.636 184.726C67.6072 184.726 70.0602 183.784 72.9952 181.9C75.9301 179.973 78.7993 177.476 81.6028 174.41C78.7117 174.103 76.4119 173.052 74.7035 171.256C73.039 169.46 72.2067 167.138 72.2067 164.291C72.2067 162.758 72.4038 161.356 72.798 160.085C69.7317 164.247 67.2348 168.299 65.3074 172.241C63.38 176.14 62.4163 179.36 62.4163 181.9C62.4163 183.652 63.4895 184.594 65.636 184.726Z" fill="#0C0F20"/>
<path d="M30.6852 186.04C28.4074 186.04 26.5676 185.427 25.1658 184.2C23.8079 182.974 23.1289 181.353 23.1289 179.338C23.1289 177.673 23.6984 175.855 24.8373 173.884C25.9762 171.913 27.0933 170.139 28.1884 168.562C29.3273 166.941 29.8968 165.78 29.8968 165.079C29.8968 164.422 29.2397 163.941 27.9255 163.634C26.6114 163.327 25.0782 163.174 23.326 163.174C21.8805 163.174 19.9093 163.327 17.4124 163.634C15.8792 165.386 12.7472 169.635 8.01627 176.381C6.70213 178.352 5.82604 179.907 5.38799 181.046C4.94994 182.185 4.73092 183.456 4.73092 184.857C3.37297 184.857 2.25595 184.397 1.37985 183.477C0.45995 182.514 0 181.309 0 179.864C0 177.41 2.23404 172.986 6.70213 166.591C8.36671 164.094 9.89988 161.86 11.3016 159.889L17.5438 151.938C19.6902 148.784 20.7635 146.2 20.7635 144.185C22.1214 144.185 23.2384 144.645 24.1145 145.564C24.9906 146.441 25.4287 147.601 25.4287 149.047C25.4287 151.193 24.7059 153.318 23.2603 155.42L23.1289 155.618C29.7872 148.258 35.3285 144.579 39.7528 144.579C42.1183 144.579 44.0019 145.148 45.4036 146.287C46.8492 147.426 47.572 148.937 47.572 150.821C47.572 153.449 46.1045 156.078 43.1696 158.706C41.7679 158.793 40.5851 158.837 39.6214 158.837C36.9931 158.837 35.679 158.487 35.679 157.786C35.679 157.523 35.8323 157.238 36.1389 156.932C37.6283 155.267 38.8329 153.624 39.7528 152.004C40.7165 150.383 41.1984 149.091 41.1984 148.127C41.1984 146.813 40.5851 146.09 39.3586 145.959C36.0294 145.959 31.7585 148.74 26.5457 154.303C24.1802 156.625 22.0557 158.487 20.1721 159.889C19.4274 161.028 18.8141 161.882 18.3323 162.451C19.4712 162.364 20.6101 162.254 21.7491 162.123C22.9318 161.991 23.9174 161.926 24.7059 161.926C26.5895 161.926 27.9693 161.991 28.8454 162.123L31.6709 162.78C34.4305 163.7 35.8104 165.277 35.8104 167.511C35.8104 169 35.1971 170.73 33.9706 172.701L33.4449 173.556C32.3936 175.22 31.3423 176.819 30.291 178.352C29.1083 180.148 28.5169 181.594 28.5169 182.689C28.5169 183.302 28.714 183.806 29.1083 184.2C29.5025 184.551 30.0282 184.726 30.6852 184.726C34.8467 184.726 39.3148 182.36 44.0895 177.63C48.2072 173.512 52.8067 167.992 57.888 161.071L58.2165 161.006C58.6984 161.006 58.9393 161.29 58.9393 161.86C56.7053 164.795 54.7779 167.292 53.1571 169.35C51.5801 171.365 49.7403 173.512 47.6377 175.79C45.5789 178.068 43.6734 179.907 41.9212 181.309C40.2128 182.667 38.373 183.806 36.4018 184.726C34.4305 185.602 32.525 186.04 30.6852 186.04Z" fill="#0C0F20"/>
<path d="M341.844 87.7401C336.438 87.7401 331.883 86.5364 328.178 84.1292C324.474 81.6885 321.654 78.3284 319.719 74.0488C317.817 69.7358 316.832 64.7709 316.766 59.154C316.832 53.4368 317.833 48.4384 319.769 44.1588C321.738 39.8458 324.574 36.5024 328.279 34.1286C331.983 31.7548 336.521 30.5679 341.894 30.5679C347.133 30.5679 351.738 31.8384 355.709 34.3794C359.714 36.8869 362.484 40.3473 364.019 44.7606L358.412 46.8168C357.044 43.44 354.892 40.8321 351.955 38.9932C349.018 37.1209 345.648 36.1848 341.844 36.1848C337.572 36.1848 334.052 37.1711 331.282 39.1437C328.512 41.0829 326.443 43.7743 325.075 47.218C323.707 50.6617 322.989 54.6404 322.923 59.154C323.023 66.0748 324.641 71.6416 327.778 75.8543C330.948 80.0335 335.637 82.1232 341.844 82.1232C345.681 82.1232 349.002 81.2372 351.805 79.4651C354.641 77.6931 356.811 75.1187 358.312 71.7419L364.019 73.6978C361.916 78.2782 358.98 81.7721 355.209 84.1793C351.438 86.5532 346.983 87.7401 341.844 87.7401Z" fill="black"/>
<path d="M301.783 32.0723V86.2354H296.126V41.7514L265.191 86.2354H260.136V32.0723H265.792V76.3557L296.727 32.0723H301.783Z" fill="black"/>
<path d="M203.24 86.2354V32.0723H224.714C225.649 32.0723 226.934 32.1391 228.569 32.2729C230.237 32.3732 231.822 32.6239 233.324 33.0251C236.494 33.8276 238.964 35.4993 240.732 38.0402C242.534 40.5812 243.435 43.5401 243.435 46.917C243.435 48.7224 243.168 50.3941 242.634 51.9321C242.134 53.4366 241.366 54.774 240.332 55.9442C239.865 56.5125 239.331 57.0308 238.73 57.4989C238.129 57.9335 237.545 58.2845 236.978 58.552C237.979 58.7526 239.114 59.2709 240.382 60.1067C242.317 61.3103 243.752 62.8984 244.687 64.8711C245.621 66.8437 246.088 69.1172 246.088 71.6916C246.088 75.4028 245.187 78.4118 243.385 80.7188C241.617 83.0257 239.314 84.5804 236.478 85.3828C235.109 85.7841 233.658 86.0348 232.123 86.1351C230.588 86.202 229.186 86.2354 227.918 86.2354H203.24ZM209.047 81.0197H227.768C228.469 81.0197 229.386 80.9696 230.521 80.8692C231.655 80.7355 232.657 80.5683 233.524 80.3677C235.793 79.8328 237.429 78.7462 238.43 77.1079C239.464 75.4362 239.981 73.5973 239.981 71.5913C239.981 68.95 239.197 66.7935 237.629 65.1218C236.06 63.4167 233.925 62.3969 231.222 62.0626C230.454 61.9289 229.637 61.862 228.769 61.862C227.935 61.8286 227.15 61.8118 226.416 61.8118H209.047V81.0197ZM209.047 56.546H225.866C226.667 56.546 227.618 56.4958 228.719 56.3955C229.82 56.2618 230.805 56.0445 231.672 55.7436C233.608 55.0749 235.043 53.9381 235.977 52.3333C236.911 50.695 237.379 48.9397 237.379 47.0674C237.379 44.9611 236.878 43.1389 235.877 41.601C234.876 40.0296 233.424 38.9095 231.522 38.2408C230.187 37.8062 228.786 37.5555 227.317 37.4886C225.882 37.3883 224.981 37.3381 224.614 37.3381H209.047V56.546Z" fill="black"/>
<path d="M164.448 87.7401C159.576 87.7401 155.455 86.4696 152.084 83.9286C148.714 81.3876 146.144 77.9606 144.376 73.6476C142.607 69.3346 141.723 64.47 141.723 59.0537C141.723 53.6039 142.607 48.7393 144.376 44.4597C146.144 40.1467 148.764 36.7532 152.234 34.2791C155.705 31.8049 159.96 30.5679 164.999 30.5679C169.904 30.5679 174.092 31.8216 177.563 34.3292C181.033 36.8368 183.67 40.247 185.472 44.56C187.307 48.873 188.225 53.7042 188.225 59.0537C188.225 64.47 187.29 69.3514 185.422 73.6978C183.586 78.0108 180.9 81.4378 177.363 83.9787C173.859 86.4863 169.554 87.7401 164.448 87.7401ZM140.771 110.308V32.0724H146.027V73.7981H146.528V110.308H140.771ZM164.098 82.2235C168.069 82.2235 171.373 81.2037 174.009 79.1642C176.678 77.1248 178.681 74.3665 180.016 70.8893C181.384 67.3787 182.068 63.4335 182.068 59.0537C182.068 54.7072 181.4 50.8122 180.066 47.3685C178.764 43.8913 176.779 41.1497 174.109 39.1437C171.473 37.1042 168.102 36.0845 163.998 36.0845C160.026 36.0845 156.706 37.0708 154.036 39.0434C151.367 40.9826 149.364 43.6907 148.03 47.1679C146.695 50.645 146.027 54.6069 146.027 59.0537C146.027 63.467 146.678 67.4289 147.98 70.9395C149.314 74.4166 151.317 77.1749 153.986 79.2144C156.689 81.2204 160.06 82.2235 164.098 82.2235Z" fill="black"/>
<path d="M101.067 87.7401C95.895 87.7401 91.4233 86.5866 87.6524 84.2797C83.8815 81.9393 80.9615 78.646 78.8925 74.3999C76.8236 70.1203 75.7891 65.0718 75.7891 59.2543C75.7891 53.3364 76.8069 48.2378 78.8425 43.9582C80.9115 39.6452 83.8147 36.3352 87.5523 34.0283C91.3232 31.7213 95.7949 30.5679 100.967 30.5679C106.207 30.5679 110.678 31.7715 114.382 34.1787C118.12 36.5526 120.956 39.9963 122.892 44.5099C124.861 49.0235 125.795 54.4565 125.695 60.809H119.688V58.8029C119.521 51.3806 117.853 45.7302 114.683 41.8519C111.513 37.9735 106.974 36.0343 101.067 36.0343C94.9606 36.0343 90.2386 38.0571 86.9015 42.1026C83.5978 46.1147 81.946 51.7985 81.946 59.154C81.946 66.4426 83.5978 72.0929 86.9015 76.105C90.2386 80.1171 94.9272 82.1232 100.967 82.1232C105.139 82.1232 108.776 81.1536 111.88 79.2144C115.016 77.2418 117.503 74.4333 119.338 70.789L124.544 73.096C122.375 77.7767 119.238 81.3876 115.133 83.9286C111.029 86.4696 106.34 87.7401 101.067 87.7401ZM79.7435 60.809V55.5932H122.441V60.809H79.7435Z" fill="black"/>
<path d="M32.7868 87.7403C25.6121 87.7403 19.5887 86.1521 14.7165 82.9759C9.84439 79.7662 6.1736 75.3362 3.70416 69.6859C1.23472 64.0355 0 57.5159 0 50.127C0 42.738 1.23472 36.2184 3.70416 30.5681C6.1736 24.9177 9.84439 20.5044 14.7165 17.3282C19.5887 14.1185 25.6121 12.5137 32.7868 12.5137C41.1629 12.5137 47.9538 14.6869 53.1597 19.0333C58.3989 23.3797 61.9529 29.1973 63.8216 36.4859L57.865 37.9403C56.3299 31.8887 53.46 27.0909 49.2553 23.5469C45.0839 19.9695 39.5945 18.1807 32.7868 18.1807C26.8802 18.1807 21.958 19.5348 18.0202 22.243C14.1158 24.9511 11.1625 28.7125 9.16028 33.527C7.19141 38.3415 6.19028 43.8748 6.15691 50.127C6.09017 56.3791 7.04124 61.9125 9.01011 66.727C11.0124 71.508 13.999 75.2694 17.9702 78.011C21.9413 80.7191 26.8802 82.0732 32.7868 82.0732C39.5945 82.0732 45.0839 80.2845 49.2553 76.707C53.46 73.1296 56.3299 68.3318 57.865 62.3137L63.8216 63.7681C61.9529 71.0567 58.3989 76.8742 53.1597 81.2206C47.9538 85.567 41.1629 87.7403 32.7868 87.7403Z" fill="black"/>
<path d="M260.599 216.58C260.599 216.58 260.349 223.749 262.965 226.609C265.581 229.469 272.138 229.196 272.138 229.196C272.138 229.196 265.581 228.923 262.965 231.784C260.349 234.644 260.599 241.813 260.599 241.813C260.599 241.813 260.849 234.644 258.233 231.784C255.617 228.923 249.06 229.196 249.06 229.196C249.06 229.196 255.617 229.469 258.233 226.609C260.849 223.749 260.599 216.58 260.599 216.58Z" fill="#F5E3B3"/>
</svg>
