<svg width="700" height="460" viewBox="0 0 700 460" fill="none" xmlns="http://www.w3.org/2000/svg">
<path d="M12.514 39.9609C12.514 39.9609 12.2432 47.3703 15.0802 50.3264C17.9172 53.2824 25.0281 53.0002 25.0281 53.0002C25.0281 53.0002 17.9172 52.718 15.0802 55.6741C12.2432 58.6301 12.514 66.0395 12.514 66.0395C12.514 66.0395 12.7849 58.6301 9.94791 55.6741C7.11094 52.718 0 53.0002 0 53.0002C0 53.0002 7.11094 53.2824 9.94791 50.3264C12.7849 47.3703 12.514 39.9609 12.514 39.9609Z" fill="#F5E3B3"/>
<path d="M485.299 400.219V355.251H503.161C503.938 355.251 505.007 355.306 506.367 355.418C507.755 355.501 509.074 355.709 510.323 356.042C512.96 356.708 515.014 358.096 516.485 360.206C517.984 362.315 518.734 364.772 518.734 367.576C518.734 369.075 518.511 370.462 518.067 371.739C517.651 372.988 517.013 374.099 516.152 375.07C515.763 375.542 515.319 375.972 514.82 376.361C514.32 376.722 513.834 377.013 513.362 377.235C514.195 377.402 515.139 377.832 516.194 378.526C517.804 379.526 518.997 380.844 519.775 382.482C520.552 384.12 520.94 386.007 520.94 388.144C520.94 391.226 520.191 393.724 518.692 395.639C517.221 397.554 515.305 398.845 512.946 399.511C511.808 399.845 510.6 400.053 509.324 400.136C508.047 400.191 506.881 400.219 505.826 400.219H485.299ZM490.129 395.889H505.701C506.284 395.889 507.047 395.847 507.991 395.764C508.935 395.653 509.768 395.514 510.489 395.348C512.377 394.904 513.737 394.001 514.57 392.641C515.43 391.253 515.861 389.727 515.861 388.061C515.861 385.868 515.208 384.078 513.904 382.69C512.599 381.274 510.822 380.428 508.574 380.15C507.936 380.039 507.256 379.984 506.534 379.984C505.84 379.956 505.188 379.942 504.577 379.942H490.129V395.889ZM490.129 375.57H504.119C504.785 375.57 505.576 375.528 506.492 375.445C507.408 375.334 508.227 375.154 508.949 374.904C510.559 374.349 511.752 373.405 512.53 372.072C513.307 370.712 513.695 369.255 513.695 367.701C513.695 365.952 513.279 364.439 512.446 363.162C511.614 361.857 510.406 360.928 508.824 360.372C507.714 360.012 506.548 359.803 505.326 359.748C504.133 359.665 503.383 359.623 503.078 359.623H490.129V375.57Z" fill="black"/>
<path d="M451.863 401.468C447.394 401.468 443.605 400.455 440.496 398.429C437.388 396.403 435.014 393.599 433.377 390.018C431.739 386.437 430.92 382.315 430.92 377.652C430.92 372.961 431.753 368.839 433.418 365.286C435.084 361.705 437.471 358.929 440.58 356.958C443.716 354.987 447.478 354.002 451.863 354.002C456.333 354.002 460.122 355.015 463.23 357.041C466.367 359.04 468.74 361.816 470.35 365.369C471.988 368.922 472.807 373.016 472.807 377.652C472.807 382.399 471.988 386.562 470.35 390.143C468.713 393.696 466.325 396.472 463.189 398.471C460.052 400.469 456.277 401.468 451.863 401.468ZM451.863 396.805C457.165 396.805 461.121 395.029 463.73 391.476C466.367 387.922 467.686 383.315 467.686 377.652C467.686 371.878 466.367 367.27 463.73 363.828C461.093 360.386 457.138 358.665 451.863 358.665C448.283 358.665 445.326 359.484 442.995 361.122C440.663 362.732 438.914 364.966 437.748 367.826C436.61 370.657 436.041 373.932 436.041 377.652C436.041 383.426 437.374 388.061 440.038 391.559C442.731 395.056 446.673 396.805 451.863 396.805Z" fill="black"/>
<path d="M377.881 410.212V395.847C380.462 395.847 382.322 395.028 383.46 393.391C384.626 391.753 385.57 389.185 386.292 385.688C386.763 383.356 387.152 380.83 387.457 378.11C387.791 375.39 388.068 372.197 388.29 368.533C388.54 364.869 388.79 360.442 389.04 355.251H417.52V395.847H421.725V410.212H417.062V400.219H382.586V410.212H377.881ZM387.249 395.847H412.69V359.623H393.661C393.55 361.899 393.412 364.328 393.245 366.909C393.078 369.463 392.884 372.017 392.662 374.571C392.44 377.124 392.176 379.526 391.871 381.774C391.566 384.022 391.205 385.965 390.788 387.603C390.344 389.463 389.872 391.087 389.373 392.475C388.873 393.863 388.165 394.987 387.249 395.847Z" fill="black"/>
<path d="M329.575 400.219V355.251H334.363V375.403H361.469V355.251H366.258V400.219H361.469V380.067H334.363V400.219H329.575Z" fill="black"/>
<path d="M296.548 401.468C292.246 401.468 288.526 400.511 285.39 398.595C282.253 396.652 279.824 393.918 278.103 390.393C276.382 386.84 275.521 382.648 275.521 377.818C275.521 372.905 276.368 368.672 278.061 365.119C279.782 361.538 282.197 358.79 285.306 356.875C288.443 354.96 292.163 354.002 296.465 354.002C300.823 354.002 304.543 355.001 307.624 357C310.733 358.971 313.092 361.83 314.702 365.577C316.34 369.324 317.117 373.835 317.034 379.109H312.037V377.444C311.899 371.281 310.511 366.59 307.874 363.37C305.237 360.15 301.462 358.54 296.548 358.54C291.469 358.54 287.541 360.22 284.765 363.579C282.017 366.91 280.643 371.628 280.643 377.735C280.643 383.786 282.017 388.478 284.765 391.809C287.541 395.14 291.441 396.805 296.465 396.805C299.935 396.805 302.96 396 305.542 394.39C308.151 392.752 310.219 390.421 311.746 387.395L316.076 389.31C314.272 393.197 311.663 396.194 308.248 398.304C304.834 400.414 300.934 401.468 296.548 401.468ZM278.811 379.109V374.779H314.327V379.109H278.811Z" fill="black"/>
<path d="M245.752 401.468C241.699 401.468 238.271 400.414 235.468 398.304C232.664 396.194 230.527 393.349 229.056 389.768C227.584 386.188 226.849 382.149 226.849 377.652C226.849 373.127 227.584 369.089 229.056 365.535C230.527 361.955 232.706 359.137 235.593 357.083C238.479 355.029 242.019 354.002 246.21 354.002C250.291 354.002 253.774 355.043 256.661 357.125C259.548 359.207 261.741 362.038 263.24 365.619C264.766 369.2 265.53 373.211 265.53 377.652C265.53 382.149 264.753 386.201 263.198 389.81C261.671 393.391 259.437 396.236 256.494 398.346C253.58 400.428 249.999 401.468 245.752 401.468ZM226.058 420.205V355.251H230.43V389.893H230.846V420.205H226.058ZM245.461 396.888C248.764 396.888 251.512 396.042 253.705 394.348C255.925 392.655 257.591 390.365 258.701 387.478C259.839 384.564 260.408 381.288 260.408 377.652C260.408 374.043 259.853 370.81 258.743 367.95C257.66 365.064 256.009 362.787 253.788 361.122C251.595 359.429 248.792 358.582 245.377 358.582C242.074 358.582 239.312 359.401 237.091 361.039C234.871 362.649 233.205 364.897 232.095 367.784C230.985 370.671 230.43 373.96 230.43 377.652C230.43 381.316 230.971 384.605 232.053 387.52C233.164 390.407 234.829 392.697 237.05 394.39C239.298 396.056 242.102 396.888 245.461 396.888Z" fill="black"/>
<path d="M192.404 401.469C188.213 401.469 184.618 400.58 181.62 398.804C178.622 397.027 176.305 394.321 174.667 390.685C173.029 387.02 172.183 382.371 172.127 376.736C172.071 374.377 172.155 371.823 172.377 369.075C172.599 366.327 172.904 363.731 173.293 361.289C173.709 358.846 174.153 356.903 174.625 355.459C175.291 353.35 176.291 351.393 177.623 349.589C178.983 347.756 180.579 346.258 182.411 345.092C184.077 343.981 186.006 343.107 188.199 342.469C190.392 341.83 192.682 341.33 195.069 340.97C204.855 339.49 211.517 338.18 217.346 334.433C229.01 326.934 231.503 320.276 231.503 320.276C231.503 320.276 228.102 329.65 220.261 336.931C214.432 342.344 207.77 342.76 204.313 343.593C202.247 344.09 199.122 344.87 196.818 345.258C194.514 345.619 192.307 346.105 190.198 346.716C188.088 347.326 186.284 348.103 184.785 349.047C182.453 350.463 180.663 352.628 179.414 355.543C178.164 358.457 177.387 361.858 177.082 365.744C178.803 362.996 181.135 360.886 184.077 359.415C187.019 357.944 190.267 357.208 193.82 357.208C197.873 357.208 201.37 358.138 204.313 359.998C207.283 361.858 209.559 364.453 211.141 367.784C212.751 371.087 213.556 374.946 213.556 379.359C213.556 383.828 212.709 387.728 211.016 391.059C209.323 394.362 206.894 396.93 203.73 398.762C200.565 400.594 196.79 401.496 192.404 401.469ZM192.821 396.805C197.928 396.805 201.801 395.223 204.438 392.059C207.102 388.866 208.435 384.633 208.435 379.359C208.435 373.946 207.061 369.685 204.313 366.577C201.565 363.468 197.706 361.913 192.737 361.913C187.769 361.913 183.938 363.468 181.246 366.577C178.581 369.685 177.248 373.946 177.248 379.359C177.248 384.744 178.581 389.005 181.246 392.142C183.91 395.251 187.769 396.805 192.821 396.805Z" fill="black"/>
<path d="M134.682 400.219V382.648H123.315C122.066 382.648 120.83 382.593 119.609 382.482C118.416 382.343 117.291 382.176 116.236 381.982C113.183 381.399 110.56 380.067 108.367 377.985C106.202 375.875 105.119 372.919 105.119 369.116C105.119 365.452 106.119 362.51 108.117 360.289C110.144 358.068 112.517 356.611 115.237 355.917C116.542 355.584 117.846 355.39 119.151 355.334C120.483 355.279 121.649 355.251 122.649 355.251H139.47L139.553 400.219H134.682ZM103.537 400.219L116.694 380.775H122.232L108.992 400.219H103.537ZM123.273 378.276H134.682V359.623H123.273C122.524 359.623 121.483 359.651 120.15 359.706C118.818 359.762 117.583 359.97 116.445 360.331C115.473 360.608 114.502 361.108 113.53 361.83C112.559 362.524 111.754 363.467 111.115 364.661C110.477 365.855 110.157 367.312 110.157 369.033C110.157 371.448 110.81 373.377 112.114 374.82C113.419 376.236 115.071 377.194 117.069 377.693C118.207 377.971 119.318 378.138 120.4 378.193C121.511 378.249 122.468 378.276 123.273 378.276Z" fill="black"/>
<path d="M51.373 400.219V395.889C53.0663 396.194 54.3432 396.111 55.2037 395.639C56.0642 395.139 56.6887 394.335 57.0774 393.224C57.4937 392.086 57.8268 390.712 58.0767 389.102C58.5485 386.326 58.9649 383.301 59.3258 380.025C59.6866 376.722 60.0197 373.044 60.3251 368.991C60.6304 364.911 60.9357 360.331 61.2411 355.251H91.0117V400.219H86.1818V359.914H65.9045C65.6824 363.245 65.4326 366.479 65.155 369.616C64.9052 372.753 64.6276 375.737 64.3222 378.568C64.0447 381.371 63.7393 383.939 63.4062 386.271C63.1009 388.575 62.7678 390.573 62.4069 392.267C61.9906 394.487 61.4215 396.278 60.6998 397.638C60.0058 398.97 58.9372 399.858 57.4937 400.303C56.0503 400.747 54.0101 400.719 51.373 400.219Z" fill="black"/>
<path d="M0 410.212V395.847C2.58151 395.847 4.44131 395.028 5.5794 393.391C6.74524 391.753 7.68902 389.185 8.41073 385.688C8.88262 383.356 9.27124 380.83 9.57658 378.11C9.90967 375.39 10.1873 372.197 10.4093 368.533C10.6591 364.869 10.909 360.442 11.1588 355.251H39.6387V395.847H43.8441V410.212H39.1807V400.219H4.70501V410.212H0ZM9.36839 395.847H34.8088V359.623H15.7805C15.6695 361.899 15.5307 364.328 15.3642 366.909C15.1976 369.463 15.0033 372.017 14.7812 374.571C14.5592 377.124 14.2955 379.526 13.9901 381.774C13.6848 384.022 13.3239 385.965 12.9076 387.603C12.4634 389.463 11.9915 391.087 11.4919 392.475C10.9922 393.863 10.2844 394.987 9.36839 395.847Z" fill="black"/>
<path d="M649.341 251.741C643.012 257.07 634.268 260.818 629.272 260.818C625.941 260.818 624.026 258.736 624.026 256.154C624.026 254.489 624.359 252.74 625.192 250.575C622.027 253.573 614.616 261.317 605.872 261.317C602.291 261.317 597.711 259.485 597.711 253.906C597.711 245.911 610.868 232.171 610.868 226.592C610.868 225.093 610.702 223.927 609.203 223.927C606.871 223.927 605.039 225.426 603.041 226.758C602.541 227.091 602.374 227.258 602.208 227.258C602.041 227.258 601.875 227.091 601.875 226.925C601.875 226.758 601.875 226.592 602.374 226.259C605.039 224.427 609.036 221.595 612.367 221.595C615.698 221.595 617.197 223.094 617.197 226.259C617.197 231.422 604.373 246.328 604.373 252.74C604.373 256.071 605.955 257.736 609.702 257.736C614.616 257.736 621.361 252.657 626.524 247.66C629.605 241.165 635.101 231.089 637.1 227.758C638.599 225.259 640.098 222.844 641.264 222.844C642.18 222.844 645.177 223.76 645.177 225.509C645.177 228.091 638.432 234.503 635.101 240.499C633.019 244.246 630.021 248.909 630.021 253.822C630.021 255.988 631.354 257.82 634.019 257.82C637.599 257.82 644.012 254.738 648.675 250.908C653.671 247.077 656.669 243.413 660 239.249C660.333 238.75 660.5 238.75 660.666 238.75C660.833 238.75 661 238.916 661 239.083C661 239.249 661 239.249 660.833 239.583C656.669 245.245 652.173 249.575 649.341 251.741Z" fill="black"/>
<path d="M591.85 251.741C585.521 257.07 576.777 260.818 571.781 260.818C568.45 260.818 566.534 258.736 566.534 256.154C566.534 254.489 566.868 252.74 567.7 250.575C564.536 253.573 557.124 261.317 548.381 261.317C544.8 261.317 540.22 259.485 540.22 253.906C540.22 245.911 553.377 232.171 553.377 226.592C553.377 225.093 553.211 223.927 551.712 223.927C549.38 223.927 547.548 225.426 545.549 226.758C545.05 227.091 544.883 227.258 544.717 227.258C544.55 227.258 544.383 227.091 544.383 226.925C544.383 226.758 544.383 226.592 544.883 226.259C547.548 224.427 551.545 221.595 554.876 221.595C558.207 221.595 559.706 223.094 559.706 226.259C559.706 231.422 546.882 246.328 546.882 252.74C546.882 256.071 548.464 257.736 552.211 257.736C557.124 257.736 563.87 252.657 569.033 247.66C572.114 241.165 577.61 231.089 579.609 227.758C581.108 225.259 582.606 222.844 583.772 222.844C584.688 222.844 587.686 223.76 587.686 225.509C587.686 228.091 580.941 234.503 577.61 240.499C575.528 244.246 572.53 248.909 572.53 253.822C572.53 255.988 573.863 257.82 576.527 257.82C580.108 257.82 586.52 254.738 591.184 250.908C596.18 247.077 599.178 243.413 602.509 239.249C602.842 238.75 603.009 238.75 603.175 238.75C603.342 238.75 603.508 238.916 603.508 239.083C603.508 239.249 603.508 239.249 603.342 239.583C599.178 245.245 594.681 249.575 591.85 251.741Z" fill="black"/>
<path d="M520.451 259.568C513.539 265.731 505.545 275.724 505.545 282.802C505.545 285.134 506.627 286.882 508.376 286.882C509.375 286.882 509.875 285.883 510.208 285.883C510.375 285.883 510.458 285.966 510.458 286.133C510.458 286.799 507.377 288.465 505.461 288.465C503.213 288.465 500.548 287.132 500.548 283.135C500.548 275.057 512.373 265.314 518.702 260.151C517.037 260.568 515.538 260.818 514.289 260.818C510.958 260.818 509.042 258.736 509.042 256.154C509.042 254.489 509.375 252.74 510.208 250.575C507.044 253.573 499.632 261.317 490.888 261.317C487.308 261.317 482.728 259.485 482.728 253.906C482.728 245.911 495.885 232.171 495.885 226.592C495.885 225.093 495.718 223.927 494.219 223.927C491.888 223.927 490.056 225.426 488.057 226.758C487.557 227.091 487.391 227.258 487.224 227.258C487.058 227.258 486.891 227.091 486.891 226.925C486.891 226.758 486.891 226.592 487.391 226.259C490.056 224.427 494.053 221.595 497.384 221.595C500.715 221.595 502.214 223.094 502.214 226.259C502.214 231.422 489.39 246.328 489.39 252.74C489.39 256.071 490.972 257.736 494.719 257.736C499.632 257.736 506.377 252.657 511.541 247.66C514.622 241.165 520.118 231.089 522.116 227.758C523.615 225.259 525.114 222.844 526.28 222.844C527.196 222.844 530.194 223.76 530.194 225.509C530.194 228.091 523.449 234.503 520.118 240.499C518.036 244.246 515.038 248.909 515.038 253.822C515.038 255.988 516.37 257.82 519.035 257.82C522.616 257.82 529.028 254.739 533.692 250.908C538.688 247.077 541.686 243.413 545.017 239.249C545.35 238.75 545.517 238.75 545.683 238.75C545.85 238.75 546.016 238.916 546.016 239.083C546.016 239.249 546.016 239.249 545.85 239.583C541.686 245.245 537.189 249.575 534.358 251.741C530.194 255.238 524.948 258.069 520.451 259.568Z" fill="black"/>
<path d="M476.873 251.741C471.543 255.905 464.382 260.901 457.553 260.901C453.473 260.901 451.058 258.903 451.058 254.073C445.395 257.57 439.649 260.318 435.485 260.318C430.322 260.318 428.157 256.321 428.157 251.158C428.157 238.667 443.563 222.345 456.471 222.345C460.884 222.345 465.714 224.927 467.213 230.256C468.046 230.256 469.378 230.589 469.378 232.088C469.378 237.251 465.214 240.915 462.05 244.246C461.051 245.246 459.552 246.578 458.219 247.911C457.387 250.076 457.22 252.074 457.22 253.407C457.22 255.072 457.72 257.737 461.883 257.737C466.547 257.737 471.543 254.406 476.207 250.908C481.203 247.078 484.201 243.414 487.532 239.25C487.865 238.75 488.032 238.75 488.198 238.75C488.365 238.75 488.531 238.917 488.531 239.083C488.531 239.25 488.531 239.25 488.365 239.583C484.201 245.246 479.704 249.576 476.873 251.741ZM456.221 224.344C445.229 224.344 435.069 239.999 435.069 250.992C435.069 253.823 435.818 257.487 439.649 257.487C444.146 257.487 448.809 254.323 451.224 252.407C452.557 247.744 455.221 242.081 457.553 238.917C459.552 236.086 463.216 231.589 465.881 230.589C464.382 226.759 460.551 224.344 456.221 224.344ZM458.802 246.078C465.298 239.583 467.213 235.919 467.213 234.587C467.213 234.087 466.88 233.92 466.547 233.92C465.048 233.92 461.051 241.415 458.802 246.078Z" fill="black"/>
<path d="M422.616 251.74C414.122 258.569 405.378 262.566 400.382 262.566C397.633 262.566 395.052 260.901 395.052 257.903C395.052 247.743 409.792 238.833 409.792 232.337C409.792 228.174 406.877 227.507 405.378 227.507C400.215 227.507 390.472 236.751 383.56 245.245C383.56 245.245 378.98 253.323 376.149 258.569C362.244 287.382 350.169 315.147 336.013 328.186C320.19 342.759 300.205 336.93 294.375 334.848C288.546 332.767 251.905 315.196 251.905 314.863C251.905 314.863 301.454 334.432 316.859 329.019C328.807 324.821 344.34 321.108 373.234 257.903C381.395 242.913 384.226 236.584 384.226 233.087C384.226 229.673 383.477 228.34 382.561 227.674C382.144 227.341 381.895 227.258 381.895 227.091C381.895 226.758 382.727 226.425 383.394 225.925C385.392 224.426 385.226 223.76 386.725 223.76C388.223 223.76 389.556 225.592 389.556 229.589C389.556 232.254 388.223 236.418 386.891 238.916C398.966 226.925 406.877 222.428 412.373 222.428C414.039 222.428 417.12 223.427 417.12 228.257C417.12 236.918 400.881 249.742 400.881 255.571C400.881 258.402 402.38 259.235 404.545 259.235C409.542 259.235 418.286 253.739 421.95 250.908C426.946 247.077 429.944 243.413 433.275 239.249C433.691 238.75 433.775 238.75 433.941 238.75C434.108 238.75 434.274 238.916 434.274 239.083C434.274 239.249 434.358 239.249 434.108 239.582C429.944 245.245 425.447 249.575 422.616 251.74Z" fill="black"/>
<path d="M353.617 222.345C359.946 222.345 363.943 226.676 363.943 233.337C363.943 248.577 347.871 261.234 335.297 261.234C329.051 261.234 324.638 256.738 324.638 250.492C324.638 236.169 341.043 222.345 353.617 222.345ZM351.202 224.177C342.125 224.177 331.716 238.334 331.716 249.576C331.716 254.989 334.298 259.069 337.878 259.069C347.039 259.069 357.198 244.663 357.198 233.421C357.198 228.091 354.95 224.177 351.202 224.177Z" fill="black"/>
<path d="M328.505 181.54C330.087 178.709 337.915 164.136 350.489 164.136C356.319 164.136 360.649 167.383 367.228 167.383C374.639 167.383 375.222 164.635 376.138 164.635C376.305 164.635 376.388 164.802 376.388 165.052C376.388 165.218 372.807 171.131 363.48 171.131C355.819 171.131 353.654 168.383 347.575 168.383C340.746 168.383 335.5 171.464 331.42 185.537C326.423 202.609 323.842 213.351 314.431 232.171C308.019 245.079 294.029 261.4 279.873 261.4C274.21 261.4 270.879 258.736 270.879 252.906C270.879 238.916 288.033 223.094 299.858 223.094C306.687 223.094 308.019 228.34 308.019 228.674C308.019 229.007 307.187 229.34 306.187 230.006C305.521 230.339 304.355 231.505 304.022 231.505C303.856 231.505 303.689 231.338 303.689 230.672C303.689 229.839 302.19 225.426 297.194 225.426C286.368 225.426 277.374 241.081 277.374 252.074C277.374 256.404 279.873 258.403 283.703 258.403C295.112 258.403 304.688 241.498 309.268 231.422C319.012 210.103 321.593 193.781 328.505 181.54Z" fill="black"/>
<path d="M265.69 251.741C260.361 255.905 253.199 260.901 246.371 260.901C242.29 260.901 239.875 258.903 239.875 254.073C234.212 257.57 228.466 260.318 224.303 260.318C219.14 260.318 216.975 256.321 216.975 251.158C216.975 238.667 232.38 222.345 245.288 222.345C249.702 222.345 254.531 224.927 256.03 230.256C256.863 230.256 258.196 230.589 258.196 232.088C258.196 237.251 254.032 240.915 250.867 244.246C249.868 245.246 248.369 246.578 247.037 247.911C246.204 250.076 246.037 252.074 246.037 253.407C246.037 255.072 246.537 257.737 250.701 257.737C255.364 257.737 260.361 254.406 265.024 250.908C270.02 247.078 273.018 243.414 276.349 239.25C276.682 238.75 276.849 238.75 277.016 238.75C277.182 238.75 277.349 238.917 277.349 239.083C277.349 239.25 277.349 239.25 277.182 239.583C273.018 245.246 268.522 249.576 265.69 251.741ZM245.038 224.344C234.046 224.344 223.886 239.999 223.886 250.992C223.886 253.823 224.636 257.487 228.466 257.487C232.963 257.487 237.627 254.323 240.042 252.407C241.374 247.744 244.039 242.081 246.371 238.917C248.369 236.086 252.033 231.589 254.698 230.589C253.199 226.759 249.368 224.344 245.038 224.344ZM247.62 246.078C254.115 239.583 256.03 235.919 256.03 234.587C256.03 234.087 255.697 233.92 255.364 233.92C253.865 233.92 249.868 241.415 247.62 246.078Z" fill="black"/>
<path d="M178.726 249.826C170.398 258.653 164.402 260.235 162.237 260.235C159.573 260.235 156.741 259.402 156.741 256.071C156.741 252.407 158.906 251.824 160.905 250.159C163.486 247.994 164.652 246.578 165.152 246.578C165.235 246.578 165.402 246.661 165.402 246.828C165.402 246.994 165.152 247.411 164.736 247.827C162.737 249.576 161.738 251.408 161.738 253.406C161.738 255.572 163.153 257.07 165.318 257.07C168.15 257.07 173.729 253.323 179.475 247.244C185.304 241.082 189.551 235.835 192.299 231.838C194.298 228.924 194.964 226.259 196.796 224.593C197.379 224.01 198.878 223.428 200.627 222.761C201.876 222.262 202.959 221.512 203.375 221.512C203.708 221.512 203.875 221.595 203.875 222.012C203.875 222.845 200.544 226.425 198.295 231.006C194.465 238.667 190.634 246.411 190.634 251.824C190.634 254.739 191.3 257.487 195.464 257.487C200.46 257.487 206.206 254.406 210.703 250.908C215.7 247.078 218.697 243.413 222.028 239.25C222.362 238.75 222.528 238.75 222.695 238.75C222.861 238.75 223.028 238.917 223.028 239.083C223.028 239.25 223.028 239.25 222.861 239.583C218.697 245.245 214.201 249.576 211.369 251.741C206.872 255.238 199.045 260.318 190.884 260.318C186.22 260.318 183.556 257.404 183.556 253.49C183.556 248.91 185.971 244.246 190.634 235.919C188.219 238.833 183.139 245.162 178.726 249.826Z" fill="black"/>
<path d="M124.405 249.826C116.078 258.653 110.082 260.235 107.917 260.235C105.252 260.235 102.421 259.402 102.421 256.071C102.421 252.407 104.586 251.824 106.585 250.159C109.166 247.994 110.332 246.578 110.832 246.578C110.915 246.578 111.081 246.661 111.081 246.828C111.081 246.994 110.832 247.411 110.415 247.827C108.417 249.576 107.417 251.408 107.417 253.406C107.417 255.572 108.833 257.07 110.998 257.07C113.83 257.07 119.409 253.323 125.155 247.244C130.984 241.082 135.231 235.835 137.979 231.838C139.978 228.924 140.644 226.259 142.476 224.593C143.059 224.01 144.558 223.428 146.307 222.761C147.556 222.262 148.638 221.512 149.055 221.512C149.388 221.512 149.554 221.595 149.554 222.012C149.554 222.845 146.223 226.425 143.975 231.006C140.144 238.667 136.314 246.411 136.314 251.824C136.314 254.739 136.98 257.487 141.144 257.487C146.14 257.487 151.886 254.406 156.383 250.908C161.379 247.078 164.377 243.413 167.708 239.25C168.041 238.75 168.208 238.75 168.374 238.75C168.541 238.75 168.707 238.917 168.707 239.083C168.707 239.25 168.707 239.25 168.541 239.583C164.377 245.245 159.88 249.576 157.049 251.741C152.552 255.238 144.724 260.318 136.563 260.318C131.9 260.318 129.235 257.404 129.235 253.49C129.235 248.91 131.65 244.246 136.314 235.919C133.899 238.833 128.819 245.162 124.405 249.826Z" fill="black"/>
<path d="M87.3008 222.345C93.6297 222.345 97.6269 226.676 97.6269 233.337C97.6269 248.577 81.5549 261.234 68.9804 261.234C62.7348 261.234 58.3213 256.738 58.3213 250.492C58.3213 236.169 74.7264 222.345 87.3008 222.345ZM84.8859 224.177C75.809 224.177 65.3996 238.334 65.3996 249.576C65.3996 254.989 67.9811 259.069 71.5619 259.069C80.7221 259.069 90.8816 244.663 90.8816 233.421C90.8816 228.091 88.6332 224.177 84.8859 224.177Z" fill="black"/>
<path d="M24.1496 226.508C24.1496 230.589 16.2385 242.664 14.9061 245.162H15.0727L16.4884 243.746C25.482 234.42 39.9718 222.428 46.4672 222.428C48.2992 222.428 50.1313 222.844 50.1313 224.177C50.1313 225.093 48.9654 225.759 47.4665 226.925C46.3839 227.758 45.9676 228.59 45.4679 228.59C45.1348 228.59 45.1348 228.424 45.1348 228.091C45.1348 227.591 44.0522 227.175 42.3868 227.175C38.223 227.175 34.4757 229.673 26.4813 236.418C28.2301 238.583 29.8123 240.499 31.1447 246.161C33.2266 254.822 33.7262 257.903 38.1398 257.903C41.3042 257.903 48.2993 254.072 52.1299 250.908C57.1264 247.077 60.1242 243.413 63.4552 239.249C63.7883 238.75 63.9549 238.75 64.1214 238.75C64.288 238.75 64.4545 238.916 64.4545 239.083C64.4545 239.249 64.4545 239.249 64.288 239.583C60.1242 245.245 55.6274 249.575 52.7961 251.741C48.7989 255.072 39.8052 261.234 33.3931 261.234C27.4806 261.234 26.5646 256.321 25.0656 248.826C24.2329 244.912 22.3176 241.997 21.235 240.998C19.9859 242.164 16.5716 245.578 12.4079 250.825C11.0755 253.073 9.74312 255.321 7.82781 259.235C7.49471 259.902 4.49683 259.902 2.99788 260.068C1.66549 260.235 0.832746 260.984 0.333098 260.984C0.333098 260.984 0 260.984 0 260.651C0 259.818 3.49753 256.737 12.6577 239.249C15.6556 233.587 17.9873 229.256 17.9873 227.258C17.9873 225.093 17.3211 223.927 15.9887 223.927C14.3232 223.927 11.825 225.426 9.8264 226.758C9.32675 227.091 9.1602 227.258 8.99365 227.258C8.8271 227.258 8.66055 227.091 8.66055 226.925C8.66055 226.758 8.66055 226.592 9.1602 226.259C9.8264 225.759 15.4891 221.595 19.1531 221.595C22.4841 221.595 24.1496 223.76 24.1496 226.508Z" fill="black"/>
<path d="M284.35 128.328C279.853 128.328 276.064 127.329 272.983 125.33C269.901 123.304 267.556 120.514 265.946 116.961C264.364 113.381 263.545 109.258 263.489 104.595C263.545 99.8484 264.378 95.6986 265.987 92.1455C267.625 88.5647 269.985 85.7889 273.066 83.8181C276.147 81.8472 279.922 80.8618 284.391 80.8618C288.749 80.8618 292.58 81.9166 295.883 84.0262C299.214 86.1081 301.518 88.9811 302.795 92.6452L298.131 94.3523C296.993 91.5487 295.203 89.3836 292.76 87.8569C290.318 86.3024 287.514 85.5252 284.35 85.5252C280.796 85.5252 277.868 86.3441 275.564 87.9818C273.26 89.5918 271.539 91.8263 270.401 94.6854C269.263 97.5445 268.666 100.848 268.611 104.595C268.694 110.341 270.04 114.963 272.649 118.46C275.286 121.93 279.187 123.665 284.35 123.665C287.542 123.665 290.304 122.929 292.635 121.458C294.995 119.987 296.799 117.85 298.048 115.046L302.795 116.67C301.046 120.473 298.603 123.373 295.467 125.372C292.33 127.343 288.624 128.328 284.35 128.328Z" fill="black"/>
<path d="M251.026 82.1113V127.08H246.321V90.1473L220.589 127.08H216.384V82.1113H221.089V118.877L246.821 82.1113H251.026Z" fill="black"/>
<path d="M169.057 127.08V82.1113H186.919C187.696 82.1113 188.765 82.1668 190.125 82.2779C191.513 82.3612 192.832 82.5693 194.081 82.9024C196.718 83.5686 198.772 84.9565 200.243 87.0662C201.742 89.1758 202.491 91.6324 202.491 94.436C202.491 95.9349 202.269 97.3228 201.825 98.5997C201.409 99.8488 200.77 100.959 199.91 101.931C199.521 102.403 199.077 102.833 198.577 103.221C198.078 103.582 197.592 103.874 197.12 104.096C197.953 104.262 198.897 104.693 199.952 105.387C201.561 106.386 202.755 107.704 203.532 109.342C204.31 110.98 204.698 112.867 204.698 115.005C204.698 118.086 203.949 120.584 202.45 122.499C200.979 124.415 199.063 125.706 196.704 126.372C195.566 126.705 194.358 126.913 193.081 126.996C191.804 127.052 190.639 127.08 189.584 127.08H169.057ZM173.887 122.749H189.459C190.042 122.749 190.805 122.708 191.749 122.624C192.693 122.513 193.525 122.375 194.247 122.208C196.135 121.764 197.495 120.862 198.328 119.502C199.188 118.114 199.618 116.587 199.618 114.922C199.618 112.729 198.966 110.938 197.661 109.55C196.357 108.135 194.58 107.288 192.332 107.01C191.693 106.899 191.013 106.844 190.292 106.844C189.598 106.816 188.945 106.802 188.335 106.802H173.887V122.749ZM173.887 102.43H187.877C188.543 102.43 189.334 102.389 190.25 102.305C191.166 102.194 191.985 102.014 192.707 101.764C194.317 101.209 195.51 100.265 196.287 98.9328C197.065 97.5726 197.453 96.1153 197.453 94.5609C197.453 92.8121 197.037 91.2993 196.204 90.0224C195.371 88.7178 194.164 87.7879 192.582 87.2327C191.471 86.8719 190.306 86.6637 189.084 86.6082C187.891 86.5249 187.141 86.4832 186.836 86.4832H173.887V102.43Z" fill="black"/>
<path d="M136.789 128.328C132.736 128.328 129.308 127.274 126.505 125.164C123.701 123.054 121.564 120.209 120.093 116.628C118.621 113.047 117.886 109.009 117.886 104.512C117.886 99.9872 118.621 95.9484 120.093 92.3953C121.564 88.8145 123.743 85.9971 126.63 83.943C129.517 81.8889 133.056 80.8618 137.247 80.8618C141.328 80.8618 144.811 81.9027 147.698 83.9846C150.585 86.0665 152.778 88.8978 154.277 92.4786C155.804 96.0594 156.567 100.07 156.567 104.512C156.567 109.009 155.79 113.061 154.235 116.67C152.708 120.251 150.474 123.096 147.532 125.206C144.617 127.287 141.036 128.328 136.789 128.328ZM117.095 147.065V82.1109H121.467V116.753H121.883V147.065H117.095ZM136.498 123.748C139.801 123.748 142.549 122.902 144.742 121.208C146.963 119.515 148.628 117.225 149.738 114.338C150.876 111.424 151.445 108.148 151.445 104.512C151.445 100.903 150.89 97.6694 149.78 94.8103C148.697 91.9235 147.046 89.6473 144.825 87.9818C142.632 86.2885 139.829 85.4419 136.414 85.4419C133.111 85.4419 130.349 86.2608 128.129 87.8985C125.908 89.5085 124.242 91.7569 123.132 94.6438C122.022 97.5306 121.467 100.82 121.467 104.512C121.467 108.176 122.008 111.465 123.09 114.38C124.201 117.267 125.866 119.557 128.087 121.25C130.335 122.915 133.139 123.748 136.498 123.748Z" fill="black"/>
<path d="M84.0678 128.328C79.7653 128.328 76.0457 127.371 72.9091 125.455C69.7724 123.512 67.3435 120.778 65.6225 117.253C63.9015 113.7 63.041 109.508 63.041 104.678C63.041 99.7651 63.8876 95.532 65.5809 91.979C67.3019 88.3982 69.7169 85.6501 72.8258 83.7348C75.9625 81.8195 79.6821 80.8618 83.9846 80.8618C88.3426 80.8618 92.0622 81.8611 95.1434 83.8597C98.2523 85.8305 100.612 88.6896 102.222 92.437C103.859 96.1843 104.637 100.695 104.553 105.969H99.5569V104.304C99.4181 98.1413 98.0302 93.4502 95.3932 90.2302C92.7562 87.0103 88.981 85.4003 84.0678 85.4003C78.9881 85.4003 75.0603 87.0796 72.2845 90.4384C69.5364 93.7694 68.1624 98.4883 68.1624 104.595C68.1624 110.646 69.5364 115.337 72.2845 118.668C75.0603 121.999 78.9603 123.665 83.9846 123.665C87.4543 123.665 90.48 122.86 93.0615 121.25C95.6708 119.612 97.7388 117.281 99.2655 114.255L103.596 116.17C101.791 120.056 99.1822 123.054 95.7679 125.164C92.3537 127.274 88.4536 128.328 84.0678 128.328ZM66.3304 105.969V101.639H101.847V105.969H66.3304Z" fill="black"/>
<path d="M27.2724 128.328C21.3044 128.328 16.2941 127.01 12.2414 124.373C8.18867 121.708 5.13527 118.03 3.08116 113.339C1.02705 108.648 0 103.235 0 97.1005C0 90.966 1.02705 85.5531 3.08116 80.862C5.13527 76.1708 8.18867 72.5068 12.2414 69.8697C16.2941 67.2049 21.3044 65.8726 27.2724 65.8726C34.2397 65.8726 39.8885 67.6768 44.2188 71.2854C48.5768 74.894 51.5331 79.7239 53.0875 85.7752L48.1327 86.9827C46.8558 81.9584 44.4686 77.9751 40.9711 75.0328C37.5013 72.0626 32.9351 70.5776 27.2724 70.5776C22.3592 70.5776 18.2649 71.7018 14.9894 73.9502C11.7417 76.1986 9.28511 79.3214 7.61962 83.3186C5.98189 87.3158 5.14914 91.9097 5.12139 97.1005C5.06587 102.291 5.85698 106.885 7.49471 110.882C9.1602 114.852 11.6446 117.975 14.9478 120.251C18.251 122.499 22.3592 123.623 27.2724 123.623C32.9351 123.623 37.5013 122.138 40.9711 119.168C44.4686 116.198 46.8558 112.215 48.1327 107.218L53.0875 108.426C51.5331 114.477 48.5768 119.307 44.2188 122.916C39.8885 126.524 34.2397 128.328 27.2724 128.328Z" fill="black"/>
<path d="M238.582 296.543C238.582 296.543 239.202 302.333 241.618 304.749C244.034 307.165 249.824 307.785 249.824 307.785C249.824 307.785 244.034 308.405 241.618 310.821C239.202 313.238 238.582 319.027 238.582 319.027C238.582 319.027 237.962 313.238 235.546 310.821C233.129 308.405 227.34 307.785 227.34 307.785C227.34 307.785 233.129 307.165 235.546 304.749C237.962 302.333 238.582 296.543 238.582 296.543Z" fill="#FFA771"/>
</svg>
