<svg width="20" height="22" viewBox="0 0 20 22" fill="none" xmlns="http://www.w3.org/2000/svg">
<path d="M9.99984 12.0007C11.0607 12.0007 12.0781 11.5792 12.8283 10.8291C13.5784 10.0789 13.9998 9.06152 13.9998 8.00065V5.33398C13.9998 4.27312 13.5784 3.2557 12.8283 2.50556C12.0781 1.75541 11.0607 1.33398 9.99984 1.33398C8.93897 1.33398 7.92155 1.75541 7.17141 2.50556C6.42126 3.2557 5.99984 4.27312 5.99984 5.33398V8.00065C5.99984 9.06152 6.42126 10.0789 7.17141 10.8291C7.92155 11.5792 8.93897 12.0007 9.99984 12.0007ZM9.99984 12.0007C14.4185 12.0007 19.3332 14.7807 19.3332 19.03V20.0007C19.3332 20.3543 19.1927 20.6934 18.9426 20.9435C18.6926 21.1935 18.3535 21.334 17.9998 21.334H1.99984C1.64622 21.334 1.30708 21.1935 1.05703 20.9435C0.80698 20.6934 0.666504 20.3543 0.666504 20.0007V19.03C0.666504 14.7807 5.58117 12.0007 9.99984 12.0007Z" stroke="#0C0F20" stroke-width="1.14286" stroke-linecap="round" stroke-linejoin="round"/>
</svg>
