<svg width="36" height="40" viewBox="0 0 36 40" fill="none" xmlns="http://www.w3.org/2000/svg">
<g clip-path="url(#clip0_1676_5892)">
<path d="M2.95388 4.8904C0.52832 7.31611 0.52832 11.2206 0.52832 19.0286V20.4089C0.52832 28.217 0.52832 32.1214 2.95388 34.547C5.37959 36.9726 9.28405 36.9726 17.092 36.9726H18.4724C26.2804 36.9726 30.1849 36.9726 32.6105 34.547C35.0361 32.1214 35.0361 28.217 35.0361 20.4089V19.0286C35.0361 11.2205 35.0361 7.31604 32.6105 4.8904C30.1849 2.46484 26.2804 2.46484 18.4724 2.46484H17.092C9.28397 2.46484 5.37951 2.46484 2.95388 4.8904ZM6.35151 12.9611H10.2912C10.4206 19.5463 13.3249 22.3356 15.6255 22.9108V12.961H19.3351V18.6404C21.6068 18.396 23.9936 15.8079 24.7988 12.961H28.5083C28.2049 14.4374 27.6 15.8354 26.7316 17.0674C25.8633 18.2995 24.75 19.3391 23.4616 20.1213C24.9002 20.8355 26.1709 21.847 27.1896 23.0887C28.2083 24.3305 28.9518 25.7744 29.371 27.3248H25.2876C24.9114 25.9781 24.1457 24.7724 23.0867 23.8592C22.0277 22.946 20.7225 22.3659 19.3351 22.1918V27.3248H18.8893C11.0245 27.3248 6.53845 21.933 6.35151 12.961" fill="#4B5692"/>
</g>
<defs>
<clipPath id="clip0_1676_5892">
<rect width="34.5078" height="39.4375" fill="white" transform="translate(0.52832)"/>
</clipPath>
</defs>
</svg>
