<svg width="35" height="40" viewBox="0 0 35 40" fill="none" xmlns="http://www.w3.org/2000/svg">
<g clip-path="url(#clip0_1676_5884)">
<path d="M7.09412 19.6109C7.09412 21.5288 7.6333 23.4006 8.65005 25.0104L8.88883 25.3956L7.86438 29.139L11.708 28.13L12.0777 28.3534C13.6336 29.2777 15.4207 29.7707 17.2462 29.7707H17.2539C22.846 29.7707 27.5215 25.2184 27.5215 19.6186C27.5215 16.9073 26.3507 14.3577 24.4327 12.4397C22.5071 10.5141 19.9652 9.45883 17.2539 9.45883C11.6541 9.45883 7.10182 14.0111 7.09412 19.6109ZM21.1668 25.4187C20.1963 25.565 19.4414 25.488 17.5081 24.6561C14.6735 23.4314 12.7478 20.6893 12.355 20.1347C12.3242 20.0885 12.3011 20.0653 12.2934 20.0499C12.1393 19.8497 11.0456 18.3939 11.0456 16.8919C11.0456 15.4746 11.7388 14.7428 12.0623 14.4039C12.0854 14.3808 12.1008 14.3654 12.1162 14.3423C12.3935 14.0342 12.7247 13.9572 12.9327 13.9572C13.133 13.9572 13.341 13.9572 13.5181 13.9649H13.5797C13.7569 13.9649 13.9803 13.9649 14.2036 14.4886C14.2961 14.712 14.4347 15.0509 14.5811 15.3976C14.8353 16.0138 15.0971 16.6531 15.1434 16.7532C15.2204 16.9073 15.2743 17.0844 15.1665 17.2847C14.9046 17.8085 14.635 18.0858 14.4501 18.286C14.2113 18.5325 14.1035 18.6481 14.273 18.9485C15.4515 20.9743 16.63 21.6752 18.4247 22.5764C18.7328 22.7305 18.91 22.7073 19.0871 22.4994C19.2643 22.2991 19.8497 21.6059 20.0499 21.3055C20.2502 20.9974 20.4582 21.0513 20.7355 21.1514C21.0128 21.2516 22.5148 21.991 22.8229 22.1451C22.8845 22.1759 22.9384 22.199 22.9846 22.2221C23.2003 22.3299 23.3467 22.3992 23.4083 22.4994C23.4776 22.6457 23.4776 23.2619 23.2234 23.9706C22.9692 24.6869 21.7522 25.3339 21.1668 25.4187ZM34.5078 7.39453C34.5078 4.6755 32.2971 2.46484 29.5781 2.46484H4.92968C2.21065 2.46484 0 4.6755 0 7.39453V32.0429C0 34.762 2.21065 36.9726 4.92968 36.9726H29.5781C32.2971 36.9726 34.5078 34.762 34.5078 32.0429V7.39453ZM11.4076 30.3407L4.92968 32.0429L6.66277 25.7114C5.59211 23.8627 5.02982 21.7599 5.02982 19.6032C5.03752 12.8711 10.5141 7.39453 17.2462 7.39453C20.5121 7.39453 23.5777 8.66546 25.8885 10.9762C28.1916 13.287 29.5781 16.3527 29.5781 19.6186C29.5781 26.3507 23.9783 31.8273 17.2462 31.8273C15.1973 31.8273 13.1869 31.3112 11.4076 30.3407Z" fill="#4B5692"/>
</g>
<defs>
<clipPath id="clip0_1676_5884">
<rect width="34.5078" height="39.4375" fill="white"/>
</clipPath>
</defs>
</svg>
