<svg width="36" height="40" viewBox="0 0 36 40" fill="none" xmlns="http://www.w3.org/2000/svg">
<g clip-path="url(#clip0_1676_5894)">
<path d="M22.2595 19.7341L14.9266 15.567V23.9013L22.2595 19.7341ZM30.1162 2.46484H5.46777C2.74874 2.46484 0.538086 4.6755 0.538086 7.39453V32.0429C0.538086 34.762 2.74874 36.9726 5.46777 36.9726H30.1162C32.8352 36.9726 35.0459 34.762 35.0459 32.0429V7.39453C35.0459 4.6755 32.8352 2.46484 30.1162 2.46484ZM31.2254 12.9481C31.8108 15.1511 31.8108 19.7418 31.8108 19.7418C31.8108 19.7418 31.8108 24.3326 31.2254 26.5278C30.9018 27.7449 29.9544 28.6615 28.7451 28.985C26.5653 29.5781 17.792 29.5781 17.792 29.5781C17.792 29.5781 9.01868 29.5781 6.83884 28.9927C5.62952 28.6692 4.6821 27.7526 4.35859 26.5356C3.77319 24.3326 3.77319 19.7418 3.77319 19.7418C3.77319 19.7418 3.77319 15.1434 4.35859 12.9481C4.6821 11.7311 5.62952 10.776 6.83884 10.4525C9.01868 9.85937 17.792 9.85937 17.792 9.85937C17.792 9.85937 26.5653 9.85937 28.7451 10.4525C29.9544 10.776 30.9018 11.7311 31.2254 12.9481Z" fill="#4B5692"/>
</g>
<defs>
<clipPath id="clip0_1676_5894">
<rect width="34.5078" height="39.4375" fill="white" transform="translate(0.538086)"/>
</clipPath>
</defs>
</svg>
